<?xml version="1.0" encoding="utf-8"?>
<!-- Generator: Adobe Illustrator 19.2.1, SVG Export Plug-In . SVG Version: 6.00 Build 0)  -->
<svg version="1.1" id="Layer_1" xmlns="http://www.w3.org/2000/svg" xmlns:xlink="http://www.w3.org/1999/xlink" x="0px" y="0px"
	 width="864px" height="864px" viewBox="0 0 864 864" enable-background="new 0 0 864 864" xml:space="preserve">
<g>
	<path d="M552.1141,327.2633c80.815-69.4592,127.009-157.0403,79.6835-298.6217l0.0019-0.0032
		C531.3161,67.0087,420.4793,91.5099,396.4447,232.2235C359.6658,137.5597,293.8506,68.2881,150.2794,62.0624l0.0019,0.002
		c-0.1473,125.1792-22.8527,256.7366,178.2155,325.0164c-136.0974-4.9343-255.1749,21.896-310.8193,193.969
		c108.1763,30.0042,216.4578,78.856,323.7355-38.0347c-25.4609,104.8831-12.216,203.9768,110.605,291.4268
		c68.2331-104.9333,158.8732-202.9451,27.3512-369.6424c111.4897,78.1917,225.9982,120.4673,366.3082,6.3958
		C771.0516,386.9225,706.6331,286.6942,552.1141,327.2633z M461.8928,420.1217c-4.4695,13.0791-14.1453,24.3042-27.9318,29.9775
		c-2.4218,0.9968-4.8933,1.6025-7.3623,2.1963c15.8373,99.5598,4.268,182.0742-1.1052,260.253
		c-11.3722-158.1567-15.688-233.731-26.379-261.5489c-7.2465-2.4658-13.9382-6.4282-19.4045-11.9565
		c-92.2452,47.2368-176.1275,61.208-253.7827,79.991c146.2914-58.0525,217.0717-84.9585,240.9005-103.5179
		c-4.0073-16.918,1.061-34.4512,12.9553-46.429c-67.6054-74.9885-102.8359-150.5994-140.9108-219.1887l-0.0013-0.002
		c97.1058,128.4932,141.708,189.3867,165.5411,205.7939c7.1942-1.585,14.4564-1.5686,21.3704-0.0295
		c46.0467-91.5627,104.7451-152.1362,155.6914-212.8704h0.0082c-82.5599,132.3745-123.4897,196.0073-132.1568,225.439
		c4.8883,4.6609,8.9492,10.3345,11.6858,16.9839c1.0768,2.6172,1.7669,5.2864,2.3746,7.9568
		c103.737,10.417,182.0458,44.5317,257.737,71.1343l0.0026,0.0017C565.4862,433.1386,491.4926,417.1798,461.8928,420.1217z"/>
</g>
</svg>
