<?xml version="1.0" encoding="utf-8"?>
<!-- Generator: Adobe Illustrator 19.2.1, SVG Export Plug-In . SVG Version: 6.00 Build 0)  -->
<svg version="1.1" id="Layer_1" xmlns="http://www.w3.org/2000/svg" xmlns:xlink="http://www.w3.org/1999/xlink" x="0px" y="0px"
	 width="864px" height="864px" fill="darkorange" viewBox="0 0 864 864">
<g>
	<path d="M89.7726,771.0711c38.9006,37.1631,109.1207,100.9088,216.0375,53.9876
		c106.9325-46.9063,120.7764-227.6305,117.4602-256.5035c-6.4026-0.0256-33.3439-3.9045-46.4677-12.1807
		c-4.0405-1.2769-104.267,150.0045-113.3656,159.0355c-9.0141,8.9705-21.7266,10.8361-7.2258-9.049
		c14.5431-19.9276,102.0529-159.2875,102.0529-159.2875c-16.5955-12.0198-23.2454-16.2184-39.6738-38.6696
		c-20.8545,16.6334-136.4168,100.0607-150.9932,107.3286c-14.4611,7.1823-28.0383,6.2426-8.0902-11.8548
		c19.933-18.045,122.2009-83.517,150.2118-110.7575c-7.0132-13.3505-11.9844-36.9704-14.2047-53.304
		c-29.9403,1.6622-130.6226,12.1566-175.6797,35.507c-71.5528,37.0253-97.924,115.6371-101.6837,159.2143
		C14.5085,677.9359,50.8264,733.8865,89.7726,771.0711z"/>
	<path d="M568.5879,440.5376c0.0169,6.4449-3.832,33.356-12.0779,46.5097c-1.3525,4.0259,149.9894,104.2516,159.0052,113.3354
		c9.0007,9.0745,10.839,21.7297-9.1066,7.2294c-19.8999-14.486-159.2876-102.0529-159.2876-102.0529
		c-11.9926,16.6222-16.1881,23.2751-38.6844,39.7497c16.6483,20.7177,100.1184,136.3829,107.313,150.8868
		c7.2552,14.5034,6.3004,28.0957-11.7936,8.0902c-18.0184-19.9604-83.5629-122.186-110.7309-150.1843
		c-13.3321,7.0004-37.0273,12.0474-53.3189,14.2497c1.6474,29.9557,12.1138,130.5197,35.495,175.6074
		c37.0703,71.5372,115.6642,98.0112,159.1234,101.6533c43.4589,3.7026,99.3946-32.6304,136.6063-71.5495
		c37.2087-38.8555,100.9118-109.1783,53.9753-216.0498C778.2548,451.05,597.5365,437.2363,568.5879,440.5376z"/>
	<path d="M774.1103,92.6924c-38.8281-37.1818-109.166-100.8695-216.0226-54.003
		c-106.902,46.8758-120.7429,227.5972-117.4448,256.4881c6.4178,0.0103,33.3286,3.9198,46.4825,12.1658
		c3.9954,1.3768,104.2488-149.9924,113.3505-159.0206c9.0292-9.0459,21.7269-10.8116,7.1807,9.0884
		c-14.4977,19.8882-102.0227,159.2574-102.0227,159.2574c16.5952,12.0259,23.2754,16.1943,39.692,38.6577
		c20.7908-16.6308,136.4137-100.0582,150.9599-107.2711c14.4731-7.2248,28.0682-6.3578,8.0477,11.8123
		c-19.9058,18.0179-122.2157,83.5928-150.1572,110.7575c7.019,13.3505,12.0054,36.955,14.2197,53.2892
		c29.9583-1.6745,130.5803-12.1141,175.6254-35.4465c71.6281-37.1011,97.966-115.7401,101.6082-159.1385
		C849.3923,185.8091,813.0111,129.8857,774.1103,92.6924z"/>
	<path d="M157.4586,256.1057c19.9004,14.5705,159.3183,102.0832,159.3183,102.0832c11.9955-16.6252,16.2516-23.2787,38.627-39.6917
		c-16.6485-20.7787-100.061-136.4411-107.2558-151.0052c-7.2402-14.4583-6.3004-28.0352,11.7636-8.06
		c18.0333,19.9755,83.6233,122.1855,110.7729,150.1966c13.3533-7.0162,36.9732-11.9875,53.292-14.1559
		c-1.6896-29.9737-12.1292-130.6259-35.4468-175.6863C351.4595,48.2187,272.8051,21.8054,229.3885,18.1451
		c-43.5165-3.669-99.4251,32.6366-136.6184,71.5374C55.5584,128.5409-8.1448,198.8639,38.8217,305.7047
		c46.864,106.975,227.558,120.8189,256.4427,117.4909c-0.0015-6.406,3.8804-33.3442,12.1538-46.4707
		c1.3192-4.0531-150.0047-104.2911-159.0357-113.3656C139.3818,254.2903,137.5587,241.6203,157.4586,256.1057z"/>
	<path fill="yellow" d="M512.5218,512.6456c44.5869-44.4683,44.7099-116.7121,0.199-161.3172c-44.4688-44.5872-116.6788-44.7373-161.3295-0.2413
		c-44.6021,44.4837-44.695,116.6967-0.2416,161.2993C395.6609,556.9915,467.871,557.1416,512.5218,512.6456z"/>
</g>
</svg>
