<?xml version="1.0" encoding="utf-8"?>
<!-- Generator: Adobe Illustrator 25.0.1, SVG Export Plug-In . SVG Version: 6.00 Build 0)  -->
<svg version="1.1" xmlns="http://www.w3.org/2000/svg" xmlns:xlink="http://www.w3.org/1999/xlink" x="0px" y="0px"
	 viewBox="0 0 500 500" style="enable-background:new 0 0 500 500;" xml:space="preserve">
<style type="text/css">
	.st0{fill-rule:evenodd;clip-rule:evenodd;fill:#FFFFFF;}
	.st1{fill-rule:evenodd;clip-rule:evenodd;}
</style>
<g id="BACKGROUND">
	<rect class="st0" width="500" height="500"/>
</g>
<g id="OBJECTS">
	<path class="st1" d="M210.04,210.97c-8.77-7.74-16.85-14.51-24.49-21.75c-5.97-5.66-12.43-10.78-17.23-17.76
		c-9.21-13.41-8.19-32.23,1.5-44.97c6.38-8.39,14.58-13.65,24.14-17.92c9.59-4.28,19.55-6.87,29.57-9.36
		c11.21-2.79,22.44-2.26,33.08,2.6c6.93,3.17,11.78,8.25,14.27,15.87c4.53,13.86,4.48,28.03,4.02,42.29
		c-0.2,6.28-0.52,12.56-0.79,18.84c0.38,0.13,0.77,0.26,1.15,0.39c0.98-1.71,1.99-3.39,2.92-5.12c3.53-6.5,6.91-13.08,10.58-19.49
		c8.93-15.59,21.57-26.84,39.03-31.96c10.1-2.96,19.24-0.74,28.02,5.22c10.14,6.9,18.23,15.54,24.06,26.13
		c4.68,8.5,8.44,17.68,6.67,27.65c-1.98,11.14-7.05,20.88-17.78,25.96c-10.8,5.1-22,9.34-33.03,13.94c-1.9,0.79-3.85,1.49-5.78,3.04
		c1.25,0.21,2.49,0.49,3.75,0.62c11.02,1.18,22.07,2.15,33.07,3.56c7.56,0.98,14.7,3.67,21.5,7.07
		c10.18,5.09,15.66,17.72,13.12,29.65c-0.73,3.43-1.23,6.91-1.9,10.36c-0.23,1.2-0.47,2.44-0.99,3.53
		c-3.32,6.99-6.37,14.14-10.16,20.87c-5.71,10.12-12.39,19.58-20.29,28.21c-6.14,6.72-13.87,10.06-22.39,11.79
		c-10.38,2.1-20.09-0.79-28.75-6.25c-9.86-6.22-18.5-14.03-25.77-23.25c-2.05-2.6-4.36-4.98-7.09-8.07
		c1.4,8.65,3.02,16.46,3.87,24.35c1,9.28,0.7,18.6-0.86,27.86c-1.39,8.26-5.21,15.3-10.94,21.19c-6.55,6.74-15.11,9.71-24.2,10.36
		c-6.08,0.44-12.35-0.06-18.39-1.03c-7.62-1.22-15.43-2.47-22.54-5.27c-10.92-4.29-21.92-9.08-29.48-18.76
		c-7.07-9.05-11.52-19.26-8.86-30.89c1.8-7.84,5.11-15.31,10.3-21.78c6.24-7.78,12.3-15.7,18.73-23.92
		c-1.37,0.5-2.63,0.77-3.71,1.38c-8.61,4.84-17.99,7.89-27.27,10.94c-9.47,3.11-19.36,3.68-29.16,0.91
		c-6.68-1.89-11.69-5.95-16.01-11.41c-6.95-8.79-7.6-19.07-8.18-29.49c-0.58-10.58,1.81-20.77,5.44-30.49
		c5.13-13.78,18.79-25.43,35.23-26.02c15-0.54,28.99,2.26,42.73,7.62c1.31,0.51,2.67,0.9,4.02,1.3
		C206.1,209.9,207.45,210.25,210.04,210.97z M313.02,226.64c0.21-0.43,0.42-0.86,0.64-1.29c2.15-0.63,4.34-1.15,6.45-1.91
		c10.24-3.66,20.53-7.18,30.64-11.17c6.02-2.38,12.12-4.97,17.52-8.49c12.91-8.43,18.27-22.5,12.56-37.83
		c-5.74-15.43-15.49-27.54-29.96-36.2c-10.62-6.36-20.98-5.11-30.57-0.18c-12.24,6.29-22.58,15.34-28.91,28.23
		c-5.7,11.59-13.51,22.14-16.71,34.77c-2.74,0.54-4.08-0.28-4.02-2.9c0.06-2.81,0.03-5.63,0.1-8.44
		c0.27-10.89,0.82-21.79,0.74-32.68c-0.05-7.19-0.8-14.39-1.59-21.54c-1.27-11.46-7.49-19.08-18.55-22.59
		c-7.53-2.38-15.23-2.77-22.93-1.25c-4.98,0.99-9.8,2.93-14.8,3.71c-8.69,1.36-16.57,4.82-24.09,8.94
		c-11.55,6.33-20.07,15.42-22.87,28.81c-1.6,7.66-1,15.46,3.06,22.02c6.82,11.01,16.8,19.31,26.58,27.62
		c8.17,6.95,16.48,13.72,24.69,20.61c0.6,0.51,0.87,1.41,1.24,2.04c-1.71,2.63-3.74,2.04-5.76,1.24c-2.95-1.16-5.86-2.42-8.82-3.56
		c-14.83-5.69-29.77-10.75-46.02-10.14c-12.05,0.45-22.17,4.03-29.34,14.59c-3.87,5.71-5.71,11.88-7.61,18.33
		c-3.52,11.91-1.65,23.71-0.42,35.57c6.47,16.8,15.09,23.48,32.78,22.06c7.97-0.64,16.02-2.84,23.56-5.6
		c13.72-5.02,27.04-11.07,38.6-20.33c1.97-1.57,4.01-1.8,6.87,0.13c-1.37,1.5-2.27,3.06-3.61,3.88
		c-7.19,4.37-12.63,10.67-18.36,16.59c-9.21,9.51-17.59,19.74-23.36,31.77c-2.02,4.22-4.17,8.89-4.29,13.41
		c-0.36,13.38,5.99,23.87,17.07,30.93c9.33,5.94,19.09,11.27,30.41,12.89c9.54,1.37,18.85,4.25,28.73,2.68
		c13.99-2.22,24.1-9.05,29.31-22.62c2.88-7.49,2.22-15.33,2.25-22.95c0.03-11.26-2.12-22.4-5.29-33.27
		c-1.03-3.54-1.93-7.12-2.79-10.7c-0.42-1.72,0.02-3.21,1.92-3.77c1.63-0.48,2.65,0.38,3.39,1.77c0.83,1.53,1.58,3.14,2.62,4.52
		c3.81,5.04,7.67,10.04,11.63,14.97c7.25,9.02,15.86,16.53,25.88,22.29c15.01,8.63,31.17,6.66,42.77-6.29
		c15.56-17.37,27.38-37.05,32.31-60.23c2.65-12.47-2.07-20.88-12.16-25.85c-6.49-3.19-13.46-5.39-20.67-6.14
		c-13.3-1.37-26.64-2.28-39.96-3.42c-2.62-0.23-5.27-0.49-7.83-1.05C314.92,228.39,314.01,227.32,313.02,226.64z"/>
	<g>
		<g>
			<g>
				<path d="M258.64,227.1c-6.1-15.73-9.98-32.21-15.76-48.05c-1.59-4.36-3.34-8.67-5.31-12.87c-0.61-1.31-2.55-0.17-1.94,1.14
					c7.04,15.04,11.05,31.25,16.14,47c1.45,4.5,2.99,8.97,4.7,13.38C256.98,229.03,259.16,228.45,258.64,227.1L258.64,227.1z"/>
			</g>
		</g>
		<g>
			<g>
				<path d="M248.73,236.2c-20.95-0.01-41.92-1.08-62.86,0c-1.44,0.07-1.45,2.33,0,2.25c20.94-1.08,41.91-0.01,62.86,0
					C250.18,238.45,250.18,236.2,248.73,236.2L248.73,236.2z"/>
			</g>
		</g>
		<g>
			<g>
				<path d="M260.88,250.26c-6.11,15.69-12.78,31.15-18.97,46.81c-1.81,4.6-3.59,9.21-5.3,13.84c-0.5,1.36,1.67,1.95,2.17,0.6
					c5.89-15.97,12.55-31.62,18.97-47.38c1.8-4.41,3.57-8.83,5.3-13.27C263.57,249.5,261.4,248.92,260.88,250.26L260.88,250.26z"/>
			</g>
		</g>
		<g>
			<g>
				<path d="M273.79,247.23c14.29,1.96,27.72,8.78,40.34,15.42c3.39,1.78,6.75,3.61,10.12,5.42c1.27,0.69,2.41-1.26,1.14-1.94
					c-12.78-6.88-25.65-14.04-39.55-18.41c-3.74-1.18-7.56-2.12-11.44-2.65C272.98,244.86,272.36,247.03,273.79,247.23
					L273.79,247.23z"/>
			</g>
		</g>
		<g>
			<g>
				<path d="M270.25,234.98c14.56-9.74,27.18-22.54,38.66-35.67c3.09-3.53,6.09-7.13,8.99-10.82c0.89-1.13-0.7-2.73-1.59-1.59
					c-10.72,13.62-22.7,26.51-35.99,37.66c-3.59,3.01-7.31,5.87-11.2,8.48C267.92,233.84,269.04,235.79,270.25,234.98L270.25,234.98
					z"/>
			</g>
		</g>
	</g>
	<g>
		<g>
			<g>
				<path d="M236.19,168.74c2.35,0,4.61-2.07,4.5-4.5c-0.11-2.44-1.98-4.5-4.5-4.5c-2.35,0-4.61,2.07-4.5,4.5
					C231.8,166.68,233.67,168.74,236.19,168.74L236.19,168.74z"/>
			</g>
		</g>
		<g>
			<g>
				<path d="M318.23,190.26c2.35,0,4.61-2.07,4.5-4.5c-0.11-2.44-1.98-4.5-4.5-4.5c-2.35,0-4.61,2.07-4.5,4.5
					C313.84,188.2,315.71,190.26,318.23,190.26L318.23,190.26z"/>
			</g>
		</g>
		<g>
			<g>
				<path d="M327.64,272.3c2.35,0,4.61-2.07,4.5-4.5c-0.11-2.44-1.98-4.5-4.5-4.5c-2.35,0-4.61,2.07-4.5,4.5
					C323.25,270.23,325.12,272.3,327.64,272.3L327.64,272.3z"/>
			</g>
		</g>
		<g>
			<g>
				<path d="M236.19,316.68c2.35,0,4.61-2.07,4.5-4.5c-0.11-2.44-1.98-4.5-4.5-4.5c-2.35,0-4.61,2.07-4.5,4.5
					C231.8,314.61,233.67,316.68,236.19,316.68L236.19,316.68z"/>
			</g>
		</g>
		<g>
			<g>
				<path d="M183.75,241.36c2.35,0,4.61-2.07,4.5-4.5c-0.11-2.44-1.98-4.5-4.5-4.5c-2.35,0-4.61,2.07-4.5,4.5
					C179.35,239.3,181.22,241.36,183.75,241.36L183.75,241.36z"/>
			</g>
		</g>
	</g>
	<g>
		<path d="M264.54,206.85c-39.73-12.59-52.46,64.11-2.74,64.53C301.73,271.72,311.13,208.43,264.54,206.85"/>
	</g>
	<g>
		<g>
			<path d="M226.12,199.28c6.11,5.66,12.27,11.28,17.87,17.56c0.37,0.41,0.33,1.05-0.08,1.41c-0.41,0.37-1.05,0.33-1.41-0.08
				c-0.02-0.02-0.04-0.04-0.05-0.07C237.46,211.51,231.76,205.4,226.12,199.28z"/>
		</g>
		<g>
			<path d="M259.21,189.35c1.43,6.51,1.22,13.3,2.1,19.77c0.07,0.55-0.31,1.05-0.86,1.13c-0.55,0.07-1.05-0.31-1.13-0.86
				c0-0.03-0.01-0.07-0.01-0.1C259.09,202.54,259.97,195.97,259.21,189.35z"/>
		</g>
		<g>
			<path d="M289.53,195.97c-1.39,3.41-3.14,6.68-5.03,9.85c-1.88,3.18-3.89,6.27-5.71,9.43c-0.28,0.48-0.89,0.65-1.37,0.37
				s-0.65-0.89-0.37-1.37c0.01-0.03,0.03-0.05,0.05-0.08c2.14-3.04,4.41-5.93,6.56-8.91C285.82,202.3,287.84,199.24,289.53,195.97z"
				/>
		</g>
		<g>
			<path d="M311.04,216.37c-3.44,2.04-6.67,4.39-10,6.62c-3.33,2.24-6.8,4.36-10.62,5.9c-0.51,0.21-1.1-0.04-1.3-0.55
				c-0.21-0.51,0.04-1.1,0.55-1.3c0.03-0.01,0.06-0.02,0.08-0.03c3.73-1.15,7.29-2.92,10.77-4.87
				C304,220.2,307.43,218.12,311.04,216.37z"/>
		</g>
		<g>
			<path d="M315.45,244.49c-4.04-1.25-8.22-1.87-12.4-2.39c-4.18-0.51-8.4-0.87-12.62-1.6c-0.54-0.09-0.91-0.61-0.82-1.16
				c0.09-0.54,0.61-0.91,1.16-0.82c0.03,0,0.06,0.01,0.08,0.02c4.04,1.03,8.22,1.72,12.36,2.57
				C307.35,241.96,311.52,242.92,315.45,244.49z"/>
		</g>
		<g>
			<path d="M293.39,273.16c-5.15-5.22-11.23-9.25-17.17-13.56c-0.45-0.32-0.55-0.95-0.22-1.4s0.95-0.55,1.4-0.22
				c0.02,0.02,0.05,0.04,0.07,0.06C282.94,262.83,288.74,267.49,293.39,273.16z"/>
		</g>
		<g>
			<path d="M263.07,292.46c0.77-8.82,0.44-17.64,0.1-26.47c-0.02-0.55,0.41-1.02,0.96-1.04s1.02,0.41,1.04,0.96
				c0,0.02,0,0.05,0,0.08C264.84,274.82,264.5,283.72,263.07,292.46z"/>
		</g>
		<g>
			<path d="M231.08,278.67c0.41-1.94,1.01-3.85,1.83-5.68c0.82-1.83,1.84-3.57,2.97-5.23c2.26-3.32,4.89-6.32,7.08-9.55
				c0.31-0.46,0.93-0.58,1.39-0.26c0.46,0.31,0.58,0.93,0.26,1.39c-0.02,0.02-0.03,0.05-0.05,0.07l-0.01,0.01
				c-2.55,3.14-5.4,5.9-7.88,8.94c-1.24,1.52-2.37,3.13-3.32,4.85C232.41,274.94,231.65,276.77,231.08,278.67z"/>
		</g>
		<g>
			<path d="M209.58,255.52c4.46-0.22,8.81-1.26,13.06-2.49c4.25-1.26,8.43-2.78,12.49-4.51c0.51-0.22,1.1,0.02,1.32,0.52
				c0.22,0.51-0.02,1.1-0.52,1.32c-0.02,0.01-0.05,0.02-0.07,0.03c-4.26,1.45-8.58,2.66-12.97,3.61c-2.19,0.47-4.4,0.87-6.62,1.15
				C214.05,255.42,211.81,255.59,209.58,255.52z"/>
		</g>
		<g>
			<path d="M210.13,225.74c8.46,0.79,16.95,1.52,25.36,1.21c0.55-0.02,1.02,0.41,1.04,0.96c0.02,0.55-0.41,1.02-0.96,1.04
				c-0.03,0-0.06,0-0.08,0C226.91,228.59,218.5,227.19,210.13,225.74z"/>
		</g>
	</g>
</g>
<g id="DESIGNED_BY_FREEPIK">
</g>
</svg>
