<?xml version="1.0" encoding="utf-8"?>
<!-- Generator: Adobe Illustrator 25.0.1, SVG Export Plug-In . SVG Version: 6.00 Build 0)  -->
<svg version="1.1" xmlns="http://www.w3.org/2000/svg" xmlns:xlink="http://www.w3.org/1999/xlink" x="0px" y="0px"
	 viewBox="0 0 500 500" style="enable-background:new 0 0 500 500;" xml:space="preserve">
<style type="text/css">
	.st0{fill-rule:evenodd;clip-rule:evenodd;fill:#FFFFFF;}
	.st1{fill-rule:evenodd;clip-rule:evenodd;}
</style>
<g id="BACKGROUND">
	<rect class="st0" width="500" height="500"/>
</g>
<g id="OBJECTS">
	<path class="st1" d="M274.53,155.86c0.88-1.94,1.46-2.79,1.67-3.72c1.56-6.85,5.16-12.78,8.8-18.59
		c4.58-7.32,10.02-14.01,17.59-18.58c2.64-1.59,5.2-3.37,7.99-4.65c3.17-1.47,4.56-0.79,5.25,2.47c2.06,9.71,2.48,19.44,0.03,29.18
		c-1.79,7.12-3.43,14.28-5.29,22.02c4.91-4.82,9.2-9.4,13.89-13.53c5.98-5.27,12.63-9.5,20.53-11.44c1.99-0.49,3.84-1.52,5.81-2.09
		c2.47-0.72,4.97-1.5,7.5-1.75c2.84-0.28,3.82,1.04,2.98,3.81c-1.92,6.24-4.12,12.32-7.57,18c-3.52,5.81-6.21,12.12-9.54,18.77
		c3.21-1.3,6.06-2.31,8.78-3.59c8.23-3.87,17.01-5.43,25.94-6.4c5.59-0.61,8.48-0.07,15.57,2.97c-6.33,7.76-12.33,15.52-18.7,23.01
		c-6.43,7.57-12.67,15.3-19.51,23.59c10.82-4.43,21.67-6.43,32.75-6.13c11.19,0.31,22.25,1.87,32.09,7.8
		c-0.14,3.74-2.29,5.79-4.59,7.85c-3.59,3.21-6.93,6.7-10.58,9.83c-10.82,9.27-23.61,14.61-37.2,18.27
		c-0.82,0.22-1.61,0.52-2.58,1.69c2.52,0.68,5.01,1.74,7.57,1.99c9.46,0.91,17.59,4.52,24.36,11.22c4.15,4.1,8.42,8.08,12.54,12.22
		c1.07,1.08,1.98,2.44,2.6,3.83c0.81,1.81-0.41,4.32-2.42,4.86c-6.96,1.85-13.89,4.44-20.98,5.06c-8.33,0.73-16.83-0.05-25.23-0.67
		c-6.49-0.47-12.92-1.7-19.74-1.92c2.77,2.15,5.58,4.25,8.31,6.44c7.65,6.13,13.79,13.7,18.06,22.35c2.83,5.73,3.9,12.37,5.34,18.7
		c0.29,1.25-1.33,2.94-2.15,4.6c-9.4-3.4-18.69-6.42-27.7-10.12c-8.84-3.63-17.39-7.94-26.18-12.01c1.67,5.43,3.43,10.75,4.93,16.15
		c3.03,10.89,3.21,22.1,2.98,33.27c-0.06,2.96-1.57,5.88-2.48,9.04c-1.34-0.24-2.39-0.23-3.25-0.62c-5-2.29-10.17-4.32-14.87-7.12
		c-10.56-6.29-20.48-13.42-26.59-24.59c-0.49-0.91-1.04-1.79-1.59-2.66c-0.07-0.11-0.3-0.1-0.43-0.15c-3.32,16-6.65,32-10.09,48.58
		c-13.06-5.96-23.33-14.19-31.31-25.58c-8.07-11.52-11.97-24.09-10.84-38.32c-0.39-0.01-0.79-0.02-1.18-0.02
		c-1.55,2.15-2.96,4.42-4.66,6.44c-5.65,6.71-11.19,13.53-17.18,19.93c-5.98,6.41-12.41,12.41-18.72,18.51
		c-2.27,2.19-4.27,1.77-4.78-1.14c-1.47-8.27-2.91-16.57-3.9-24.91c-1.09-9.21,1.31-17.69,6.43-25.44
		c2.33-3.54,4.42-7.24,6.77-11.11c-0.81,0-1.37-0.16-1.78,0.02c-10.09,4.57-21.1,5.3-31.77,6.33c-16.23,1.58-32.51,3.56-48.89,3.07
		c-2.52-0.08-5.41,0.23-6.19-4.14c3.24-4.93,6.55-10.54,10.41-15.73c8.75-11.78,21.38-17.56,34.96-21.56
		c7.89-2.33,15.92-4.23,23.81-6.68c-5.11,0-10.24-0.27-15.34,0.06c-10.14,0.64-19.73-1.25-29.36-4.46
		c-10.11-3.36-19.29-8.19-28.02-14.08c-0.85-0.57-1.71-1.14-2.49-1.81c-0.51-0.44-0.87-1.04-1.41-1.72c0.36-0.6,0.56-1.4,1.06-1.69
		c6.36-3.74,12.64-7.62,19.19-11c3.15-1.63,6.74-2.81,10.25-3.28c9-1.21,18.06-1.91,27.1-2.82c0.83-0.08,1.65-0.2,3.67-0.45
		c-13.87-7.75-26.33-15.65-35.19-29.24c11.01-2.92,21.28-2.44,31.53-2.51c10.26-0.07,20.08,2.42,31.03,5.2
		c-3.38-3.84-6.17-6.72-8.64-9.85c-9.32-11.83-17.4-24.35-21.36-39.13c-0.44-1.64-1.51-3.1-2.04-4.71c-0.75-2.28,0.62-3.78,2.96-3.3
		c6.9,1.42,13.87,2.64,20.66,4.48c4.78,1.29,9.33,3.44,13.96,5.26c3.33,1.31,6.62,2.71,10.07,4.13c0.03-0.57,0.25-1.15,0.06-1.52
		c-4.6-8.66-5.84-18.77-11.69-26.91c-0.54-0.75-0.59-2.58-0.05-3.19c0.61-0.69,2.29-1.01,3.24-0.7c4.39,1.43,8.82,2.87,13.01,4.81
		c6.4,2.96,12.75,6.09,18.87,9.59c5.98,3.41,9.83,9.04,13.6,14.63c1.04,1.55,2.08,3.1,3.42,5.09c1.34-2.1,0.8-3.97,0.84-5.67
		c0.23-10,1.06-19.96,4.21-29.49c1.38-4.19,3.52-8.19,5.74-12.03c1.88-3.25,4.42-3.35,6.35-0.09c3.93,6.64,7.62,13.44,10.98,20.39
		C269.38,142.56,271.59,148.73,274.53,155.86z M189.4,253.01c0.03,11.2,2.22,20.91,6.45,30.06c1.56,3.37,3.7,6.94,6.56,9.11
		c4.76,3.59,10.03,6.96,15.61,8.92c11.74,4.12,24.07,6.22,36.52,5.87c9.77-0.28,19.5-1.91,29.25-2.86
		c10.37-1.02,20.18-3.88,29.6-8.3c7.19-3.36,12.78-8.48,15.94-15.6c4.44-10.04,4.85-20.57,2.42-31.34
		c-2.2-9.74-6.7-18.35-11.59-26.89c-5.56-9.72-13.15-17.17-23.12-22.19c-1.99-1-4.25-1.48-6.2-2.54c-11.93-6.5-24.56-8.53-37.9-6.18
		c-5.76,1.02-11.54,1.99-17.21,3.38c-2.79,0.68-5.38,2.19-8.01,3.43c-1.39,0.66-2.63,1.64-4.02,2.31
		c-9.95,4.75-17.93,11.68-24.03,20.91C193.06,231.12,189.81,242.13,189.4,253.01z M266.17,385.37c0.29-0.65,0.75-1.39,0.94-2.19
		c1.55-6.69,3.19-13.36,4.54-20.09c1.25-6.21,2.75-12.46,3.12-18.75c0.57-9.79,0.03-19.62-2.91-29.11c-1.2-3.85-1.4-3.81-5.49-3.65
		c-7.02,0.27-14.05,0.61-21.08,0.61c-3.36,0-6.73-0.68-9.81-1.01c-5.19,10.21-4.82,20.55-4.29,30.86c0.13,2.52,0.76,5.19,1.86,7.45
		C240.45,364.7,249.23,378.73,266.17,385.37z M186.01,272.42c-1.47,0.35-3.13,0.65-4.75,1.12c-4.94,1.43-9.85,2.97-14.8,4.37
		c-8.77,2.48-17.78,4.3-26.27,7.51c-7.81,2.95-15.88,6.13-21.57,12.73c-3.79,4.4-7,9.32-10.4,14.05c-0.63,0.88-0.93,1.99-1.69,3.68
		c4.77,0,8.88,0.26,12.96-0.05c8.06-0.63,16.08-2,24.15-2.28c14.49-0.51,28.76-2.15,42.7-6.19c5.77-1.67,10.91-4.51,15.01-8.05
		c-3.37-4.49-6.77-8.21-9.19-12.48C189.67,282.4,188.12,277.46,186.01,272.42z M184.95,266.54c0-8.44,0-16.62,0-25.13
		c-1.33-0.59-2.82-1.57-4.45-1.9c-6.9-1.39-13.79-3.02-20.76-3.76c-11.54-1.23-22.97,0.49-34.34,2.43
		c-9.44,1.62-17.44,5.98-24.91,12.78c3.47,2,6.62,3.7,9.65,5.59c10.58,6.6,22.26,10.31,34.5,11.24c9.72,0.74,19.57-0.17,29.36-0.46
		C177.75,267.22,181.5,266.8,184.95,266.54z M323.6,373.48c0.41-2.1,0.8-3.26,0.85-4.42c0.59-13-0.33-25.91-4.76-38.19
		c-2.16-5.99-3.76-12.54-9.17-16.99c-1.52-1.25-2.52-3.24-3.46-5.05c-1.93-3.72-1.91-3.66-5.82-2.8
		c-6.03,1.34-12.11,2.45-18.17,3.67c-2.3,0.46-4.58,0.97-6.48,1.37c0.92,5.99,1.75,11.4,2.59,16.81c0.34,2.21,0.41,4.51,1.09,6.61
		c5.03,15.56,16.32,25.54,30.12,33.12C314.41,369.82,318.79,371.37,323.6,373.48z M415.41,219.62c-2.99-1.19-5.11-2.3-7.37-2.9
		c-14.48-3.85-28.97-3.75-43.27,0.72c-4.53,1.42-8.62,4.21-13.09,5.9c-7.19,2.71-13.04,7.48-19.31,11.3
		c1.71,6.78,3.34,13.2,4.97,19.63c1.56,0,2.94,0.11,4.29-0.02c11.53-1.13,22.7-4.01,33.7-7.46c11.79-3.7,22.42-9.62,31.37-18.28
		C409.49,225.82,412.15,222.97,415.41,219.62z M330.26,229.66c0.89-0.4,1.57-0.59,2.11-0.97c9.17-6.38,18.27-12.82,25.48-21.55
		c6.34-7.69,12.94-15.16,19.26-22.86c3.31-4.03,6.25-8.37,9.86-13.25c-2.47-0.36-3.94-0.77-5.4-0.75
		c-12.63,0.15-24.34,3.94-35.51,9.51c-3.36,1.67-6.98,3.43-9.48,6.08c-6.79,7.22-13.05,14.94-19.36,22.28
		C321.66,215.47,325.83,222.35,330.26,229.66z M219.8,195.63c-0.96-1.24-2.11-2.72-3.24-4.21c-4.35-5.76-8.68-11.55-13.06-17.29
		c-1.14-1.5-2.23-3.12-3.65-4.31c-12.31-10.24-26.7-15.29-42.49-16.74c-0.22-0.02-0.47,0.4-1.19,1.04
		c8.13,24.37,22.38,44.12,44.01,57.83C206.91,206.36,213.09,201.22,219.8,195.63z M332.98,283.5c5.72,1.12,10.92,2.17,16.13,3.16
		c3.88,0.73,7.75,1.71,11.67,1.99c8.22,0.59,16.49,0.55,24.7,1.21c8.06,0.65,14.9-2.84,22.72-5.22c-2.22-2.44-3.8-4.45-5.65-6.17
		c-6.29-5.86-12.33-12.17-20.74-15.02c-3.71-1.26-7.84-1.31-11.51-2.64c-5.62-2.04-11.4-2.47-17.22-2.8
		c-5.5-0.32-10.79,0.91-15.8,2.43C337.45,268.65,335.78,275.93,332.98,283.5z M294.06,192.14c0.41-0.64,0.81-1.19,1.14-1.77
		c6.8-11.92,10.54-25.01,14.36-38.06c0.15-0.49,0.21-1.01,0.27-1.52c0.58-4.74,1.39-9.46,1.66-14.21
		c0.31-5.48,0.22-10.98,0.09-16.47c-0.03-1.22-0.94-2.42-1.36-3.43c-0.79,0-1.15-0.09-1.45,0.02c-0.48,0.17-0.92,0.46-1.36,0.71
		c-12.51,7.17-19.98,18.66-26.22,31.06c-3.73,7.41-6.02,15.17-4.62,23.79c0.73,4.47,0.13,9.16,0.13,13.75
		C282.59,188.1,288.07,190.03,294.06,192.14z M229.55,310.3c-1.36-0.38-2.5-0.63-3.59-1.01c-4.69-1.64-9.71-2.72-13.96-5.14
		c-3.85-2.2-6.44-1.6-9.74,0.67c-9.2,6.32-14.29,15.73-19.05,25.26c-1.95,3.9-3.02,8.4-2.43,13.02c0.96,7.49,1.81,14.99,2.79,22.48
		c0.09,0.69,0.8,1.31,1.42,2.25c1.93-1.77,3.56-3.26,5.18-4.75c12.96-11.95,24.37-25.26,34.39-39.74
		C227.2,319.52,229.02,315.28,229.55,310.3z M355.92,140.72c-1.24,0.09-2.13-0.03-2.87,0.24c-10.41,3.94-20.49,7.89-29.06,15.89
		c-11.56,10.78-18.55,23.89-24.49,38.06c4.65,3.15,9.14,6.21,13.71,9.32C331.61,185.81,347.22,165.89,355.92,140.72z M311.21,303.42
		c1.57,2.75,3.29,5.9,5.17,8.94c0.51,0.83,1.42,1.5,2.3,2c13.3,7.64,26.91,14.61,41.66,19.11c3.38,1.03,6.71,2.21,10.59,3.49
		c-0.13-7.29-2.32-13.15-5.94-18.46c-4.96-7.25-10.35-14.25-17.57-19.39c-5.54-3.94-11.11-8.07-16.94-9.29
		C323.6,294.67,317.51,298.98,311.21,303.42z M252.82,120.03c-0.45-0.04-0.9-0.07-1.36-0.11c-1.53,4.15-3.5,8.2-4.51,12.47
		c-2.09,8.83-3.09,17.8-3.41,26.94c-0.31,8.84,3.14,16.41,5.79,24.34c0.2,0.59,0.84,1.02,0.98,1.18c7.21,0,13.99,0,21.1,0
		c0.19-8.98,1.05-17.56-1.09-26.01c-2.76-10.91-8.06-20.79-12.94-30.82C256.04,125.28,254.35,122.69,252.82,120.03z M194.09,135.33
		c0.07,1.26-0.02,1.79,0.14,2.21c3.53,8.92,7.12,17.82,10.63,26.75c4.49,11.43,12.07,20.58,20.77,28.69
		c6.02-2,11.82-3.92,17.71-5.87c-0.24-1.19-0.32-2.02-0.57-2.8c-3.9-11.89-10-22.57-18.1-32.09c-1.32-1.55-2.9-3.02-4.62-4.09
		C212,143.18,203.47,139.16,194.09,135.33z M127.48,204.28c0.75,1.21,1.07,1.98,1.6,2.57c6.41,7.1,14.03,12.71,22.39,17.17
		c10.22,5.45,21.49,7.98,32.69,10.64c2.66,0.63,3.97-0.15,5.03-2.8c2.06-5.19,4.64-10.19,7.2-15.69
		C175.5,202.93,152.11,201.88,127.48,204.28z"/>
	<g>
		<g>
			<path d="M226.82,250.74c0.29-6.57,2.71-12.96,6.98-17.99c1.95-2.3,4.25-4.27,6.82-5.82c1.18-0.72,2.44-1.28,3.62-1.99
				c1.4-0.84,2.96-1.67,4.53-2.12c3.34-0.94,6.98-1.58,10.43-1.97c3.23-0.36,6.5-0.17,9.66,0.62c3.16,0.8,6.01,2.36,9.01,3.58
				c2.72,1.11,5.25,3.04,7.3,5.11c2.13,2.15,3.73,4.64,5.19,7.27c1.59,2.86,3.06,5.8,4.05,8.92c1.96,6.19,2.18,13.67-1.48,19.31
				c-3.36,5.18-10.22,7.38-15.95,8.62c-3.41,0.74-6.92,0.98-10.38,1.39c-3.48,0.42-6.97,0.8-10.48,0.76
				c-7.55-0.09-15.6-1.75-21.86-6.12c-1.6-1.12-2.79-2.26-3.75-3.99c-0.85-1.54-1.5-3.2-2.05-4.87
				C227.34,257.99,226.86,254.38,226.82,250.74c-0.01-0.96-1.51-0.97-1.5,0c0.03,3.49,0.46,6.98,1.45,10.34
				c0.86,2.89,2.03,6.02,4.03,8.32c1.04,1.2,2.48,2.1,3.81,2.96c1.54,1,3.17,1.86,4.88,2.51c3.39,1.29,6.99,2.12,10.58,2.61
				c7.73,1.05,15.47-0.13,23.15-1.06c3.45-0.41,6.84-1.23,10.1-2.44c2.9-1.07,5.79-2.33,8.15-4.38c5.05-4.41,6.42-11.8,5.59-18.19
				c-0.45-3.44-1.51-6.74-2.94-9.89c-1.41-3.11-3.04-6.26-5.04-9.03c-1.73-2.4-3.81-4.51-6.2-6.25c-1.26-0.92-2.62-1.77-4.05-2.41
				c-0.75-0.33-1.55-0.55-2.3-0.89c-0.94-0.43-1.83-0.95-2.78-1.36c-3.03-1.32-6.25-2.13-9.55-2.35c-3.55-0.23-7.01,0.38-10.49,1.02
				c-2.1,0.39-4.35,0.68-6.35,1.46c-1.71,0.67-3.25,1.64-4.87,2.49c-3.11,1.63-5.98,3.49-8.45,6.03c-5.34,5.49-8.4,12.88-8.74,20.51
				C225.28,251.71,226.78,251.7,226.82,250.74z"/>
		</g>
	</g>
	<g>
		<g>
			<g>
				<g>
					<path d="M260.99,189.06c1.14,9.64,1.53,19.65,0.03,29.27c-0.15,0.94,1.3,1.35,1.45,0.4c1.53-9.77,1.19-19.88,0.03-29.67
						C262.38,188.12,260.88,188.1,260.99,189.06L260.99,189.06z"/>
				</g>
			</g>
			<g>
				<g>
					<path d="M252.76,309.66c1.42-10.56,0.76-21.24,1.82-31.83c0.1-0.96-1.4-0.95-1.5,0c-1.05,10.45-0.37,21.01-1.77,31.43
						C251.19,310.2,252.63,310.61,252.76,309.66L252.76,309.66z"/>
				</g>
			</g>
			<g>
				<g>
					<path d="M332.18,243.66c-12.08,0.42-23.59,4.62-35.58,5.75c-0.95,0.09-0.96,1.59,0,1.5c11.98-1.13,23.51-5.33,35.58-5.75
						C333.14,245.12,333.15,243.62,332.18,243.66L332.18,243.66z"/>
				</g>
			</g>
			<g>
				<g>
					<path d="M188.07,254.86c12.22-0.36,24.43-1.07,36.66-1.08c0.97,0,0.97-1.5,0-1.5c-12.23,0.01-24.44,0.71-36.66,1.08
						C187.11,253.39,187.1,254.89,188.07,254.86L188.07,254.86z"/>
				</g>
			</g>
			<g>
				<g>
					<path d="M212.13,205.52c10.32,5.07,16.19,15.48,25.16,22.28c0.77,0.58,1.52-0.72,0.76-1.3c-8.98-6.81-14.8-17.2-25.16-22.28
						C212.02,203.81,211.26,205.1,212.13,205.52L212.13,205.52z"/>
				</g>
			</g>
			<g>
				<g>
					<path d="M306.02,203.06c-5.93,9.34-14.2,16.89-20.12,26.24c-0.52,0.82,0.78,1.57,1.3,0.76c5.93-9.34,14.2-16.89,20.12-26.24
						C307.83,203,306.53,202.25,306.02,203.06L306.02,203.06z"/>
				</g>
			</g>
			<g>
				<g>
					<path d="M314.77,296.15c-11.87-4.03-21.23-13.72-28.3-23.73c-0.55-0.78-1.85-0.03-1.3,0.76c7.32,10.35,16.93,20.26,29.2,24.42
						C315.29,297.91,315.68,296.46,314.77,296.15L314.77,296.15z"/>
				</g>
			</g>
			<g>
				<g>
					<path d="M195.99,286.74c11.78-5.87,24.31-10.49,35.22-17.97c0.79-0.54,0.04-1.84-0.76-1.3c-10.91,7.48-23.44,12.1-35.22,17.97
						C194.37,285.88,195.13,287.17,195.99,286.74L195.99,286.74z"/>
				</g>
			</g>
			<g>
				<g>
					<path d="M219.86,304.6c7.37-9.29,11.4-20.61,18.09-30.34c0.55-0.8-0.75-1.55-1.3-0.76c-6.61,9.61-10.57,20.86-17.85,30.04
						C218.21,304.28,219.27,305.35,219.86,304.6L219.86,304.6z"/>
				</g>
			</g>
			<g>
				<g>
					<path d="M195.06,226.08c11.3,3.92,21.54,10.72,33.42,12.94c0.94,0.18,1.35-1.27,0.4-1.45c-11.87-2.22-22.13-9.02-33.42-12.94
						C194.54,224.32,194.15,225.77,195.06,226.08L195.06,226.08z"/>
				</g>
			</g>
			<g>
				<g>
					<path d="M236.58,193.58c3.83,9.08,10.59,17.47,11.83,27.47c0.12,0.95,1.62,0.96,1.5,0c-1.27-10.22-7.98-18.61-11.89-27.87
						C237.66,192.3,236.2,192.69,236.58,193.58L236.58,193.58z"/>
				</g>
			</g>
			<g>
				<g>
					<path d="M284.81,192.64c-2.27,4.61-3.44,9.66-4.82,14.59c-1.39,5-2.93,10.24-6.21,14.37c-0.59,0.75,0.46,1.82,1.06,1.06
						c6.68-8.4,6.64-19.88,11.26-29.26C286.53,192.53,285.24,191.77,284.81,192.64L284.81,192.64z"/>
				</g>
			</g>
			<g>
				<g>
					<path d="M322.46,222.2c-9.39,6.16-18.39,13.48-29.29,16.81c-0.92,0.28-0.53,1.73,0.4,1.45c11.04-3.37,20.14-10.73,29.65-16.97
						C324.02,222.97,323.27,221.67,322.46,222.2L322.46,222.2z"/>
				</g>
			</g>
			<g>
				<g>
					<path d="M333.82,271c-12.75-2.48-25.61-4.61-38.09-8.27c-0.93-0.27-1.32,1.18-0.4,1.45c12.49,3.65,25.34,5.79,38.09,8.27
						C334.36,272.63,334.76,271.18,333.82,271L333.82,271z"/>
				</g>
			</g>
			<g>
				<g>
					<path d="M287.9,304.76c-5.83-8.97-9.74-18.86-13.22-28.93c-0.31-0.91-1.76-0.52-1.45,0.4c3.52,10.19,7.47,20.21,13.37,29.29
						C287.13,306.33,288.43,305.58,287.9,304.76L287.9,304.76z"/>
				</g>
			</g>
		</g>
		<g>
			<g>
				<g>
					<path d="M245.93,240.58c3.86,0,3.87-6,0-6C242.07,234.58,242.06,240.58,245.93,240.58L245.93,240.58z"/>
				</g>
			</g>
			<g>
				<g>
					<path d="M281.15,262.14c3.86,0,3.87-6,0-6C277.29,256.14,277.28,262.14,281.15,262.14L281.15,262.14z"/>
				</g>
			</g>
			<g>
				<g>
					<path d="M249.16,265.44c2.35,0,4.61-2.07,4.5-4.5c-0.11-2.44-1.98-4.5-4.5-4.5c-2.35,0-4.61,2.07-4.5,4.5
						C244.77,263.38,246.64,265.44,249.16,265.44L249.16,265.44z"/>
				</g>
			</g>
			<g>
				<g>
					<path d="M268.93,240.64c2.35,0,4.61-2.07,4.5-4.5c-0.11-2.44-1.98-4.5-4.5-4.5c-2.35,0-4.61,2.07-4.5,4.5
						C264.54,238.58,266.41,240.64,268.93,240.64L268.93,240.64z"/>
				</g>
			</g>
			<g>
				<g>
					<path d="M234.79,252.74c1.93,0,1.93-3,0-3C232.86,249.74,232.85,252.74,234.79,252.74L234.79,252.74z"/>
				</g>
			</g>
			<g>
				<g>
					<path d="M285.46,247.35c1.93,0,1.93-3,0-3C283.53,244.35,283.53,247.35,285.46,247.35L285.46,247.35z"/>
				</g>
			</g>
			<g>
				<g>
					<path d="M267.49,269.99c1.93,0,1.93-3,0-3C265.56,266.99,265.56,269.99,267.49,269.99L267.49,269.99z"/>
				</g>
			</g>
			<g>
				<g>
					<path d="M267.49,255.64c2.9,0,2.9-4.5,0-4.5C264.59,251.14,264.59,255.64,267.49,255.64L267.49,255.64z"/>
				</g>
			</g>
		</g>
		<g>
			<g>
				<path d="M182.69,174.34c2.43,2.23,4.72,4.6,6.98,6.99l6.75,7.19c2.24,2.39,4.54,4.74,6.89,7.02c1.18,1.14,2.39,2.24,3.63,3.32
					l1.87,1.6l1.92,1.55c-0.7-0.44-1.39-0.88-2.08-1.34l-2.02-1.44c-1.31-1.01-2.58-2.06-3.84-3.13c-2.5-2.16-4.83-4.51-7.1-6.9
					c-2.25-2.41-4.45-4.86-6.59-7.36L182.69,174.34z"/>
			</g>
			<g>
				<path d="M296.25,149.18c-0.91,3.38-1.97,6.72-3.06,10.04c-1.07,3.33-2.23,6.63-3.34,9.94l-3.36,9.92
					c-0.55,1.66-1.09,3.32-1.61,4.98c-0.55,1.66-1.03,3.34-1.56,5.01c0.31-1.72,0.7-3.43,1.09-5.14c0.43-1.7,0.88-3.39,1.35-5.08
					c0.94-3.37,2.03-6.7,3.15-10.02c1.15-3.31,2.32-6.6,3.57-9.87C293.7,155.7,294.95,152.43,296.25,149.18z"/>
			</g>
			<g>
				<path d="M253.48,149.54c0.37,3,1.09,5.91,1.92,8.8c0.83,2.89,1.71,5.78,2.37,8.74c0.33,1.48,0.59,2.99,0.75,4.5
					c0.16,1.52,0.2,3.04,0.2,4.55c0,1.51-0.01,3.01,0.05,4.51c0.03,1.5,0.18,2.99,0.47,4.48c-0.5-1.43-0.76-2.94-0.95-4.44
					c-0.16-1.51-0.24-3.02-0.33-4.52c-0.14-3.01-0.47-5.95-1.15-8.87c-0.63-2.92-1.47-5.81-2.14-8.77
					c-0.33-1.48-0.64-2.96-0.87-4.46C253.6,152.56,253.45,151.05,253.48,149.54z"/>
			</g>
			<g>
				<path d="M215.39,160.68c1.72,2.43,3.26,4.99,4.76,7.56c1.51,2.56,2.92,5.18,4.38,7.77c1.43,2.6,2.89,5.18,4.39,7.73
					c0.75,1.28,1.53,2.54,2.34,3.78l1.21,1.87c0.42,0.61,0.84,1.22,1.25,1.84c-1.01-1.1-1.94-2.26-2.87-3.43
					c-0.89-1.2-1.75-2.42-2.58-3.65c-1.67-2.48-3.16-5.06-4.62-7.65c-1.43-2.61-2.83-5.23-4.17-7.88L215.39,160.68z"/>
			</g>
			<g>
				<path d="M331.47,165.71c-0.38,0.82-0.77,1.64-1.17,2.46l-1.28,2.41l-1.4,2.34l-1.47,2.3c-2.01,3.04-4.24,5.92-6.52,8.74
					c-2.3,2.81-4.66,5.56-7.03,8.3c-1.19,1.37-2.36,2.75-3.52,4.14l-1.75,2.08c-0.57,0.71-1.14,1.41-1.73,2.1
					c0.98-1.53,2.04-3,3.09-4.48c1.09-1.45,2.2-2.89,3.31-4.32c2.24-2.86,4.57-5.63,6.85-8.44c2.29-2.8,4.53-5.64,6.66-8.55
					C327.64,171.86,329.63,168.84,331.47,165.71z"/>
			</g>
			<g>
				<path d="M356.27,188.35c-2.77,2.6-5.41,5.32-7.96,8.11c-2.56,2.79-5.08,5.61-7.59,8.47c-2.56,2.8-5.11,5.63-7.82,8.3l-2.06,1.97
					l-2.11,1.92l-2.19,1.83c-0.75,0.59-1.5,1.17-2.26,1.74c0.69-0.66,1.38-1.3,2.08-1.94l2.03-1.99l2-2.02l1.95-2.06
					c2.58-2.77,5.12-5.58,7.63-8.43c2.56-2.8,5.09-5.64,7.78-8.33C350.43,193.24,353.23,190.64,356.27,188.35z"/>
			</g>
			<g>
				<path d="M379.27,277.84c-3.68-0.53-7.37-0.94-11.07-1.28l-11.1-0.96c-3.7-0.35-7.41-0.71-11.09-1.26
					c-1.84-0.28-3.68-0.59-5.51-0.94c-1.82-0.39-3.64-0.8-5.43-1.31c0.92,0.14,1.84,0.28,2.75,0.44l2.76,0.38
					c1.84,0.25,3.68,0.47,5.53,0.66c3.69,0.37,7.39,0.71,11.09,1.03c3.7,0.35,7.41,0.68,11.1,1.2
					C371.98,276.29,375.66,276.91,379.27,277.84z"/>
			</g>
			<g>
				<path d="M384.3,227.52c-1.97,0.91-3.94,1.78-5.89,2.71l-5.88,2.74c-3.91,1.83-7.86,3.61-11.84,5.32
					c-4.01,1.64-8.05,3.22-12.2,4.49l-3.13,0.89l-3.16,0.78l-3.2,0.61c-1.07,0.17-2.15,0.3-3.22,0.44l3.17-0.7l3.13-0.82l3.1-0.91
					l3.07-1.01c4.07-1.4,8.09-2.97,12.06-4.68c3.99-1.63,7.93-3.42,11.91-5.1C376.2,230.59,380.2,228.93,384.3,227.52z"/>
			</g>
			<g>
				<path d="M155.37,214.23c3.14,0.68,6.21,1.63,9.25,2.67c3.04,1.02,6.03,2.19,9.02,3.35c2.98,1.18,5.96,2.34,8.94,3.47
					c1.49,0.56,3,1.1,4.51,1.61l2.28,0.76c0.77,0.23,1.53,0.47,2.29,0.72c-1.58-0.27-3.15-0.63-4.71-1.01
					c-1.55-0.42-3.09-0.87-4.63-1.35c-3.07-0.97-6.07-2.11-9.06-3.27l-8.92-3.56C161.39,216.43,158.4,215.31,155.37,214.23z"/>
			</g>
			<g>
				<path d="M141,250.89c3.57,0.72,7.17,1.2,10.79,1.49c3.62,0.27,7.24,0.41,10.87,0.44c3.63,0.05,7.26,0,10.9,0.02l5.46,0.03
					c1.82,0.05,3.64,0.08,5.46,0.19l-5.45,0.3l-5.45,0.25c-3.64,0.17-7.28,0.25-10.93,0.21c-3.65-0.06-7.3-0.22-10.93-0.68
					C148.08,252.69,144.47,252.01,141,250.89z"/>
			</g>
			<g>
				<path d="M145.67,300.48c3.84-1.38,7.76-2.55,11.68-3.67c3.92-1.12,7.88-2.12,11.81-3.18c3.95-0.99,7.89-2.04,11.82-3.09
					c1.97-0.52,3.93-1.07,5.89-1.64l2.94-0.84c0.97-0.3,1.95-0.59,2.93-0.88c-1.88,0.79-3.8,1.48-5.72,2.18
					c-1.93,0.66-3.87,1.29-5.82,1.91c-3.9,1.21-7.85,2.26-11.79,3.32L145.67,300.48z"/>
			</g>
			<g>
				<path d="M195.27,343.24l1.85-2.08l1.74-2.16l1.67-2.21l1.59-2.27c2.06-3.06,3.98-6.22,5.83-9.42c1.87-3.19,3.67-6.43,5.6-9.61
					c1.91-3.18,3.89-6.33,6.16-9.28l-1.42,2.39l-1.38,2.41c-0.92,1.61-1.82,3.23-2.69,4.86c-1.76,3.26-3.54,6.51-5.4,9.73
					c-1.88,3.2-3.84,6.37-6.07,9.36C200.52,337.96,198.08,340.81,195.27,343.24z"/>
			</g>
			<g>
				<path d="M257.8,364.81l-0.55-13.02l-0.49-13.02c-0.1-4.34-0.23-8.69-0.26-13.03l0.02-6.52c0.05-2.17,0.09-4.35,0.2-6.52
					l0.55,13.02l0.48,13.02c0.09,4.34,0.23,8.69,0.25,13.03C258.03,356.11,258,360.46,257.8,364.81z"/>
			</g>
			<g>
				<path d="M310.98,353.67c-0.54-2.01-1.15-3.99-1.88-5.94c-0.7-1.95-1.47-3.88-2.29-5.78c-1.64-3.81-3.41-7.56-5.24-11.29
					c-1.84-3.75-3.26-7.7-4.71-11.58c-0.72-1.95-1.45-3.89-2.26-5.8c-0.78-1.92-1.66-3.8-2.66-5.63c2.36,3.44,4.03,7.31,5.64,11.14
					c1.61,3.84,3,7.75,4.9,11.43c1.75,3.77,3.55,7.53,5.05,11.43C309.02,345.55,310.32,349.55,310.98,353.67z"/>
			</g>
			<g>
				<path d="M348,317.73c-1.11-0.94-2.2-1.91-3.33-2.83c-1.11-0.94-2.23-1.87-3.36-2.77c-2.27-1.81-4.55-3.61-6.87-5.35
					c-2.31-1.76-4.66-3.46-7.01-5.18l-7.11-5.08c1.3,0.67,2.56,1.41,3.82,2.13c1.25,0.75,2.48,1.53,3.72,2.31
					c2.46,1.57,4.84,3.26,7.18,5.02c2.32,1.77,4.6,3.6,6.77,5.56C343.98,313.49,346.08,315.53,348,317.73z"/>
			</g>
		</g>
		<g>
			<g>
				<g>
					<path d="M247.66,190.99c3.83,9.27,6.02,19.23,7.55,29.11c0.09,0.57,0.96,0.33,0.87-0.24c-1.53-9.88-3.72-19.84-7.55-29.11
						C248.31,190.22,247.44,190.45,247.66,190.99L247.66,190.99z"/>
				</g>
			</g>
			<g>
				<g>
					<path d="M224.35,198.64c4.9,9.28,14.39,15.53,18.28,25.41c0.21,0.53,1.08,0.3,0.87-0.24c-3.93-9.98-13.43-16.27-18.37-25.62
						C224.85,197.68,224.07,198.13,224.35,198.64L224.35,198.64z"/>
				</g>
			</g>
			<g>
				<g>
					<path d="M202.94,214.62c5.54,2.76,11.29,5.1,16.64,8.22c2.41,1.41,4.58,2.98,6.66,4.84c1.91,1.71,3.83,3.44,6.17,4.54
						c0.52,0.25,0.98-0.53,0.45-0.78c-2.45-1.16-4.42-3.01-6.42-4.79c-1.99-1.77-4.1-3.24-6.41-4.59
						c-5.35-3.12-11.1-5.47-16.64-8.22C202.88,213.58,202.42,214.36,202.94,214.62L202.94,214.62z"/>
				</g>
			</g>
			<g>
				<g>
					<path d="M189.75,240.18c11.94,2.9,23.78,6.45,36.06,7.56c0.58,0.05,0.57-0.85,0-0.9c-12.2-1.11-23.96-4.65-35.82-7.53
						C189.43,239.17,189.19,240.04,189.75,240.18L189.75,240.18z"/>
				</g>
			</g>
			<g>
				<g>
					<path d="M189.63,271.08c12.31-3.28,24.36-8.54,37.26-8.97c0.58-0.02,0.58-0.92,0-0.9c-12.98,0.43-25.1,5.69-37.5,9
						C188.84,270.36,189.07,271.23,189.63,271.08L189.63,271.08z"/>
				</g>
			</g>
			<g>
				<g>
					<path d="M207.08,297.2c5.1-4.01,10.2-8.1,14.66-12.83c3.86-4.1,6.9-9.35,11.84-12.26c0.5-0.29,0.05-1.07-0.45-0.78
						c-4.94,2.91-7.87,8.02-11.74,12.09c-4.59,4.82-9.73,9.03-14.95,13.14C205.99,296.92,206.63,297.56,207.08,297.2L207.08,297.2z"
						/>
				</g>
			</g>
			<g>
				<g>
					<path d="M234.75,309.42c3.47-4.47,5.84-9.51,7.26-14.98c1.44-5.54,2.1-11.25,3.28-16.85c0.12-0.57-0.75-0.81-0.87-0.24
						c-1.12,5.36-1.79,10.81-3.1,16.13c-1.37,5.58-3.67,10.75-7.21,15.3C233.77,309.24,234.4,309.88,234.75,309.42L234.75,309.42z"
						/>
				</g>
			</g>
			<g>
				<g>
					<path d="M264.53,278.92c0.41,9.64,1.19,19.79,4.69,28.87c0.21,0.53,1.08,0.3,0.87-0.24c-3.48-9.01-4.25-19.06-4.65-28.63
						C265.41,278.34,264.51,278.34,264.53,278.92L264.53,278.92z"/>
				</g>
			</g>
			<g>
				<g>
					<path d="M291.71,268.52c11.15,6.49,21.83,13.95,33.89,18.73c0.54,0.21,0.77-0.66,0.24-0.87
						c-11.97-4.75-22.59-12.19-33.67-18.64C291.66,267.45,291.21,268.23,291.71,268.52L291.71,268.52z"/>
				</g>
			</g>
			<g>
				<g>
					<path d="M297.33,257.8c12.43,1.42,24.92,0.02,37.37,0c0.58,0,0.58-0.9,0-0.9c-12.46,0.02-24.95,1.42-37.37,0
						C296.75,256.84,296.76,257.74,297.33,257.8L297.33,257.8z"/>
				</g>
			</g>
			<g>
				<g>
					<path d="M294.42,197.11c-6.16,8.11-11.96,17.19-14.78,27.06c-0.16,0.56,0.71,0.8,0.87,0.24c2.79-9.79,8.58-18.8,14.69-26.85
						C295.55,197.1,294.77,196.65,294.42,197.11L294.42,197.11z"/>
				</g>
			</g>
			<g>
				<g>
					<path d="M316.15,214.56c-9.08,5.86-16.51,13.95-25.88,19.41c-0.5,0.29-0.05,1.07,0.45,0.78c9.37-5.46,16.79-13.55,25.88-19.41
						C317.09,215.02,316.64,214.24,316.15,214.56L316.15,214.56z"/>
				</g>
			</g>
			<g>
				<g>
					<path d="M272.44,191.59c0.3,9.43-4.93,18.01-5.75,27.31c-0.05,0.58,0.85,0.57,0.9,0c0.81-9.3,6.05-17.87,5.75-27.31
						C273.32,191.01,272.42,191.01,272.44,191.59L272.44,191.59z"/>
				</g>
			</g>
		</g>
	</g>
</g>
<g id="DESIGNED_BY_FREEPIK">
</g>
</svg>
