<?xml version="1.0" encoding="utf-8"?>
<!-- Generator: Adobe Illustrator 25.0.1, SVG Export Plug-In . SVG Version: 6.00 Build 0)  -->
<svg version="1.1" xmlns="http://www.w3.org/2000/svg" xmlns:xlink="http://www.w3.org/1999/xlink" x="0px" y="0px"
	 viewBox="0 0 500 500" style="enable-background:new 0 0 500 500;" xml:space="preserve">
<style type="text/css">
	.st0{fill-rule:evenodd;clip-rule:evenodd;fill:#FFFFFF;}
	.st1{fill-rule:evenodd;clip-rule:evenodd;}
</style>
<g id="BACKGROUND">
	<rect class="st0" width="500" height="500"/>
</g>
<g id="OBJECTS">
	<g>
		<g>
			<path d="M220.97,193.89c0.84,18.52-0.64,37.23-4.64,55.49c-3.94,18.27-10.32,35.98-17.54,53.15
				c-7.21,17.2-15.18,33.97-22.1,50.98c-6.95,17-12.81,34.29-16.56,51.96l-12.63-3.09c5.04-18.37,12.19-35.95,20.27-52.82
				c8.06-16.9,16.99-33.16,25.1-49.72c8.12-16.54,15.37-33.5,20.31-51.25C218.16,230.87,220.73,212.43,220.97,193.89z"/>
		</g>
		<g>
			<g>
				<path d="M146.43,266.08c3.12,4.25,5.83,8.61,8.44,13.03c2.59,4.43,5.02,8.94,7.25,13.58c2.23,4.64,4.24,9.41,5.9,14.34
					c1.63,4.93,2.96,10.01,3.4,15.28c-2.81-4.47-5.29-8.92-7.73-13.41c-2.43-4.49-4.77-9-6.98-13.62
					c-2.21-4.61-4.28-9.32-6.09-14.16C148.83,276.27,147.26,271.29,146.43,266.08z"/>
			</g>
			<g>
				<path d="M187.73,354.1c4.51-2.41,9.24-4.13,14-5.63c4.76-1.48,9.57-2.7,14.39-3.77c4.82-1.07,9.66-1.97,14.53-2.77
					c4.88-0.78,9.77-1.5,14.87-1.88c-4.31,2.76-8.97,4.76-13.69,6.45c-4.73,1.67-9.56,2.99-14.42,4.06
					c-4.86,1.07-9.76,1.89-14.69,2.51C197.79,353.66,192.84,354.11,187.73,354.1z"/>
			</g>
		</g>
	</g>
	<g>
		<path class="st1" d="M369.84,215.96c-0.87,12.95-3.61,25.53-7.16,37.91c-4.45,15.5-9.43,30.85-14.21,46.25
			c-2.26,7.25-4.31,14.54-2.86,22.24c0.37,1.94-0.13,3.44-1.88,3.94c-1.16,0.33-3.06,0.22-3.81-0.53
			c-9.14-9-21.03-12.48-32.72-16.05c-9.95-3.04-20.19-5.28-30.41-7.31c-16.05-3.19-30.5-10.28-45.22-16.98
			c-11.37-5.18-21.49-12.02-30.36-20.5c-5.84-5.59-10.7-12.33-15.37-18.99c-9.44-13.46-13.24-29.28-17.76-44.74
			c-2.88-9.85-4.06-19.95-4.27-30.23c-0.37-17.86,4.06-34.11,15.9-47.73c5.38-6.18,11.95-10.64,20.3-12.97
			c9.05-2.53,17.92-2.62,27.06-1.97c6.62,0.47,12.22,3,17.22,7.15c2.04,1.69,3.91,3.59,5.93,5.3c4.76,4.03,7.28,9.22,8.4,15.27
			c0.82,4.42,1.84,8.8,2.92,13.16c0.54,2.18,1.4,4.27,2.14,6.4c1.09,3.12,3.6,4.46,6.6,4.65c3.25,0.21,5.32-1.89,6.64-4.62
			c2.32-4.8,2-9.91,1.61-15.05c-0.62-8.33-1.37-16.67-1.5-25.01c-0.19-11.96,9.93-21.46,22.74-21.62
			c19.45-0.24,35.94,6.65,48.89,21.25c3.47,3.92,6.52,8.35,9.04,12.94c3.52,6.43,6.65,13.12,9.41,19.92
			c3.56,8.8,4.32,18.2,4.69,27.6c0.15,3.88,0.03,7.77,0.03,11.66 M338.63,315.69c3.2-10.71,6.11-21.53,9.69-32.13
			c4.76-14.1,9.41-28.21,12.52-42.78c4.1-19.22,5.89-38.67,6.27-58.31c0.33-17.27-4.89-33.01-12.13-48.29
			c-1.57-3.31-3.57-6.43-5.58-9.5c-5.42-8.29-13.3-13.56-21.79-18.35c-9.31-5.25-18.98-7.35-29.48-5.94
			c-9.03,1.21-14.84,6.41-15.38,15.56c-0.49,8.3,0.04,16.74,1.07,25.01c0.73,5.9,0.07,11.36-1.55,16.88
			c-1.41,4.82-4.79,7.77-9.61,8.32c-5.14,0.58-10.02-0.83-12.47-5.91c-1.92-3.98-3.26-8.28-4.54-12.54c-1.7-5.65-2.16-11.88-4.81-17
			c-5.86-11.33-21.68-18.85-34.41-16.8c-7.43,1.2-14.7,3.4-21.99,5.35c-1.71,0.46-3.35,1.54-4.75,2.67
			c-8.9,7.16-14.67,16.54-17.93,27.31c-4.06,13.39-3.88,27.13-1.01,40.69c1.69,7.96,4.86,15.6,6.71,23.54
			c2.4,10.28,6.63,19.7,11.87,28.75c8.35,14.44,20.92,24.57,34.86,32.96c7.85,4.72,16.62,7.87,24.79,12.1
			c7.72,4,15.98,6.13,24.32,8.18c13.48,3.31,27.09,6.21,40.38,10.18C322.35,308.24,330.57,312.39,338.63,315.69z"/>
	</g>
	<g>
		<g>
			<path d="M277.29,188.17c-0.22-1.1-0.58-2.18-1.2-3.11c-0.61-0.93-1.49-1.66-2.51-2.06c-2.07-0.8-4.38-0.6-6.56-0.25
				c-2.2,0.36-4.36,0.95-6.54,1.51c-2.18,0.52-4.37,1.18-6.74,1.1c-2.26-0.24-4.55-0.48-6.7-1.4c-2.13-0.87-4.13-2.42-5.17-4.55
				c-1.09-2.09-1.48-4.4-1.78-6.63c-0.29-2.24-0.48-4.48-0.82-6.68c-0.32-2.2-0.79-4.37-1.61-6.41c-0.8-2.04-2.04-3.88-3.69-5.28
				c-1.64-1.42-3.68-2.33-5.79-2.96c-2.12-0.62-4.32-1.01-6.53-1.31c-2.18-0.3-4.42-0.14-6.67-0.1c-2.24,0.04-4.61-0.1-6.71-1.12
				c-0.52-0.25-1.01-0.56-1.48-0.89c-0.23-0.18-0.43-0.39-0.65-0.59c-0.18-0.22-0.39-0.43-0.55-0.67c-0.68-0.93-1.13-1.99-1.54-3.03
				c-0.41-1.05-0.8-2.1-1.36-3.06c-0.55-0.97-1.3-1.83-2.23-2.47c0.95,0.6,1.75,1.43,2.36,2.39c0.61,0.96,1.04,2.01,1.48,3.04
				c0.44,1.03,0.92,2.04,1.59,2.91c0.16,0.22,0.36,0.41,0.54,0.61c0.2,0.18,0.4,0.36,0.62,0.52c0.46,0.29,0.93,0.57,1.43,0.79
				c2,0.92,4.26,1.02,6.48,0.93c2.23-0.09,4.5-0.3,6.78-0.04c2.24,0.24,4.49,0.6,6.68,1.24c2.18,0.63,4.35,1.57,6.13,3.09
				c1.79,1.49,3.14,3.48,3.99,5.62c0.87,2.13,1.37,4.38,1.71,6.62c0.33,2.24,0.51,4.49,0.78,6.7c0.28,2.2,0.65,4.41,1.64,6.33
				c0.94,1.95,2.71,3.34,4.7,4.18c2,0.87,4.24,1.16,6.42,1.44c2.14,0.12,4.36-0.46,6.53-0.95c2.18-0.51,4.37-1.06,6.62-1.38
				c2.22-0.28,4.6-0.42,6.73,0.49c1.05,0.46,1.95,1.26,2.54,2.23C276.81,185.96,277.11,187.06,277.29,188.17z"/>
		</g>
		<g>
			<path d="M277.29,190.73c-3.96-0.11-7.94,0.59-11.51,2.26c-3.61,1.59-6.8,3.94-10.16,6.09c-1.68,1.07-3.43,2.08-5.34,2.78
				c-1.9,0.71-3.95,1.11-5.99,1.03c-2.05-0.07-4.06-0.57-5.93-1.32c-1.87-0.76-3.68-1.67-5.35-2.78c-3.36-2.18-6.42-4.75-9.58-7.09
				c-1.59-1.15-3.24-2.21-5.05-2.87c-1.8-0.66-3.74-0.84-5.65-0.56c-1.9,0.29-3.79,0.89-5.56,1.73c-0.91,0.36-1.75,0.88-2.61,1.37
				c-0.86,0.49-1.7,1-2.55,1.52c-3.39,2.02-6.75,4.25-10.52,5.53c3.69-1.49,6.95-3.78,10.26-5.95c0.83-0.54,1.67-1.07,2.52-1.58
				c0.85-0.5,1.7-1.05,2.62-1.45c1.79-0.9,3.71-1.57,5.72-1.92c2-0.35,4.13-0.2,6.06,0.51c1.94,0.68,3.66,1.78,5.29,2.94
				c3.23,2.35,6.28,4.87,9.59,6.99c1.63,1.1,3.37,1.99,5.16,2.74c1.8,0.74,3.69,1.22,5.62,1.3c1.92,0.09,3.84-0.27,5.66-0.93
				c1.82-0.67,3.55-1.61,5.24-2.62c3.36-2.04,6.66-4.36,10.37-5.89C269.28,191,273.34,190.39,277.29,190.73z"/>
		</g>
		<g>
			<path d="M283.69,195.21c-0.28,3.42-1.08,6.9-2.98,9.85c-0.97,1.44-2.19,2.78-3.71,3.68c-1.49,0.93-3.15,1.57-4.85,1.99
				c-6.86,1.58-13.88,0.4-20.58,1.57c-3.33,0.54-6.57,1.84-8.91,4.23c-1.16,1.18-2.15,2.55-2.85,4.08
				c-0.78,1.49-1.29,3.12-1.67,4.76c-1.51,6.63-0.45,13.7-2.18,20.51l-0.01,0.02c-1,2.89-2.39,5.58-3.27,8.45
				c-0.44,1.43-0.73,2.92-0.7,4.42c0.04,1.5,0.42,2.99,1.12,4.33c-0.76-1.3-1.24-2.79-1.32-4.32c-0.09-1.53,0.16-3.06,0.55-4.52
				c0.78-2.95,2.12-5.69,3.04-8.54l-0.01,0.02c0.77-3.32,0.86-6.76,0.93-10.2c0.11-3.44,0.19-6.93,0.95-10.36
				c0.38-1.71,0.89-3.41,1.7-4.98c0.73-1.61,1.77-3.09,3.01-4.36c2.52-2.58,6.03-3.91,9.46-4.45c3.46-0.57,6.94-0.54,10.38-0.57
				c3.44-0.03,6.88-0.02,10.21-0.73c1.65-0.38,3.26-0.95,4.71-1.81c1.47-0.84,2.67-2.08,3.66-3.44
				C282.33,202.04,283.23,198.61,283.69,195.21z"/>
		</g>
		<g>
			<path d="M288.81,194.57c2.59,2.94,6.06,4.8,9.36,6.84c1.65,1.03,3.28,2.14,4.67,3.57c1.39,1.4,2.45,3.2,2.85,5.18l0.19,1.49
				c0.04,0.5-0.02,1-0.02,1.5c-0.02,0.25-0.01,0.5-0.04,0.75l-0.16,0.74c-0.12,0.49-0.27,0.97-0.44,1.44
				c-0.71,1.88-1.84,3.56-3.15,5.04c-2.62,2.97-5.76,5.34-8.83,7.72c-3.07,2.38-6.16,4.74-8.7,7.59c-1.25,1.43-2.37,2.98-3.08,4.73
				c-0.7,1.77-1.38,3.58-1.68,5.46c-0.22,0.93-0.23,1.88-0.3,2.82l0.07,1.41c0.02,0.47,0.15,0.93,0.22,1.39
				c0.38,1.84,1.2,3.57,2.3,5.11c2.21,3.11,5.31,5.52,8.24,8.05l0.01,0.01l0.01,0.01c1.29,1.33,2.5,2.78,3.45,4.39
				c0.97,1.61,1.58,3.42,1.87,5.26c0.3,1.84,0.34,3.7,0.34,5.54c-0.01,1.85-0.08,3.69-0.12,5.53l-0.1-5.53
				c-0.05-1.84-0.15-3.68-0.5-5.47c-0.34-1.79-0.99-3.51-1.95-5.05c-0.95-1.55-2.15-2.93-3.44-4.21l0.02,0.02
				c-1.5-1.23-3.02-2.45-4.49-3.74c-1.47-1.29-2.88-2.69-4.04-4.31c-1.16-1.61-2.06-3.45-2.47-5.42c-0.08-0.5-0.21-0.99-0.24-1.49
				l-0.08-1.5c0.06-0.99,0.07-2,0.3-2.97c0.3-1.97,0.99-3.84,1.7-5.67c0.74-1.87,1.92-3.53,3.21-5.02c2.65-2.95,5.8-5.31,8.88-7.67
				c3.08-2.36,6.2-4.69,8.75-7.55c1.26-1.43,2.37-3,3.07-4.75c0.17-0.44,0.33-0.89,0.44-1.34l0.16-0.68
				c0.04-0.23,0.03-0.47,0.05-0.7c0.01-0.47,0.08-0.94,0.05-1.41l-0.15-1.4c-0.34-1.85-1.29-3.55-2.6-4.93
				c-1.31-1.39-2.88-2.52-4.49-3.61C294.75,199.62,291.27,197.64,288.81,194.57z"/>
		</g>
		<g>
			<path d="M297.78,190.09c0.93,1.81,2.22,3.48,3.99,4.46c1.76,1.01,3.85,1.16,5.85,1.14c2.02-0.02,4.06-0.25,6.13-0.23
				c1.03,0,2.07,0.1,3.11,0.28c0.51,0.11,1.02,0.27,1.53,0.41l1.43,0.63c1.88,0.9,3.65,2.12,4.98,3.78
				c1.35,1.64,2.19,3.67,2.54,5.74c0.37,2.07,0.36,4.17,0.2,6.22c-0.17,2.06-0.47,4.08-0.81,6.12c-0.78,4.05-2.2,7.93-2.64,11.91
				c-0.21,1.98-0.13,4,0.56,5.83c0.21,0.44,0.37,0.91,0.61,1.33l0.82,1.22c0.67,0.72,1.3,1.49,2.13,2.06
				c0.41,0.29,0.76,0.65,1.21,0.88l1.3,0.76c0.86,0.54,1.76,0.89,2.72,1.15c1.94,0.44,3.99,0.39,6.03,0.38
				c2.03,0.01,4.12-0.06,6.13,0.5c0.5,0.15,1,0.28,1.45,0.54c0.23,0.12,0.48,0.21,0.69,0.36l0.63,0.45c0.22,0.14,0.4,0.32,0.57,0.52
				l0.52,0.56c0.31,0.41,0.56,0.86,0.83,1.29c-1-1.8-2.8-3.03-4.76-3.46c-1.97-0.47-4.02-0.33-6.05-0.27
				c-2.04,0.06-4.11,0.17-6.18-0.25c-1.02-0.24-2.04-0.62-2.93-1.15l-1.36-0.76c-0.46-0.23-0.85-0.6-1.28-0.89
				c-0.88-0.57-1.58-1.38-2.31-2.14l-0.9-1.32c-0.27-0.46-0.45-0.96-0.68-1.44c-0.77-2-0.86-4.17-0.65-6.23
				c0.2-2.08,0.68-4.09,1.18-6.07c0.49-1.99,1.01-3.95,1.39-5.94c0.67-3.97,1.36-8.07,0.7-12c-0.32-1.96-1.08-3.83-2.32-5.36
				c-1.23-1.54-2.86-2.73-4.64-3.63c-1.76-1.01-3.73-1.31-5.75-1.38c-2.02-0.07-4.06,0.12-6.12,0.09c-2.04-0.05-4.2-0.28-5.98-1.39
				C299.84,193.71,298.61,191.94,297.78,190.09z"/>
		</g>
		<g>
			<path d="M301.62,181.77c3.22-0.39,6.42-0.94,9.67-1.21c3.24-0.26,6.57-0.25,9.79,0.6c1.6,0.43,3.15,1.07,4.57,1.98
				c1.43,0.92,2.59,2.18,3.57,3.49c0.99,1.29,1.89,2.67,3.14,3.41c1.26,0.72,2.85,0.65,4.36,0.24l-0.04,0.01
				c1.07-0.4,2.02-1.07,2.83-1.92c0.82-0.84,1.51-1.83,2.28-2.8c0.76-0.96,1.63-1.94,2.77-2.58c1.13-0.65,2.43-0.94,3.7-0.92
				c2.58-0.02,4.93,1.21,6.88,2.65c1.99,1.43,3.83,3.04,6.04,4.1c-2.29-0.88-4.24-2.44-6.28-3.74c-1.02-0.65-2.06-1.26-3.18-1.69
				c-1.11-0.43-2.28-0.65-3.45-0.62c-1.18,0.03-2.32,0.32-3.29,0.93c-0.97,0.6-1.77,1.47-2.5,2.42c-0.74,0.95-1.44,1.97-2.31,2.89
				c-0.86,0.92-1.94,1.71-3.16,2.18l-0.01,0l-0.03,0.01l-1.24,0.27c-0.43,0.04-0.86,0.09-1.29,0.1c-0.88-0.02-1.78-0.21-2.57-0.66
				c-1.55-0.96-2.44-2.44-3.4-3.7c-0.95-1.29-2-2.46-3.31-3.32c-1.3-0.85-2.78-1.49-4.31-1.91c-3.05-0.91-6.31-1.04-9.53-0.88
				C308.1,181.21,304.87,181.61,301.62,181.77z"/>
		</g>
		<g>
			<path d="M292.66,175.36c2.59-1.39,5-3.25,6.45-5.79c1.51-2.5,2.09-5.43,2.23-8.33c0.13-2.92-0.05-5.85-0.22-8.81
				c-0.15-2.95-0.29-5.95,0.17-8.94c0.13-0.74,0.3-1.49,0.51-2.23l0.86-2.1c0.31-0.69,0.69-1.34,1.03-2.01
				c0.36-0.66,0.79-1.27,1.18-1.91c1.65-2.5,3.67-4.7,5.36-7.06c0.87-1.17,1.53-2.46,1.98-3.81c0.15-0.7,0.38-1.39,0.35-2.11
				c0.01-0.36,0.05-0.72,0.04-1.08l-0.14-1.07c-0.4-2.89-1.77-5.56-3.17-8.15c1.59,2.47,3.07,5.11,3.66,8.07l0.18,1.12
				c0.02,0.38,0,0.76,0,1.14c0.04,0.77-0.17,1.5-0.31,2.25c-0.43,1.46-1.1,2.85-1.95,4.07c-1.65,2.51-3.67,4.67-5.24,7.13
				c-0.37,0.62-0.79,1.23-1.13,1.87c-0.32,0.65-0.68,1.28-0.97,1.94l-0.8,2.01l-0.26,1.03l-0.2,1.06
				c-0.92,5.74,0.3,11.68-0.18,17.64c-0.23,2.96-0.92,6-2.58,8.53C297.87,172.37,295.35,174.18,292.66,175.36z"/>
		</g>
	</g>
	<g>
		<g>
			<g>
				<path d="M287.53,179.42c1.93,0,1.93-3,0-3C285.6,176.42,285.6,179.42,287.53,179.42L287.53,179.42z"/>
			</g>
		</g>
		<g>
			<g>
				<path d="M310.59,167.26c1.93,0,1.93-3,0-3C308.66,164.26,308.65,167.26,310.59,167.26L310.59,167.26z"/>
			</g>
		</g>
		<g>
			<g>
				<path d="M346.45,140.36c1.93,0,1.93-3,0-3C344.52,137.36,344.51,140.36,346.45,140.36L346.45,140.36z"/>
			</g>
		</g>
		<g>
			<g>
				<path d="M373.98,139.08c1.93,0,1.93-3,0-3C372.05,136.08,372.05,139.08,373.98,139.08L373.98,139.08z"/>
			</g>
		</g>
		<g>
			<g>
				<path d="M336.2,156c1.45,0,1.45-2.25,0-2.25C334.75,153.75,334.75,156,336.2,156L336.2,156z"/>
			</g>
		</g>
		<g>
			<g>
				<path d="M361.18,136.14c1.45,0,1.45-2.25,0-2.25C359.73,133.89,359.73,136.14,361.18,136.14L361.18,136.14z"/>
			</g>
		</g>
		<g>
			<g>
				<path d="M301.62,180.97c1.45,0,1.45-2.25,0-2.25C300.17,178.72,300.17,180.97,301.62,180.97L301.62,180.97z"/>
			</g>
		</g>
		<g>
			<g>
				<path d="M320.83,152.42c0.97,0,0.97-1.5,0-1.5C319.87,150.92,319.87,152.42,320.83,152.42L320.83,152.42z"/>
			</g>
		</g>
		<g>
			<g>
				<path d="M356.69,147.3c0.97,0,0.97-1.5,0-1.5C355.73,145.8,355.73,147.3,356.69,147.3L356.69,147.3z"/>
			</g>
		</g>
		<g>
			<g>
				<path d="M297.14,168.43c0.97,0,0.97-1.5,0-1.5C296.17,166.93,296.17,168.43,297.14,168.43L297.14,168.43z"/>
			</g>
		</g>
		<g>
			<g>
				<path d="M323.39,164.17c1.25,0,1.26-1.95,0-1.95C322.14,162.22,322.14,164.17,323.39,164.17L323.39,164.17z"/>
			</g>
		</g>
		<g>
			<g>
				<path d="M334.28,144.96c1.25,0,1.26-1.95,0-1.95C333.03,143.01,333.02,144.96,334.28,144.96L334.28,144.96z"/>
			</g>
		</g>
	</g>
</g>
<g id="DESIGNED_BY_FREEPIK">
</g>
</svg>
