<?xml version="1.0" encoding="utf-8"?>
<!-- Generator: Adobe Illustrator 25.0.1, SVG Export Plug-In . SVG Version: 6.00 Build 0)  -->
<svg version="1.1" xmlns="http://www.w3.org/2000/svg" xmlns:xlink="http://www.w3.org/1999/xlink" x="0px" y="0px"
	 viewBox="0 0 500 500" style="fill: red; enable-background:new 0 0 500 500;" xml:space="preserve">
<style type="text/css">
	.st0{fill-rule:evenodd;clip-rule:evenodd;fill:#FFFFFF;}
	.st1{fill-rule:evenodd;clip-rule:evenodd;}
</style>
<g id="OBJECTS">
	<path fill="" class="st1" d="M193.25,226.66c-5.03-3.32-10.15-6.53-15.08-9.99c-6.15-4.33-12.2-8.81-18.21-13.33
		c-11.17-8.41-21.2-18.18-29.73-29.12c-5.12-6.56-8.65-14.69-6.79-23.76c1.83-8.95,7.29-15.63,14.06-21.25
		c5.14-4.27,10.48-8.36,16.08-12c5.2-3.38,10.93-5.94,16.29-9.08c7.56-4.43,15.54-7.35,24.17-9.16
		c13.12-2.76,28.86,5.19,34.42,14.22c2.73,4.43,5.32,9.05,7.19,13.89c6.05,15.64,10.09,31.82,12,48.51
		c0.44,3.9,0.87,7.81,1.36,11.71c0.09,0.75,0.4,1.47,1.52,2.34c2.04-5.62,4.11-11.23,6.12-16.87c4.19-11.74,8.81-23.36,15.73-33.74
		c4.05-6.07,8.86-11.94,14.4-16.64c11.4-9.68,24.61-11.5,38.63-6.03c4.42,1.73,8.66,3.91,13.07,5.69
		c6.42,2.58,11.31,6.96,15.6,12.27c4.02,4.97,8.17,9.72,10.8,15.73c4.98,11.38,4.29,22.3-1.73,32.98
		c-3.4,6.04-8.05,11.17-13.06,15.84c-6.09,5.67-12.8,10.67-18.9,16.34c-8.17,7.61-17.62,13.5-26.35,20.34
		c-0.37,0.29-0.63,0.72-1.39,1.6c2.62-0.32,4.73-0.53,6.82-0.85c12.87-2,25.35-0.48,37.92,2.84c11.15,2.95,20.98,8.26,30.4,14.51
		c2.92,1.94,5.22,4.89,7.58,7.58c6.46,7.38,11.41,15.56,12.74,25.52c0.11,0.8,0.3,1.64,0.16,2.4c-2.15,11.95-4.9,23.76-10.09,34.81
		c-4.44,9.45-11.1,16.9-20.62,21.58c-4.1,2.02-8.46,2.68-12.9,2.57c-11.23-0.28-21.75-3.1-30.68-10.2
		c-7.56-6.01-15.22-11.98-22.15-18.68c-4.66-4.51-8.13-10.25-12.1-15.47c-2.75-3.62-5.44-7.28-8.98-10.57
		c0.2,0.95,0.4,1.89,0.62,2.84c3.38,14.83,6.72,29.67,8.12,44.86c0.64,7.01,1.37,14.06,1.18,21.08c-0.19,7.15-0.54,14.53-3.52,21.16
		c-3.03,6.74-7.25,12.46-14.52,15.85c-10.08,4.7-20.52,5.68-31.2,4.51c-9.75-1.07-19.49-2.64-29.05-4.78
		c-6.01-1.34-11.88-3.74-17.47-6.37c-7.01-3.3-10.77-9.39-11.88-16.99c-1.04-7.1-0.09-14.03,2.23-20.81
		c1.27-3.7,1.96-7.64,3.49-11.21c3.6-8.41,7.2-16.86,11.47-24.94c4.72-8.95,10.17-17.5,15.83-27.12c-3.22,1.59-5.72,2.76-8.16,4.04
		c-6.08,3.16-12.13,6.37-18.19,9.55c-0.43,0.23-0.9,0.41-1.31,0.68c-10.19,6.48-21.62,10.08-32.95,13.76
		c-14.71,4.78-28.75,2.65-41.79-5.65c-1.18-0.75-2.21-1.98-2.9-3.22c-6.86-12.16-10.75-25.14-11.74-39.15
		c-0.48-6.79-0.24-13.37,0.95-20.02c1.69-9.46,7.42-15.99,14.54-21.96c8.12-6.81,17.6-8.46,27.48-7.97
		c12.23,0.61,24.51,1.33,36.54,4.11c4.5,1.04,9.13,1.56,13.7,2.32C193.07,227.36,193.16,227.01,193.25,226.66z M243.82,234.28
		c-0.14-1.78-0.45-3.73-0.41-5.66c0.12-5.88-0.24-11.86,0.76-17.6c1.02-5.87,1.5-11.54,0.93-17.49
		c-1.39-14.48-2.15-29.03-6.33-43.09c-3.16-10.65-5.9-21.39-11.61-31.18c-4.73-8.11-11.93-12.38-20.22-15.39
		c-2.23-0.81-4.86-1.03-7.24-0.8c-6.86,0.66-13.64,1.87-19.82,5.23c-4.89,2.66-9.81,5.24-14.65,7.98
		c-11.84,6.73-23.5,13.69-31.83,24.94c-3.18,4.29-5.99,8.81-5.76,14.25c0.33,7.78,3.81,14.49,8.95,20.17
		c4.92,5.44,10.23,10.53,15.39,15.76c0.8,0.82,1.64,1.6,2.54,2.31c5.8,4.55,11.46,9.31,17.48,13.56
		c7.73,5.46,15.49,10.98,23.71,15.62c11.42,6.44,23.42,11.58,36.53,13.99C236.7,237.69,240.23,237.59,243.82,234.28z M248.66,221.72
		c0,5.16-0.07,8.61,0.02,12.05c0.11,4.6,0.83,9.06,2.78,13.33c3.64,7.94,14.04,9.3,19.31,3.97c2.45-2.48,5.96-3.98,9.14-5.63
		c4.34-2.26,9.27-3.64,13.16-6.47c11.5-8.37,22.93-16.84,33.99-25.83c10.33-8.39,20.12-17.17,29.06-27.01
		c7.32-8.06,9.76-21.57,5.68-31.69c-3.92-9.73-10.75-17.11-18.2-24.05c-1.77-1.64-3.91-3-6.09-4.05c-4.42-2.13-8.95-4.03-13.49-5.92
		c-12.48-5.19-24.08-3.69-34.36,5.16c-3.68,3.17-6.76,7.06-10.05,10.68c-6.65,7.3-10.07,16.43-13.78,25.29
		c-3.65,8.73-6.23,17.9-9.8,26.68C251.42,199.55,247.76,210.99,248.66,221.72z M287.59,355.63c-0.51-5.38-1.09-10.75-1.51-16.13
		c-1.08-13.78-4.4-27.14-7.79-40.44c-1.81-7.12-4.44-14.06-7.24-20.87c-1.72-4.19-4.24-8.11-6.81-11.86
		c-1.78-2.59-4.53-4.46-7.95-3.81c-4.92,0.93-9.32,2.89-12.59,7c-2.03,2.54-4.41,4.82-6.68,7.15c-6.51,6.68-13.07,13.32-19.56,20.03
		c-0.9,0.93-1.57,2.1-2.2,3.25c-4.28,7.91-8.49,15.86-12.79,23.76c-7.02,12.91-11.35,26.77-14.45,41.04
		c-1.96,9.02,1.51,18.61,8.58,22.34c5.46,2.88,11.31,5.47,17.29,6.78c10.21,2.23,20.61,3.74,31.01,4.83
		c9.17,0.97,18.15-0.2,26.85-4.05c7.56-3.35,11.62-9.26,13.19-16.62C286.48,370.73,288.71,363.33,287.59,355.63z M143.82,225.62
		c-10.12-0.6-19.25,1.15-27.27,8.24c-7.32,6.46-11.74,14.21-12.26,23.66c-0.9,16.76,1.96,32.78,10.49,47.68
		c2.68,4.67,6.06,7.65,10.81,9.16c4.18,1.33,8.55,2.21,12.9,2.86c6.95,1.04,13.65-0.31,20.21-2.7c8.9-3.24,17.94-6.11,26.29-10.74
		c7.72-4.28,15.69-8.12,23.29-12.59c6.18-3.64,12.29-7.56,17.87-12.04c5.58-4.48,10.6-9.7,15.62-14.83
		c3.06-3.13,3.72-7.24,2.91-11.47c-0.83-4.3-2.15-8.27-7.19-9.53c-7.43-1.86-14.79-4.02-22.24-5.78c-9.7-2.29-19.54-4.02-29.18-6.53
		C172.19,227.38,157.99,226.7,143.82,225.62z M268.45,261.21c1.45,2.73,2.6,4.88,3.74,7.03c2.36,4.47,4.41,9.13,7.14,13.36
		c4.88,7.54,10.05,14.91,15.33,22.18c2.77,3.82,5.75,7.59,9.16,10.82c5.69,5.38,11.79,10.32,17.74,15.43
		c9.34,8.01,19.96,12.97,32.44,13.26c5.84,0.14,11.71-0.81,16.25-4.47c6.73-5.43,12.91-11.51,15.62-20.24
		c1.89-6.08,4.68-11.91,6.19-18.07c2.07-8.47,3.34-17.24-1.08-25.44c-4.81-8.94-11.58-16.25-20.04-21.9
		c-9.97-6.66-21.18-9.96-32.83-12.23c-15.73-3.07-31.05-1.4-45.74,4.49c-6.91,2.77-13.24,7.09-19.64,11.01
		C270.93,257.54,269.76,259.71,268.45,261.21z M250.02,253.87c-0.24,2.13-0.39,3.48-0.62,5.48c1.69-0.63,2.72-1.02,4.07-1.53
		C252.33,256.51,251.51,255.57,250.02,253.87z"/>
	<g>
		<g>
			<path fill="" d="M235.12,221.78c-0.07-3.78-0.4-7.62-1.13-11.43l-0.51-2.86l-0.64-2.84l-0.65-2.85l-0.76-2.82
				c-2.02-7.53-4.51-14.96-7.32-22.26c-2.83-7.29-6.02-14.46-9.61-21.42c-0.87-1.76-1.83-3.46-2.8-5.16
				c-0.49-0.85-0.94-1.72-1.46-2.55l-1.55-2.49c-2.05-3.34-4.4-6.49-6.95-9.47c2.64,2.9,5.1,5.98,7.26,9.27l1.64,2.45
				c0.54,0.82,1.03,1.68,1.54,2.51c1.02,1.68,2.05,3.36,2.97,5.09c3.83,6.87,7.26,13.96,10.34,21.21c3.06,7.25,5.81,14.65,8.1,22.21
				l0.86,2.84l0.75,2.87l0.75,2.88l0.61,2.92c0.87,3.87,1.36,7.86,1.56,11.92H235.12z"/>
		</g>
		<g>
			<path d="M226.32,225.92c-10.82-11.17-21.81-22.27-32.07-34.03c-10.24-11.75-19.82-24.19-27.4-37.81
				c8.01,13.37,17.94,25.44,28.51,36.81c10.59,11.38,21.88,22.07,33.07,32.91L226.32,225.92z"/>
		</g>
		<g>
			<path d="M253.49,264.04l-0.72,3.22c-0.27,1.05-0.63,2.04-0.95,3.06c-0.61,2.05-1.43,3.98-2.14,5.97
				c-1.53,3.92-3.16,7.78-4.85,11.61c-3.37,7.66-6.91,15.23-10.49,22.79l-10.79,22.61c-1.79,3.77-3.57,7.55-5.31,11.34
				c-1.72,3.8-3.45,7.6-4.89,11.52c1.33-3.96,2.94-7.82,4.55-11.67c1.62-3.85,3.29-7.68,4.97-11.5l10.11-22.92
				c3.34-7.65,6.65-15.31,9.78-23.04c1.56-3.86,3.07-7.74,4.46-11.65c0.64-1.96,1.4-3.91,1.92-5.88c0.27-0.98,0.6-1.97,0.82-2.94
				l0.57-2.91L253.49,264.04z"/>
		</g>
		<g>
			<path d="M259.61,268.6c2.02,8.52,3.06,17.15,3.68,25.79c0.6,8.64,0.72,17.29,0.49,25.93c-0.25,8.64-0.87,17.26-1.91,25.82
				c-1.05,8.56-2.5,17.09-4.74,25.42c2-8.39,3.19-16.93,3.99-25.5c0.79-8.57,1.15-17.17,1.16-25.76
				c-0.02-8.59-0.39-17.19-1.23-25.72c-0.85-8.52-2.14-17.02-4.34-25.22L259.61,268.6z"/>
		</g>
		<g>
			<path d="M258.74,227.65c1.76-8.13,4.15-16.08,6.95-23.87c2.8-7.79,6.01-15.41,9.51-22.89c7.02-14.95,15.16-29.32,23.99-43.22
				c-8.4,14.16-16.09,28.75-22.62,43.83c-3.26,7.54-6.21,15.21-8.75,23c-2.53,7.79-4.65,15.71-6.14,23.73L258.74,227.65z"/>
		</g>
		<g>
			<path d="M266.56,230.79c12.71-8.18,25.2-16.72,36.8-26.4c5.79-4.84,11.34-9.98,16.43-15.57c5.07-5.58,9.71-11.63,13.25-18.34
				c-3.31,6.82-7.77,13.05-12.69,18.83c-4.93,5.78-10.35,11.14-16.01,16.2c-11.35,10.12-23.64,19.13-36.12,27.76L266.56,230.79z"/>
		</g>
		<g>
			<path d="M274.57,250.03c18.4,0.26,36.81,3.52,53.88,10.33c8.52,3.41,16.69,7.71,24.22,12.92c7.53,5.21,14.41,11.35,20.38,18.25
				c-6.16-6.74-13.18-12.66-20.8-17.63c-7.62-4.97-15.82-9.01-24.34-12.15c-17.05-6.27-35.27-8.97-53.34-8.73V250.03z"/>
		</g>
		<g>
			<path d="M262.72,255.23c8.31,2.82,16.03,7,23.28,11.71c7.26,4.72,14.1,9.98,20.87,15.29c6.77,5.31,13.47,10.69,20.46,15.67
				c6.99,4.98,14.28,9.58,22.12,13.13c-7.94-3.32-15.4-7.72-22.55-12.51c-7.16-4.79-14.03-9.99-20.94-15.09
				c-6.91-5.1-13.87-10.14-21.16-14.58c-7.28-4.44-14.94-8.27-23.01-10.75L262.72,255.23z"/>
		</g>
		<g>
			<path d="M224.5,244.81c-16.22,1.83-32.43,1.3-48.55,1.32c-8.07,0.01-16.13,0.14-24.17,0.76c-8.03,0.61-16.05,1.72-23.9,3.62
				c7.79-2.14,15.79-3.5,23.83-4.36c8.04-0.87,16.13-1.26,24.21-1.51c16.14-0.51,32.33-0.5,48.19-2.79L224.5,244.81z"/>
		</g>
		<g>
			<path d="M229.1,261.07c-7.4,3.67-14.99,6.92-22.75,9.71c-7.76,2.79-15.68,5.1-23.68,6.99c-16.02,3.8-32.33,5.88-48.63,7.61
				c16.24-2.23,32.47-4.8,48.26-9.06c7.89-2.12,15.67-4.65,23.25-7.65c7.59-2.99,14.99-6.43,22.17-10.27L229.1,261.07z"/>
		</g>
	</g>
	<g>
		<path fill="black" d="M257.23,214.85c-19.95-1.12-34.65,3.36-37.8,25.76c-3.15,22.4,10.5,38.07,31.5,41.43
			C289.79,287.63,306.37,222.81,257.23,214.85"/>
	</g>
</g>
</svg>
