<?xml version="1.0" encoding="utf-8"?>
<!-- Generator: Adobe Illustrator 25.0.1, SVG Export Plug-In . SVG Version: 6.00 Build 0)  -->
<svg version="1.1" xmlns="http://www.w3.org/2000/svg" xmlns:xlink="http://www.w3.org/1999/xlink" x="0px" y="0px"
	 viewBox="0 0 500 500" style="enable-background:new 0 0 500 500;" xml:space="preserve">
<style type="text/css">
	.st0{fill-rule:evenodd;clip-rule:evenodd;fill:#FFFFFF;}
</style>
<g id="BACKGROUND">
	<rect class="st0" width="500" height="500"/>
</g>
<g id="OBJECTS">
	<g>
		<g>
			<path d="M306.15,132.7c-2.46,11.32-4.89,22.77-5.2,34.39c-0.31,11.43,1.71,22.98,7.61,32.91c3.74,6.3,8.83,11.67,14.6,16.15
				c0.54,0.42,1.12,0.35,1.53-0.2c7.46-9.8,10.96-21.76,9.52-34.03c-1.4-11.92-6.66-23.07-13.25-32.97
				c-3.93-5.91-8.4-11.45-13.18-16.68c-0.85-0.93-2.23,0.45-1.38,1.38c8.14,8.89,15.44,18.75,20.45,29.76
				c4.69,10.3,7.21,21.93,4.83,33.17c-1.43,6.74-4.52,12.92-8.68,18.39c0.51-0.07,1.02-0.13,1.53-0.2
				c-9.67-7.51-16.89-17.45-19.86-29.41c-2.71-10.88-2.02-22.3-0.32-33.28c0.98-6.33,2.32-12.6,3.68-18.86
				C308.3,132,306.42,131.47,306.15,132.7L306.15,132.7z"/>
		</g>
	</g>
	<g>
		<path d="M307.09,132.96c0.43,4.57,1.47,9.04,2.61,13.47c1.15,4.43,2.46,8.82,3.8,13.19c2.68,8.76,5.59,17.45,8.02,26.35
			c0.6,2.23,1.16,4.47,1.63,6.76c0.23,1.14,0.45,2.32,0.61,3.48c0.15,1.15,0.31,2.31,0.44,3.46c0.54,4.6,0.91,9.21,1.13,13.83
			c0.43,9.25,0.37,18.54-0.67,27.9c-0.18,1.65-1.67,2.84-3.32,2.65c-1.65-0.18-2.84-1.67-2.65-3.32c0.01-0.06,0.02-0.13,0.03-0.19
			l0.01-0.03c1.57-8.79,2.24-17.88,2.41-26.95c0.08-4.54,0.01-9.09-0.22-13.62c-0.05-1.14-0.13-2.26-0.2-3.39
			c-0.08-1.12-0.25-2.19-0.41-3.31c-0.35-2.22-0.8-4.45-1.28-6.67c-1.97-8.89-4.48-17.73-6.75-26.61c-1.14-4.44-2.24-8.9-3.19-13.4
			C308.14,142.08,307.31,137.54,307.09,132.96z"/>
	</g>
	<g>
		<g>
			<g>
				<path d="M303.33,150.66c2.7,2.7,5.39,5.4,8.33,7.83c0.31,0.26,0.76,0.31,1.06,0c0.27-0.27,0.31-0.8,0-1.06
					c-2.94-2.43-5.64-5.14-8.33-7.83C303.7,148.91,302.64,149.97,303.33,150.66L303.33,150.66z"/>
			</g>
		</g>
		<g>
			<g>
				<path d="M302.15,167.28c5.16,2.67,10.26,5.46,15,8.83c0.79,0.56,1.54-0.74,0.76-1.3c-4.74-3.37-9.84-6.17-15-8.83
					C302.05,165.54,301.29,166.83,302.15,167.28L302.15,167.28z"/>
			</g>
		</g>
		<g>
			<g>
				<path d="M303.31,184.44c5.27,3.31,11.3,5.1,17,7.5c0.88,0.37,1.64-0.92,0.76-1.3c-5.7-2.4-11.73-4.2-17-7.5
					C303.25,182.63,302.5,183.93,303.31,184.44L303.31,184.44z"/>
			</g>
		</g>
		<g>
			<g>
				<path d="M310.15,201.28c3.97,1.73,7.97,3.51,12.18,4.58c0.94,0.24,1.34-1.21,0.4-1.45c-4.09-1.04-7.96-2.75-11.82-4.42
					C310.03,199.6,309.26,200.89,310.15,201.28L310.15,201.28z"/>
			</g>
		</g>
		<g>
			<g>
				<path d="M315.77,143.96c-0.01,7.4-0.33,14.81-1.47,22.13c-0.15,0.94,1.3,1.35,1.45,0.4c1.17-7.46,1.52-14.99,1.53-22.53
					C317.27,143,315.77,142.99,315.77,143.96L315.77,143.96z"/>
			</g>
		</g>
		<g>
			<g>
				<path d="M326.63,163.1c-2.05,6.57-5.79,12.48-7.5,19.17c-0.24,0.94,1.21,1.33,1.45,0.4c1.71-6.69,5.45-12.6,7.5-19.17
					C328.37,162.57,326.92,162.18,326.63,163.1L326.63,163.1z"/>
			</g>
		</g>
		<g>
			<g>
				<path d="M332.21,186.25c-2.68,4.97-6.67,9.03-9.83,13.67c-0.55,0.8,0.75,1.55,1.3,0.76c3.17-4.64,7.16-8.7,9.83-13.67
					C333.96,186.16,332.67,185.4,332.21,186.25L332.21,186.25z"/>
			</g>
		</g>
	</g>
	<g>
		<g>
			<path d="M329.06,293.34c-6.57,6.6-10.62,14.98-11.46,24.28c-0.8,8.97,1.2,18.02,4.16,26.45c1.69,4.82,3.72,9.51,5.91,14.12
				c0.27,0.56,1.13,0.63,1.53,0.2c5.97-6.46,8.99-14.71,10.02-23.36c1.09-9.06,0.62-18.62-2.4-27.28
				c-1.71-4.89-4.03-9.53-6.24-14.21c-0.53-1.13-2.22-0.15-1.68,0.98c3.77,8,7.7,15.95,8.53,24.9c0.78,8.48,0.42,17.46-2.42,25.56
				c-1.56,4.46-3.98,8.56-7.19,12.03c0.51,0.07,1.02,0.13,1.53,0.2c-7.13-15-13.81-33.17-7.49-49.6c1.87-4.88,4.9-9.19,8.57-12.88
				C331.32,293.82,329.95,292.45,329.06,293.34L329.06,293.34z"/>
		</g>
	</g>
	<g>
		<path d="M328.51,357.69c0.75-15.06,0.94-30.15,0.44-45.17c-0.28-7.51-0.74-15.01-1.55-22.43c-0.83-7.4-1.96-14.81-4-21.72
			l-0.02-0.06c-0.47-1.59,0.44-3.26,2.03-3.73c1.59-0.47,3.26,0.44,3.73,2.03c0.02,0.06,0.04,0.13,0.05,0.19
			c1.73,7.7,2.35,15.33,2.7,22.95c0.32,7.61,0.29,15.2,0.06,22.76C331.45,327.64,330.26,342.7,328.51,357.69z"/>
	</g>
	<g>
		<g>
			<g>
				<path d="M329.67,334.1c1.82,3.98,3.51,8.02,5.33,12c0.32,0.7,1.36,0.09,1.04-0.61c-1.82-3.98-3.51-8.02-5.33-12
					C330.39,332.79,329.35,333.4,329.67,334.1L329.67,334.1z"/>
			</g>
		</g>
		<g>
			<g>
				<path d="M330.34,317.43c2.54,4.04,5.88,7.61,7.83,12c0.31,0.7,1.35,0.09,1.04-0.61c-1.96-4.39-5.29-7.96-7.83-12
					C330.96,316.17,329.93,316.77,330.34,317.43L330.34,317.43z"/>
			</g>
		</g>
		<g>
			<g>
				<path d="M329.17,326.16c-2.79,3.79-5.16,7.94-8.41,11.38c-0.53,0.56,0.32,1.41,0.85,0.85c3.32-3.52,5.74-7.75,8.59-11.62
					C330.67,326.14,329.63,325.54,329.17,326.16L329.17,326.16z"/>
			</g>
		</g>
		<g>
			<g>
				<path d="M329.11,309.64c-0.19,1.19-1.01,2.21-1.76,3.1c-0.93,1.09-1.95,2.1-2.93,3.13c-1.99,2.1-3.55,4.69-5.82,6.5
					c-0.6,0.48,0.25,1.33,0.85,0.85c1.27-1.02,2.29-2.34,3.32-3.59c0.88-1.08,1.78-2.15,2.74-3.16c1.01-1.06,2.06-2.09,2.98-3.23
					c0.77-0.96,1.59-2.04,1.78-3.29C330.39,309.2,329.23,308.87,329.11,309.64L329.11,309.64z"/>
			</g>
		</g>
	</g>
	<g>
		<g>
			<path d="M185.75,286.97c-6.38,13.89-5.97,31.48,2.5,44.44c2.37,3.62,5.34,6.76,8.82,9.33c0.44,0.32,1.07,0.05,1.33-0.35
				c8.59-13.34,4.2-31.37-3.17-44.21c-2.07-3.6-4.5-7-7.35-10.02c-0.86-0.91-2.24,0.47-1.38,1.38c4.96,5.25,8.69,11.72,11.21,18.47
				c2.61,6.96,4.09,14.61,3.1,22.04c-0.54,4.04-1.88,7.93-4.1,11.36c0.44-0.12,0.89-0.23,1.33-0.35
				c-12.04-8.9-16.42-25.08-14.13-39.41c0.64-4.03,1.8-7.98,3.5-11.69C187.96,286.82,186.28,285.83,185.75,286.97L185.75,286.97z"/>
		</g>
	</g>
	<g>
		<path d="M187.2,286.85c0.47,5.87,1.69,11.62,3.05,17.32c1.38,5.7,2.97,11.35,4.51,17.04c1.54,5.69,3.06,11.4,4.29,17.24
			c1.2,5.84,2.19,11.82,2.11,18.1c-0.02,1.66-1.38,2.99-3.04,2.97c-1.66-0.02-2.99-1.38-2.97-3.04c0-0.09,0.01-0.17,0.01-0.25
			l0-0.05c0.54-5.47,0.13-11.25-0.56-16.99c-0.7-5.76-1.72-11.53-2.78-17.31c-1.06-5.78-2.16-11.58-3.06-17.41
			C187.9,298.63,187.17,292.74,187.2,286.85z"/>
	</g>
	<g>
		<g>
			<g>
				<path d="M183.2,297.98c1.5,2.48,3.69,4.41,5.89,6.24c0.37,0.31,0.9-0.22,0.53-0.53c-2.15-1.79-4.31-3.67-5.77-6.09
					C183.6,297.19,182.95,297.57,183.2,297.98L183.2,297.98z"/>
			</g>
		</g>
		<g>
			<g>
				<path d="M182.26,309.89c2.53,3.15,6.85,3.73,9.67,6.5c0.34,0.34,0.88-0.19,0.53-0.53c-2.81-2.77-7.15-3.37-9.67-6.5
					C182.49,308.99,181.96,309.52,182.26,309.89L182.26,309.89z"/>
			</g>
		</g>
		<g>
			<g>
				<path d="M185.17,323.12c2.77,1.46,5.76,2.47,8.5,4c0.42,0.24,0.8-0.41,0.38-0.65c-2.74-1.53-5.73-2.54-8.5-4
					C185.12,322.25,184.74,322.89,185.17,323.12L185.17,323.12z"/>
			</g>
		</g>
		<g>
			<g>
				<path d="M194.99,297.86c-0.96,3.99-2.75,7.87-4.79,11.41c-0.24,0.42,0.41,0.8,0.65,0.38c2.07-3.6,3.89-7.55,4.87-11.59
					C195.83,297.59,195.11,297.39,194.99,297.86L194.99,297.86z"/>
			</g>
		</g>
		<g>
			<g>
				<path d="M199.99,309.69c-0.72,1.93-1.87,3.72-3.04,5.41c-1.21,1.74-2.53,3.42-4.02,4.92c-0.34,0.34,0.19,0.87,0.53,0.53
					c1.54-1.55,2.9-3.29,4.14-5.08c1.21-1.75,2.37-3.59,3.12-5.59C200.89,309.44,200.16,309.25,199.99,309.69L199.99,309.69z"/>
			</g>
		</g>
		<g>
			<g>
				<path d="M201.59,322.86c-2.21,2.23-3.72,5.03-5.83,7.33c-0.33,0.36,0.2,0.89,0.53,0.53c2.11-2.31,3.62-5.11,5.83-7.33
					C202.46,323.05,201.93,322.52,201.59,322.86L201.59,322.86z"/>
			</g>
		</g>
	</g>
	<g>
		<g>
			<path d="M57.03,292.47c-2.17-3.74-2.36-7.92-1.21-12.03c1.01-3.61,2.65-7.06,5.35-9.7c4.71-4.61,11.15-7.34,17.22-9.64
				c7.09-2.69,14.26-5.12,21.31-7.92c7.8-3.09,15.51-6.46,22.93-10.4c7.07-3.75,14.05-7.92,20.07-13.23
				c5.74-5.06,10.86-10.89,17.13-15.32c3.77-2.67,8.92-5.91,13.67-3.8c3.73,1.66,5.87,5.76,7.22,9.4
				c3.35,9.08,4.05,19.88,1.73,29.27c-3.01,12.14-11.22,21.98-20.89,29.57c-9.65,7.58-20.93,13.52-32.29,18.11
				c-8.11,3.27-16.15,6.73-24.45,9.52c-8.9,2.99-18.42,5.68-27.89,5.32c-3.86-0.15-7.8-0.9-11.16-2.88
				c-3.33-1.97-5.73-5.09-7.06-8.71c-0.84-2.27-1.31-4.66-1.55-7.06c-0.12-1.24-2.07-1.25-1.95,0c0.47,4.71,1.73,9.42,4.7,13.19
				c2.46,3.13,5.93,5.22,9.73,6.32c8.98,2.59,19.01,0.54,27.8-1.87c9.47-2.59,18.59-6.27,27.65-10.01
				c10.74-4.44,21.33-9.21,31.06-15.64c10.65-7.04,20.56-16.17,25.71-28.07c4.37-10.08,4.75-21.33,2.38-31.96
				c-1.77-7.9-6.39-18.91-16.41-16.85c-2.96,0.61-5.68,2.23-8.15,3.9c-3.19,2.16-6.11,4.71-8.92,7.33c-2.95,2.76-5.8,5.62-8.81,8.32
				c-3.08,2.76-6.38,5.16-9.87,7.39c-14.96,9.57-31.62,16.11-48.28,22.05c-6.3,2.24-12.69,4.48-18.4,8.01
				c-2.71,1.67-5.31,3.66-7.31,6.17c-2.42,3.04-4.02,7.17-4.66,10.98c-0.65,3.92-0.08,7.77,1.93,11.22
				C55.98,294.54,57.66,293.56,57.03,292.47L57.03,292.47z"/>
		</g>
	</g>
	<g>
		<path d="M178.95,214.09c-3.28,6.65-7.78,12.65-12.84,18.08c-5.07,5.44-10.69,10.33-16.62,14.81c-5.94,4.48-12.19,8.54-18.7,12.16
			c-3.26,1.8-6.58,3.5-10.05,4.98c-3.48,1.42-6.84,2.82-10.23,4.3c-6.77,2.95-13.45,6.07-20.09,9.31c-3.32,1.62-6.62,3.27-9.91,4.94
			c-3.26,1.67-6.65,3.36-9.75,5.08c-6.25,3.52-12,7.79-16.65,12.98c-4.68,5.17-8.2,11.24-10.72,17.77c-0.8,2.06-3.11,3.09-5.17,2.29
			s-3.09-3.11-2.29-5.17c0.03-0.07,0.05-0.13,0.08-0.19l0.01-0.02c3.21-7.11,7.63-13.82,13.22-19.33
			c5.57-5.54,12.15-9.83,18.98-13.18l2.58-1.21l2.55-1.14l5.09-2.25c3.4-1.49,6.81-2.96,10.24-4.4c6.85-2.87,13.76-5.63,20.72-8.21
			c3.47-1.3,7.03-2.51,10.46-3.75c3.39-1.32,6.72-2.89,9.98-4.57c6.53-3.38,12.85-7.21,18.86-11.47
			c6.01-4.26,11.74-8.95,16.93-14.19C170.81,226.46,175.48,220.63,178.95,214.09z"/>
	</g>
	<g>
		<g>
			<path d="M155.02,217.29c0.14,2.41-0.17,4.84-0.63,7.22c-0.46,2.38-1.06,4.73-1.63,7.07c-0.6,2.33-1.02,4.66-1.38,7.05
				c-0.36,2.37-0.65,4.75-0.88,7.13c-0.05,0.55-0.54,0.95-1.09,0.9c-0.55-0.05-0.95-0.54-0.9-1.09c0-0.02,0.01-0.05,0.01-0.07
				c0.4-2.4,0.86-4.78,1.39-7.15c0.27-1.18,0.55-2.36,0.85-3.54c0.3-1.19,0.68-2.35,1.04-3.5c0.73-2.3,1.49-4.59,2.1-6.91
				C154.52,222.08,155,219.71,155.02,217.29z"/>
		</g>
		<g>
			<path d="M134.69,234.79c0.25,3.89-0.36,7.8-1.1,11.61c-0.75,3.82-1.66,7.6-2.08,11.38c-0.06,0.55-0.56,0.95-1.11,0.88
				c-0.55-0.06-0.95-0.56-0.88-1.11c0-0.03,0.01-0.06,0.01-0.09c0.78-3.89,2.02-7.59,3.08-11.3
				C133.68,242.46,134.6,238.68,134.69,234.79z"/>
		</g>
		<g>
			<path d="M114.69,246.29c-1.34,6.9-2.36,13.85-3.87,20.76c-0.12,0.54-0.65,0.88-1.19,0.77c-0.54-0.12-0.88-0.65-0.77-1.19
				c0.01-0.03,0.02-0.06,0.02-0.09C111.02,259.88,112.7,253.03,114.69,246.29z"/>
		</g>
		<g>
			<path d="M94.86,254.29c-0.36,6.86-0.97,13.73-2.19,20.56c-0.1,0.54-0.62,0.91-1.16,0.81c-0.54-0.1-0.91-0.62-0.81-1.16
				c0.01-0.03,0.01-0.07,0.02-0.1C92.56,267.84,93.83,261.08,94.86,254.29z"/>
		</g>
		<g>
			<path d="M76.02,261.29c-0.67,6.89-1.67,13.76-2.17,20.62c-0.04,0.55-0.52,0.97-1.07,0.93s-0.97-0.52-0.93-1.07
				c0-0.03,0.01-0.07,0.01-0.1C73.04,274.8,74.69,268.08,76.02,261.29z"/>
		</g>
		<g>
			<path d="M65.47,288.33c4.5,3.71,8.21,8.08,12.25,12.06c2.02,1.98,4.16,3.88,6.39,5.62c2.25,1.73,4.68,3.24,7.08,4.78
				c-2.49-1.4-4.99-2.76-7.37-4.37c-2.36-1.63-4.61-3.4-6.78-5.29c-4.31-3.78-8.28-7.91-12.8-11.21c-0.45-0.33-0.54-0.95-0.22-1.4
				s0.95-0.54,1.4-0.22C65.44,288.31,65.46,288.32,65.47,288.33z"/>
		</g>
		<g>
			<path d="M86.98,278.34c1.88,2.5,4.09,4.79,6.45,6.92c2.36,2.14,4.87,4.14,7.39,6.15c2.53,1.99,5.01,4.06,7.44,6.17
				c2.41,2.13,4.71,4.41,7.6,5.88c-2.96-1.32-5.42-3.51-7.92-5.5c-2.53-1.98-5.1-3.9-7.73-5.76c-2.61-1.88-5.24-3.75-7.76-5.81
				c-2.52-2.04-4.93-4.28-7.05-6.82c-0.35-0.42-0.3-1.05,0.13-1.41c0.42-0.35,1.05-0.3,1.41,0.13
				C86.95,278.3,86.96,278.32,86.98,278.34L86.98,278.34z"/>
		</g>
		<g>
			<path d="M105.36,269.09c6.03,3.7,12.05,7.45,17.9,11.44c2.93,1.98,5.81,4.09,8.65,6.14c1.47,0.93,3.08,1.7,4.63,2.55
				c1.54,0.85,3.12,1.75,4.32,3.07c-1.26-1.25-2.85-2.07-4.43-2.84c-1.59-0.77-3.21-1.46-4.78-2.35c-2.99-1.95-5.91-3.88-8.93-5.73
				c-6.01-3.7-12.18-7.14-18.37-10.55c-0.48-0.27-0.66-0.87-0.39-1.36c0.27-0.48,0.87-0.66,1.36-0.39
				C105.33,269.08,105.35,269.08,105.36,269.09z"/>
		</g>
		<g>
			<path d="M123.19,261.35c6.76,2.55,13.13,5.84,19.54,8.97c1.6,0.78,3.21,1.55,4.83,2.31c1.61,0.77,3.26,1.43,4.87,2.24
				c1.6,0.8,3.17,1.64,4.81,2.35c1.63,0.7,3.33,1.28,5.12,1.42c-1.79-0.05-3.54-0.55-5.22-1.18c-1.68-0.64-3.29-1.41-4.92-2.13
				c-1.62-0.72-3.31-1.31-4.96-2c-1.66-0.68-3.3-1.37-4.94-2.08c-6.56-2.83-13.06-5.81-19.79-7.99c-0.53-0.17-0.81-0.73-0.64-1.26
				s0.73-0.81,1.26-0.64C123.16,261.34,123.17,261.34,123.19,261.35z"/>
		</g>
		<g>
			<path d="M141.8,250.8l39.39,5.83l-39.61-3.84l-0.02,0c-0.55-0.05-0.95-0.54-0.9-1.09s0.54-0.95,1.09-0.9
				C141.77,250.79,141.79,250.79,141.8,250.8z"/>
		</g>
	</g>
	<g>
		<g>
			<path d="M398.78,161.45c13.91,6.34,31.5,5.88,44.43-2.63c3.62-2.38,6.75-5.36,9.31-8.85c0.32-0.44,0.06-1.07-0.35-1.33
				c-13.36-8.55-31.39-4.12-44.2,3.29c-3.59,2.08-6.99,4.52-10,7.37c-0.91,0.87,0.47,2.24,1.38,1.38
				c5.24-4.97,11.7-8.72,18.43-11.26c6.96-2.63,14.59-4.13,22.03-3.16c4.05,0.53,7.93,1.86,11.37,4.06
				c-0.12-0.44-0.23-0.89-0.35-1.33c-8.86,12.07-25.03,16.49-39.37,14.24c-4.03-0.63-7.99-1.77-11.71-3.47
				C398.64,159.25,397.64,160.93,398.78,161.45L398.78,161.45z"/>
		</g>
	</g>
	<g>
		<path d="M398.67,160c5.87-0.49,11.61-1.72,17.31-3.1c5.7-1.4,11.34-3,17.02-4.56c5.68-1.56,11.39-3.1,17.23-4.34
			c5.84-1.22,11.81-2.22,18.1-2.16c1.66,0.02,2.99,1.37,2.98,3.03c-0.02,1.66-1.37,2.99-3.03,2.98c-0.09,0-0.17-0.01-0.25-0.01
			l-0.05,0c-5.47-0.52-11.25-0.1-16.99,0.61c-5.76,0.72-11.53,1.76-17.3,2.83c-5.78,1.07-11.57,2.19-17.4,3.11
			C410.44,159.27,404.56,160.02,398.67,160z"/>
	</g>
	<g>
		<g>
			<g>
				<path d="M409.81,163.98c2.47-1.51,4.4-3.7,6.23-5.91c0.31-0.37-0.22-0.9-0.53-0.53c-1.79,2.16-3.66,4.32-6.07,5.79
					C409.02,163.58,409.39,164.23,409.81,163.98L409.81,163.98z"/>
			</g>
		</g>
		<g>
			<g>
				<path d="M421.72,164.88c3.14-2.54,3.71-6.86,6.47-9.68c0.34-0.35-0.19-0.88-0.53-0.53c-2.76,2.82-3.35,7.15-6.47,9.68
					C420.82,164.66,421.35,165.18,421.72,164.88L421.72,164.88z"/>
			</g>
		</g>
		<g>
			<g>
				<path d="M434.94,161.94c1.45-2.78,2.45-5.77,3.98-8.51c0.23-0.42-0.41-0.8-0.65-0.38c-1.52,2.74-2.52,5.73-3.98,8.51
					C434.07,161.99,434.71,162.37,434.94,161.94L434.94,161.94z"/>
			</g>
		</g>
		<g>
			<g>
				<path d="M409.65,152.18c3.99,0.95,7.87,2.73,11.43,4.76c0.42,0.24,0.8-0.41,0.38-0.65c-3.6-2.06-7.56-3.87-11.6-4.84
					C409.38,151.35,409.18,152.07,409.65,152.18L409.65,152.18z"/>
			</g>
		</g>
		<g>
			<g>
				<path d="M421.47,147.15c1.94,0.72,3.73,1.86,5.42,3.03c1.74,1.2,3.43,2.52,4.93,4.01c0.34,0.34,0.87-0.19,0.53-0.53
					c-1.55-1.53-3.29-2.89-5.09-4.13c-1.75-1.21-3.6-2.36-5.6-3.11C421.22,146.26,421.02,146.98,421.47,147.15L421.47,147.15z"/>
			</g>
		</g>
		<g>
			<g>
				<path d="M434.64,145.51c2.23,2.2,5.04,3.7,7.35,5.81c0.36,0.32,0.89-0.2,0.53-0.53c-2.32-2.11-5.12-3.61-7.35-5.81
					C434.82,144.64,434.29,145.17,434.64,145.51L434.64,145.51z"/>
			</g>
		</g>
	</g>
	<g>
		<g>
			<path d="M156.32,195.22c-0.9-15.11-9.41-30.27-22.75-37.8c-3.81-2.15-7.99-3.61-12.32-4.25c-0.66-0.1-1.18,0.25-1.23,0.94
				c-1.31,15.84,11.13,29.7,23.7,37.55c3.49,2.18,7.21,4.01,11.12,5.33c1.19,0.4,1.7-1.48,0.52-1.88
				c-6.83-2.3-13.15-6.25-18.54-11.01c-5.58-4.91-10.51-10.98-13.11-18.01c-1.42-3.84-2.07-7.88-1.73-11.98
				c-0.41,0.31-0.82,0.63-1.23,0.94c14.92,2.2,26.41,14.26,31.2,28.11c1.35,3.89,2.19,7.95,2.43,12.06
				C154.44,196.47,156.39,196.48,156.32,195.22L156.32,195.22z"/>
		</g>
	</g>
	<g>
		<path d="M155.09,196.05c-3.18-4.96-6.95-9.46-10.84-13.85c-3.9-4.38-7.96-8.62-12-12.91c-4.04-4.29-8.07-8.62-11.9-13.19
			c-3.81-4.59-7.49-9.4-10.38-14.98c-0.76-1.47-0.19-3.29,1.29-4.05c1.47-0.76,3.29-0.19,4.05,1.29c0.04,0.08,0.07,0.15,0.11,0.23
			l0.02,0.04c2.1,5.08,5.18,9.99,8.49,14.73c3.33,4.75,6.95,9.36,10.59,13.97c3.65,4.6,7.35,9.2,10.89,13.92
			C148.94,185.98,152.35,190.84,155.09,196.05z"/>
	</g>
	<g>
		<g>
			<g>
				<path d="M153.38,184.34c-2.49-1.48-5.33-2.15-8.14-2.74c-0.47-0.1-0.67,0.62-0.2,0.72c2.74,0.57,5.52,1.22,7.96,2.66
					C153.42,185.23,153.8,184.58,153.38,184.34L153.38,184.34z"/>
			</g>
		</g>
		<g>
			<g>
				<path d="M148.69,173.42c-1.83-0.77-3.76-0.88-5.72-0.85c-1.99,0.03-4.02,0.18-5.96-0.38c-0.46-0.14-0.66,0.59-0.2,0.72
					c3.75,1.09,7.84-0.4,11.5,1.15C148.76,174.26,149.14,173.61,148.69,173.42L148.69,173.42z"/>
			</g>
		</g>
		<g>
			<g>
				<path d="M139.81,163.09c-3.13,0.02-6.25,0.53-9.38,0.47c-0.48-0.01-0.48,0.74,0,0.75c3.14,0.06,6.25-0.45,9.38-0.47
					C140.29,163.83,140.3,163.08,139.81,163.09L139.81,163.09z"/>
			</g>
		</g>
		<g>
			<g>
				<path d="M143.03,189.98c-1.02-3.97-1.26-8.24-1.13-12.32c0.02-0.48-0.73-0.48-0.75,0c-0.13,4.15,0.12,8.49,1.16,12.52
					C142.43,190.65,143.15,190.45,143.03,189.98L143.03,189.98z"/>
			</g>
		</g>
		<g>
			<g>
				<path d="M133.07,181.99c-0.27-2.05-0.12-4.16,0.12-6.21c0.25-2.13,0.63-4.27,1.25-6.33c0.14-0.46-0.58-0.66-0.72-0.2
					c-0.62,2.06-1,4.2-1.25,6.34c-0.25,2.11-0.42,4.29-0.15,6.4C132.38,182.46,133.13,182.47,133.07,181.99L133.07,181.99z"/>
			</g>
		</g>
		<g>
			<g>
				<path d="M125.46,171.03c0.9-3.01,0.92-6.18,1.7-9.21c0.12-0.47-0.6-0.67-0.72-0.2c-0.78,3.03-0.8,6.21-1.7,9.21
					C124.6,171.29,125.32,171.49,125.46,171.03L125.46,171.03z"/>
			</g>
		</g>
	</g>
</g>
<g id="DESIGNED_BY_FREEPIK">
</g>
</svg>
