<?xml version="1.0" encoding="utf-8"?>
<!-- Generator: Adobe Illustrator 25.0.1, SVG Export Plug-In . SVG Version: 6.00 Build 0)  -->
<svg version="1.1" xmlns="http://www.w3.org/2000/svg" xmlns:xlink="http://www.w3.org/1999/xlink" x="0px" y="0px"
	 viewBox="0 0 500 500" style="enable-background:new 0 0 500 500;" xml:space="preserve">
<style type="text/css">
	.st0{fill-rule:evenodd;clip-rule:evenodd;fill:#FFFFFF;}
	.st1{fill-rule:evenodd;clip-rule:evenodd;}
</style>
<g id="OBJECTS">
	<path class="st1" d="M221.23,271.95c2.53-4.93,4.87-9.49,7.39-14.4c-1.07-0.24-1.92-0.41-2.75-0.63
		c-4.18-1.07-8.43-1.95-12.52-3.28c-4.37-1.42-8.59-3.29-12.9-4.92c-6.31-2.38-10.1-7.57-14.07-12.55
		c-4.87-6.11-5.86-13.56-6.99-20.91c-0.48-3.11,1.13-4.1,4.08-3.16c4.26,1.35,8.6,2.45,12.84,3.85c6.69,2.2,13.32,4.57,20.1,6.92
		c3.22-4.91,6.44-9.82,9.88-15.07c-3.18-0.42-6.21-0.73-9.2-1.25c-9.69-1.68-17.87-6.4-24.63-13.31c-2.58-2.63-4.39-6.23-5.86-9.69
		c-2.11-4.98-3.61-10.21-5.3-15.36c-0.29-0.88-0.34-1.86-0.34-2.8c-0.02-2.33,0.69-3.13,2.95-2.48c5.71,1.65,11.4,3.41,16.97,5.47
		c5.69,2.11,11.23,4.64,16.81,6.97c2.58-3.67,1.48-6.84-0.87-10.01c-2.99-4.02-5.83-8.15-8.74-12.23
		c-5.63-7.9-7.39-16.86-6.45-26.27c0.54-5.5,1.79-10.98,3.26-16.32c1.04-3.75,2.89-7.29,4.57-10.83c1.86-3.91,3.87-7.77,5.98-11.55
		c1.38-2.47,2.98-4.84,4.65-7.13c1.51-2.08,3.2-1.95,4.27,0.39c1.24,2.71,2.2,5.54,3.26,8.33c3.95,10.45,5.92,21.4,7.85,32.34
		c0.56,3.15,0.29,6.46,0.32,9.7c0.04,5.09,0.01,10.18,0.01,16.06c1.31-1.27,2.23-2.13,3.11-3.04c7.24-7.43,15.6-13.43,24.35-18.9
		c1.69-1.06,3.7-1.71,5.65-2.23c3.47-0.93,5.71,0.92,5.7,4.61c0,1.34-0.43,2.67-0.57,4.01c-0.94,9.03-3.97,17.4-8.27,25.3
		c-1.66,3.05-3.98,5.77-6.19,8.48c-6.56,8.02-13.93,15.12-23.38,19.79c2.24,2.62,4.29,5.01,6.58,7.68c1.94-0.1,3.82-1.09,5.48-2.49
		c3.21-2.7,6.92-4.18,10.98-4.99c4.51-0.9,8.98-1.98,13.48-2.92c1.06-0.22,2.16-0.32,3.24-0.3c2.42,0.04,3.56,1.38,2.78,3.68
		c-1.38,4.1-2.62,8.33-4.69,12.09c-3.06,5.56-6.67,10.83-10.25,16.08c-5.38,7.89-12.56,13.78-21.03,18.12
		c-0.6,0.31-1.16,0.7-1.71,1.09c-0.21,0.15-0.36,0.4-0.7,0.8c1.5,2.61,4.15,3.99,6.54,5.93c3.31-1.57,6.61-3.09,9.86-4.7
		c5.96-2.95,12.22-4.38,18.88-4.11c1.9,0.08,3.8-0.07,5.7-0.11c3.21-0.06,4.36,1.64,3.03,4.64c-0.77,1.73-1.76,3.36-2.65,5.03
		c-2.29,4.31-4.42,8.71-6.89,12.91c-3.94,6.72-9.3,12.3-14.83,17.74c-4.48,4.41-9.73,7.69-15.4,11.23c0.76,0.76,1.56,1.55,2.35,2.35
		c1.9,1.91,3.86,3.79,5.7,5.75c3.42,3.65,3.5,8.35,3.9,12.92c0.83,9.59,1.39,19.19,1.3,28.83c-0.04,3.91,0.39,7.83,0.46,11.74
		c0.04,2.43-0.31,4.86-0.29,7.29c0.03,4.3,0.52,8.62,0.25,12.89c-0.49,7.69-1.43,15.34-2.1,23.02c-0.42,4.85-0.64,9.72-1.02,14.58
		c-0.22,2.84-0.55,5.66-0.9,8.49c-0.19,1.56-0.81,2.9-2.48,3.39c-3.54,1.05-7.13,1.1-11.19,0.85c0.09-2.04,0.06-3.76,0.26-5.45
		c1.12-9.67,2.74-19.31,3.35-29.02c0.65-10.41,0.46-20.87,0.49-31.31c0.03-8.83,0.01-17.65-0.28-26.47
		c-0.2-6.21-0.62-12.47-3.56-18.37c-4.18,0.19-8.35,0.39-12.52,0.57c-12.37,0.52-23.19-3.45-32.62-11.35
		c-0.93-0.78-1.91-1.59-2.57-2.58c-4.81-7.19-9.77-14.31-12.28-22.75c-0.59-1.98,0.38-3.44,2.71-3.32c2.96,0.16,5.91,0.7,8.83,1.26
		c8.91,1.71,17.8,3.51,26.71,5.26C219.77,271.96,220.45,271.92,221.23,271.95z M221.63,165c2.02-2.64,3.52-4.88,5.3-6.88
		c2.53-2.85,3.79-6.22,4.36-9.85c0.5-3.2,0.69-6.45,0.85-9.69c0.44-8.69-0.28-17.28-2.27-25.77c-1.97-8.41-3.19-17.03-7.11-24.88
		c-0.38-0.76-0.84-1.48-1.52-2.67c-1.11,1.99-2.01,3.48-2.79,5.04c-1.45,2.89-2.59,5.96-4.27,8.7c-5.52,8.97-8.18,18.83-9.31,29.14
		c-0.3,2.77-0.01,5.71,0.6,8.44c1.23,5.41,3.06,10.56,6.73,15.02C215.59,155.75,218.4,160.37,221.63,165z M280.38,235.72
		c-20.19-3.29-49.67,14.01-54.55,38.16c4.01,1.93,8.1,3.98,12.27,5.83c0.89,0.39,2.2,0.32,3.15-0.01c2.29-0.8,4.62-1.66,6.69-2.9
		c9.02-5.39,16.04-12.86,21.65-21.64c3.35-5.24,6.28-10.74,9.35-16.15C279.52,238,279.88,236.86,280.38,235.72z M269.84,126.6
		c-2.73,1.39-5.1,2.37-7.23,3.72c-11.37,7.24-21.82,15.55-30.51,25.99c-4.52,5.42-7.45,11.56-9.54,18.18
		c-0.82,2.6-0.43,3.31,1.85,4.59c2.48,1.39,4.97,2.77,7.45,4.16C255.21,175.52,271.91,144.98,269.84,126.6z M251.8,298.07
		c-0.83-1.67-1.26-2.94-2.02-3.97c-2.85-3.85-6.2-7.19-10.56-9.34c-3.15-1.56-6.41-2.93-9.49-4.63c-5.13-2.83-10.69-4.44-16.31-5.7
		c-6.73-1.51-13.56-2.57-20.35-3.8c-2.46-0.44-4.95-0.78-8.35-1.31c3.3,5.95,6.14,11.15,9.06,16.3c0.66,1.16,1.52,2.23,2.42,3.23
		c6.93,7.63,15.99,11.16,25.87,12.18C231.79,302.02,241.5,300.79,251.8,298.07z M274.67,186.59c-12.23,1.24-22.84,4.79-32.23,11.79
		c-9.31,6.94-17.55,14.65-21.25,26.05c4.34,2.3,8.28,4.37,12.21,6.46c1.38,0.73,2.71,0.98,4.24,0.27
		c8.06-3.77,15.36-8.54,21.17-15.4c6.1-7.19,10.51-15.38,14.31-23.93C273.8,190.27,274.1,188.54,274.67,186.59z M183.81,217.01
		c0.22,6.33,2.27,11.32,5.49,16.06c3.26,4.8,6.89,9.09,12.15,11.66c2.89,1.41,5.9,2.63,8.97,3.58c5.16,1.59,10.39,2.98,15.63,4.28
		c3.23,0.8,6.25,1.06,8.45-2.57c1.05-1.74,3.28-2.77,4.95-4.14c1-0.83,1.96-1.71,3.16-2.77c-1.89-1.75-3.35-3.35-5.05-4.64
		c-7.1-5.36-15.19-8.96-23.4-12.06c-8.98-3.4-18.27-5.98-27.44-8.89C185.89,217.25,184.98,217.21,183.81,217.01z M239.36,196.59
		c-1.17-1.62-1.89-3.16-3.07-4.16c-3.21-2.69-6.39-5.53-9.98-7.64c-11.49-6.76-23.96-11.43-36.27-16.43
		c-1.38-0.56-2.95-0.65-5.17-1.11c2.18,5.95,3.84,11.11,5.97,16.08c1.6,3.72,3.7,7.27,7.11,9.75c8.03,5.85,16.59,10.11,26.9,10.22
		c4.29,0.05,8.02-0.16,10.81-3.91C236.44,198.37,237.77,197.77,239.36,196.59z M244.63,411.24c5.06,0.69,5.93,0.1,6.49-4.2
		c0.05-0.4,0.07-0.81,0.11-1.22c0.45-5.26,0.89-10.53,1.35-15.79c0.67-7.57,1.61-15.12,1.96-22.7c0.4-8.67,0.52-17.36,0.34-26.03
		c-0.22-10.84-0.83-21.67-1.36-32.5c-0.1-1.99-0.62-3.96-1.01-6.33c-2.54,0.48-4.72,0.89-6.72,1.27c0.68,4.75,1.53,9.01,1.85,13.31
		c0.46,6.19,0.62,12.42,0.74,18.63c0.16,7.96,0.36,15.93,0.15,23.89c-0.24,9.06-0.78,18.11-1.45,27.15
		c-0.49,6.61-1.41,13.19-2.11,19.78C244.79,408.08,244.73,409.67,244.63,411.24z"/>
	<g>
		<g>
			<path d="M245.79,351.21c-3.61-1.27-6.92-2.53-10.25-3.85c-3.32-1.33-6.62-2.73-9.87-4.34c-3.25-1.6-6.46-3.42-9.49-5.59
				c-3-2.19-5.9-4.73-7.98-7.97c3.61,1.27,6.92,2.52,10.26,3.84c3.32,1.33,6.62,2.73,9.86,4.34c3.25,1.61,6.45,3.42,9.48,5.6
				C240.82,345.44,243.72,347.97,245.79,351.21z"/>
		</g>
		<g>
			<path d="M256.9,371.93c2.02-3.78,4.57-7.11,7.3-10.25c2.74-3.12,5.71-6.03,8.84-8.72c3.14-2.7,6.45-5.18,9.95-7.43
				c3.51-2.23,7.17-4.25,11.2-5.72c-2.53,3.46-5.35,6.48-8.24,9.39c-2.9,2.9-5.9,5.65-9,8.3c-3.09,2.65-6.27,5.19-9.57,7.63
				C264.07,367.56,260.68,369.91,256.9,371.93z"/>
		</g>
	</g>
	<g>
		<g>
			<path d="M251.57,298.59c-3.58-2.17-7.45-3.89-11.41-5.39c-3.97-1.49-8.03-2.75-12.13-3.91c-8.19-2.33-16.54-4.22-24.66-6.86
				c8.22,2.31,16.61,3.87,24.91,5.89c4.15,1.01,8.3,2.11,12.37,3.46c4.08,1.36,8.1,2.96,11.91,5.07L251.57,298.59z"/>
		</g>
		<g>
			<path d="M230.83,277.97c4.07-6.65,9.2-12.59,14.95-17.76c5.75-5.17,12.11-9.6,18.76-13.45c-6.48,4.14-12.61,8.82-18.08,14.18
				c-5.46,5.35-10.23,11.4-13.9,18.03L230.83,277.97z"/>
		</g>
		<g>
			<path d="M238.71,249.4c-12.4-4.86-23.96-11.32-36.47-15.66c12.71,3.71,24.69,9.61,37.15,13.78L238.71,249.4z"/>
		</g>
		<g>
			<path d="M225.39,227.3c9.97-7.77,20.36-14.88,29.52-23.58c-8.68,9.17-18.77,16.9-28.24,25.12L225.39,227.3z"/>
		</g>
		<g>
			<path d="M235.85,200.69c-8.81-3.87-17.56-7.86-26.81-10.56c9.42,2.04,18.51,5.45,27.55,8.7L235.85,200.69z"/>
		</g>
		<g>
			<path d="M225.21,179.94c3.32-4.53,7.32-8.43,11.54-11.99c4.22-3.56,8.67-6.79,13.07-10.1c-4.19,3.56-8.43,7.06-12.4,10.84
				c-3.96,3.77-7.64,7.84-10.56,12.38L225.21,179.94z"/>
		</g>
		<g>
			<path d="M223.33,163.52c0.33-13.57,0.1-27.17-0.13-40.77c0.9,13.57,1.8,27.15,2.13,40.77H223.33z"/>
		</g>
	</g>
</g>
<g id="DESIGNED_BY_FREEPIK">
</g>
</svg>
