<?xml version="1.0" encoding="utf-8"?>
<!-- Generator: Adobe Illustrator 25.0.1, SVG Export Plug-In . SVG Version: 6.00 Build 0)  -->
<svg version="1.1" xmlns="http://www.w3.org/2000/svg" xmlns:xlink="http://www.w3.org/1999/xlink" x="0px" y="0px"
	 viewBox="0 0 500 500" style="enable-background:new 0 0 500 500;" xml:space="preserve">
<style type="text/css">
	.st0{fill-rule:evenodd;clip-rule:evenodd;fill:#FFFFFF;}
	.st1{fill-rule:evenodd;clip-rule:evenodd;}
</style>
<g id="BACKGROUND">
	<rect class="st0" width="500" height="500"/>
</g>
<g id="OBJECTS">
	<path class="st1" d="M337.22,315.16c1.2,4.32,2.78,8.58,3.52,12.98c1.25,7.39,2.44,14.85,2.78,22.32
		c0.55,11.84-6.2,19.53-15.78,25.39c-14.95,9.14-31.84,11.83-48.66,14.28c-6.04,0.88-12.46-0.35-18.65-1.04
		c-9.41-1.03-18.83-2.19-28.16-3.74c-11.13-1.85-19.95-8.11-27.25-16.3c-4.02-4.51-4.4-10.69-4.51-16.52
		c-0.07-3.97,0.63-7.96,0.33-12.2c-3.36,5.69-6.73,11.37-10.06,17.08c-2.61,4.46-4.61,9.42-7.86,13.34
		c-7.18,8.65-16.12,13.87-28.09,12.57c-8.85-0.97-16.43-4.97-24.18-8.71c-5.98-2.89-12.13-5.53-17.82-8.92
		c-4.6-2.74-8.61-6.46-12.92-9.68c-8.3-6.19-15.77-13.2-23.13-20.52c-16.63-16.55-14.33-44.23,0.07-59.98
		c2.9-3.17,5.96-6.23,9.27-8.96c3.3-2.71,6.99-4.93,11.92-8.34c-4.57,0.68-7.73,1.1-10.88,1.63c-10.03,1.7-20.09-5.17-23.51-14.76
		c-3.73-10.49-4.31-20.92-3.03-31.83c1.33-11.3,7.04-20.18,14.09-28.52c1.95-2.31,4.11-4.46,5.83-6.92
		c13.02-18.55,30.82-30.08,52.84-34.39c10.91-2.13,22.26-2.74,33.38-0.32c6.64,1.44,12.37,4.88,17.73,8.95
		c1.52,1.16,2.92,2.46,5.49,4.64c-2.62-5.93-4.79-10.47-6.65-15.13c-6.39-16.02,2.02-28.03,13.57-32.27
		c8.88-3.26,17.96-6,27.02-8.77c9.76-2.98,19.73-3.6,29.98-3.58c7.39,0.02,14.71-0.31,21.65,2.05c7.2,2.45,12.78,7.03,14.02,15.3
		c0.53,3.57,1.25,7.12,1.99,11.33c1.73-1.25,3.39-2.15,4.68-3.42c8.97-8.81,19.98-12.44,32.25-12.92c3.24-0.13,6.48-0.06,9.72-0.18
		c11.54-0.44,22.08,2.95,32.13,8.26c4.96,2.62,10.04,5.03,14.92,7.79c17.6,9.95,30.59,24.36,40.14,42.02
		c4.47,8.27,4.49,18.17-2.19,25.89c-5.78,6.7-12.04,12.24-20.47,15.13c-2.23,0.77-4.36,1.82-7.33,3.07
		c5.68,2.02,10.77,3.58,15.65,5.62c12.37,5.17,22.76,12.61,29.93,24.47c4.34,7.19,7.67,14.53,8.37,22.81
		c0.4,4.66,0.05,9.46-0.53,14.12c-2.2,17.61-9.23,33.25-20.97,46.46c-3.77,4.25-9,7.37-13.95,10.36
		c-12.98,7.84-27.05,10.23-41.69,6.06c-7.46-2.13-14.32-5.99-19.88-11.7c-4.78-4.92-9.52-9.88-14.27-14.82
		C337.77,314.81,337.5,314.98,337.22,315.16z M71.07,305.84c0.39,7.27,1.87,14.46,6.5,20.88c10.05,13.93,24.02,23.53,37.82,32.95
		c9.13,6.23,19.61,10.92,30.06,14.71c16.04,5.82,24.56,5.14,34.71-8.85c7.52-10.37,13.76-22.01,18.66-33.88
		c6.89-16.72,13.06-33.73,21.24-49.9c4.37-8.65,9.08-17.14,13.1-25.94c1.45-3.18,2.01-7.09,1.83-10.62
		c-0.25-4.98-2.28-8.36-8.34-6.67c-1.86,0.52-3.76,0.9-5.67,1.23c-8.24,1.46-16.46,3.14-24.75,4.27
		c-14.05,1.93-28.25,2.83-42.1,6.23c-5.01,1.23-10.14,2.2-15.28,2.69c-16.35,1.57-31.65,6.09-45.47,15.18
		C79.92,276.99,71.97,289.07,71.07,305.84z M338.62,341.54c-1.34-6.3-2.5-12.65-4.06-18.89c-2.61-10.4-8.32-19.36-13.76-28.4
		c-6.67-11.07-12.94-22.45-21.58-32.16c-5.58-6.27-12.09-11.75-17.38-18.23c-3.73-4.56-8.15-7.17-13.58-7.78
		c-14.74-1.64-16.32-2.78-23.81,11.15c-0.61,1.14-1.01,2.39-1.55,3.56c-3.6,7.82-7.17,15.66-10.84,23.45
		c-8.82,18.7-18.16,37.18-22.97,57.48c-1.34,5.66-2.84,11.3-3.69,17.04c-0.88,5.94,0.51,11.82,4.33,16.4
		c8.96,10.75,21.39,14.85,34.76,16.45c6.83,0.82,13.88,0.34,20.57,1.71c14.62,3,28.38-1.39,41.99-4.82
		c8.3-2.09,15.74-7.76,23.35-12.2c2.07-1.21,3.72-3.57,4.92-5.75C338.51,354.66,338.28,348.16,338.62,341.54z M279.82,232.72
		c1.88,1.88,3.27,3.35,4.74,4.72c3.78,3.52,8.17,6.56,11.3,10.58c8.19,10.53,16.3,21.17,23.59,32.33
		c10.42,15.96,22.07,30.84,35.65,44.18c9.82,9.64,21.98,14.22,35.4,12.33c16.94-2.38,30.65-11.14,40.08-25.7
		c7.01-10.83,10.62-22.74,12.37-35.66c2.59-19.18-4.09-34.71-18.76-45.4c-16.07-11.71-34.35-18-55.24-12.27
		c-13.41,3.68-27.41,5.13-41.03,8.13c-14.79,3.25-29.7,5.06-44.81,5.52C282.33,231.51,281.56,232.05,279.82,232.72z M88.56,254.98
		c5.72-0.99,11.42-2.1,17.17-2.94c18.35-2.7,36.77-4.92,54.77-9.57c1.25-0.32,2.55-0.42,3.83-0.64c16.37-2.74,32.76-5.31,49.08-8.29
		c7-1.28,13.8-3.52,19.73-7.74c3.6-2.56,4.54-4.87,2.62-8.82c-1.95-4.02-4.14-8.09-7.05-11.43c-6.62-7.6-13.76-14.75-20.65-22.11
		c-4.27-4.56-8.73-8.97-12.65-13.82c-6.37-7.87-14.1-13.95-23.09-18.37c-3.02-1.48-6.5-2.02-9.78-2.96
		c-8.15-2.33-16.41-1.06-24.39,0.27c-15.05,2.5-29.39,7.38-40.45,18.6c-6.91,7.01-13.55,14.36-19.63,22.09
		c-12.19,15.47-15.4,32.79-9.4,51.73C71.76,250.79,77.87,255.13,88.56,254.98z M258.39,219.55c4.98,2.83,10.46,5.2,17.07,5.09
		c17.9-0.29,35.76-0.79,53.33-4.73c14.48-3.25,28.98-6.42,43.46-9.62c1.67-0.37,3.4-1.22,5-1.02c7.85,0.97,14.91-2.02,21.93-4.54
		c9.04-3.24,16.64-8.6,21.57-17.33c2.46-4.37,2.71-8.44,0.9-12.95c-7.06-17.56-19.48-30.71-34.46-41.68
		c-2.39-1.75-5.49-2.51-8.05-4.08c-14.78-9.03-30.15-15.44-48.09-14.27c-17,1.1-31.12,6.83-39.59,22.36
		c-3.07,5.63-5.07,11.85-7.32,17.89c-5.65,15.13-11.02,30.36-16.82,45.42C264.8,206.62,261.49,212.85,258.39,219.55z M246.68,217.32
		c4.95-0.14,6.86-3.11,8.64-6.11c5.76-9.69,9.86-20.05,13.3-30.79c4.01-12.5,8.99-24.67,13.36-37.06c2.52-7.14,4.21-14.5,3.69-22.16
		c-0.7-10.24-5.73-15.38-15.85-17.32c-10.36-1.99-20.81-1.23-30.93,0.22c-11.42,1.64-22.56,5.39-33.7,8.64
		c-3.85,1.12-7.62,3.1-10.93,5.4c-5.54,3.85-8.01,9.21-6.77,16.25c1.2,6.78,4.34,12.6,7.81,18.31c5.49,9.02,11.97,17.24,18.98,25.21
		C225.52,190.69,235.94,204.17,246.68,217.32z M236.65,231.49c1.9,3.28,3.57,6.16,5.77,9.97c2.04-9.59,10.09-11.13,16.7-14.4
		c-0.08-0.45-0.17-0.89-0.25-1.34c-5.12-0.64-10.25-1.27-15.35-1.9C241.12,226.5,238.83,229.06,236.65,231.49z"/>
	<g>
		<g>
			<path d="M249.71,199.79c-1.11-5.21-1.83-10.48-2.51-15.74c-0.69-5.26-1.27-10.52-2.04-15.75c-0.73-5.23-1.64-10.42-2.84-15.55
				c-1.22-5.12-2.77-10.17-4.77-15.1c2.75,4.56,4.76,9.57,6.28,14.7c1.53,5.13,2.54,10.39,3.31,15.67
				c0.74,5.28,1.24,10.58,1.61,15.88C249.13,189.19,249.42,194.48,249.71,199.79z"/>
		</g>
		<g>
			<path d="M229.45,221.4c-7.69-2.26-15.31-4.7-22.94-7.1c-7.63-2.37-15.27-4.7-23-6.65c-7.72-1.99-15.52-3.59-23.41-4.72
				c-7.89-1.1-15.85-1.72-23.87-1.8c7.98-0.7,16.06-0.6,24.06,0.25c8,0.82,15.92,2.36,23.71,4.33c7.78,2,15.44,4.43,23,7.11
				C214.56,215.48,222.02,218.41,229.45,221.4z"/>
		</g>
		<g>
			<path d="M232.15,243.02c-5.77,5.64-11.66,11.15-17.66,16.53c-5.98,5.41-12.06,10.7-18.16,15.97
				c-6.12,5.25-12.25,10.47-18.44,15.63c-6.17,5.18-12.4,10.29-18.69,15.36c5.77-5.64,11.66-11.15,17.66-16.53
				c5.98-5.4,12.06-10.7,18.16-15.97c6.12-5.24,12.25-10.47,18.44-15.63C219.64,253.19,225.87,248.08,232.15,243.02z"/>
		</g>
		<g>
			<path d="M260.52,253.83c2.79,6.48,4.58,13.4,5.65,20.39c1.1,7,1.5,14.08,1.6,21.14c0.06,7.06-0.18,14.11-0.57,21.14
				c-0.36,7.03-0.88,14.04-1.27,21.08c-0.38-7.04-0.38-14.09-0.29-21.13c0.07-7.04,0.23-14.06,0.13-21.07
				c-0.06-7.01-0.37-14.01-1.14-20.96C263.83,267.48,262.58,260.57,260.52,253.83z"/>
		</g>
		<g>
			<path d="M282.13,232.21c9.68,0.27,19.38,1.45,28.85,3.72c9.47,2.23,18.72,5.52,27.47,9.82c8.74,4.32,17,9.62,24.54,15.78
				c7.56,6.13,14.39,13.12,20.46,20.67c-6.65-7.04-13.79-13.58-21.43-19.44c-7.65-5.84-15.82-10.98-24.45-15.21
				c-8.61-4.27-17.68-7.59-26.97-10.11C301.29,234.94,291.76,233.25,282.13,232.21z"/>
		</g>
		<g>
			<path d="M276.73,217.35c4.88-4.4,9.4-9.13,13.86-13.92c4.44-4.81,8.81-9.69,13.31-14.48c4.53-4.76,9.2-9.43,14.31-13.63
				c5.08-4.21,10.62-7.93,16.61-10.66c-5.62,3.42-10.74,7.48-15.59,11.84c-4.83,4.38-9.39,9.05-13.88,13.82
				c-4.51,4.74-8.96,9.58-13.65,14.19C287.03,209.14,282.09,213.55,276.73,217.35z"/>
		</g>
	</g>
	<g>
		<path d="M266.04,189.65c-23.22,0-46.45-2.97-53.28,28.2c-5.46,23.74,8.2,41.55,27.32,46c51.91,11.87,84.7-56.39,28.69-72.71"/>
	</g>
</g>
<g id="DESIGNED_BY_FREEPIK">
</g>
</svg>
