<svg id="Layer_1" enable-background="new 0 0 511.948 511.948" height="512" viewBox="0 0 511.948 511.948" width="512" xmlns="http://www.w3.org/2000/svg"><g><g><path d="m447.974 252.18c4.143 0 7.5-3.358 7.5-7.5v-14.232c0-20.678-16.822-37.5-37.5-37.5h-20.06v-51.06c.315-123.505-149.747-188.33-239.22-103.275-3.015 2.841-3.155 7.587-.314 10.602s7.588 3.154 10.602.314c80.025-76.094 214.238-18.044 213.933 92.359v51.06h-15v-51.06c-6.166-148.54-217.77-148.426-223.881 0v51.06h-15v-51.06c0-23.698 6.603-46.829 19.095-66.891 2.188-3.517 1.113-8.142-2.403-10.331-3.517-2.19-8.142-1.114-10.331 2.402-13.974 22.444-21.36 48.316-21.36 74.82v51.06h-20.06c-20.678 0-37.5 16.822-37.5 37.5v119.298c0 89.438 72.763 162.202 162.201 162.202h74.598c89.438 0 162.201-72.763 162.201-162.202v-69.625c-.344-9.931-14.66-9.923-15 0v69.625c0 81.167-66.034 147.202-147.201 147.202h-74.598c-81.167 0-147.201-66.034-147.201-147.202v-119.298c0-12.407 10.094-22.5 22.5-22.5h324c12.406 0 22.5 10.093 22.5 22.5v14.232c-.001 4.142 3.356 7.5 7.499 7.5zm-288.94-110.292c5.34-128.636 188.588-128.536 193.881 0v51.06h-193.881z"/><path d="m255.974 434.268c13.521 0 24.52-11 24.52-24.52v-70.162c16.081-9.28 25.646-26.957 24.508-45.629-1.494-24.513-21.085-44.267-45.57-45.95-13.799-.945-26.912 3.701-36.969 13.089-24.028 21.88-19.397 62.702 8.992 78.49v70.161c-.001 13.521 10.998 24.521 24.519 24.521zm-34.12-137.25c0-9.564 3.852-18.428 10.846-24.957 6.963-6.53 16.23-9.762 25.702-9.089 16.994 1.167 30.59 14.88 31.627 31.897.821 13.481-6.376 26.215-18.337 32.44-3.823 1.991-6.198 5.898-6.198 10.197v72.242c-.524 12.633-18.519 12.623-19.039 0v-72.244c0-4.302-2.371-8.206-6.186-10.188-11.36-5.906-18.415-17.516-18.415-30.298z"/></g></g></svg>