<svg xmlns="http://www.w3.org/2000/svg" viewBox="0 0 177.22 177.22">
    <defs>
        <style>.cls-1{fill:#fdc300;}.cls-2{fill:#2b1c07;}.cls-3{fill:#fff;}</style>
    </defs>
    <g id="Layer_2" data-name="Layer 2">
        <g id="Layer_1-2" data-name="Layer 1">
            <path class="cls-1" d="M139.75,88.69A51.14,51.14,0,1,1,88.61,37.56,51.14,51.14,0,0,1,139.75,88.69Z"/>
            <path class="cls-1"
                  d="M88.61,30.73c1.16,0,2.31.05,3.45.12V2.92A2.92,2.92,0,0,0,89.14,0H88.08a2.92,2.92,0,0,0-2.92,2.92V30.85C86.3,30.78,87.45,30.73,88.61,30.73Z"/>
            <path class="cls-1"
                  d="M88.61,145.82c-1.16,0-2.31,0-3.45-.12v28.6a2.92,2.92,0,0,0,2.92,2.92h1.06a2.92,2.92,0,0,0,2.92-2.92V145.7C90.92,145.77,89.77,145.82,88.61,145.82Z"/>
            <path class="cls-1"
                  d="M174.3,85.25H146.07c.05,1,.09,2,.09,3,0,1.3-.07,2.58-.15,3.87H174.3a2.92,2.92,0,0,0,2.92-2.92V88.17A2.91,2.91,0,0,0,174.3,85.25Z"/>
            <path class="cls-1"
                  d="M31.07,88.28c0-1,0-2,.08-3H2.92A2.92,2.92,0,0,0,0,88.17v1.06a2.92,2.92,0,0,0,2.92,2.92h28.3C31.13,90.86,31.07,89.58,31.07,88.28Z"/>
            <path class="cls-1"
                  d="M151.9,26.21l-.75-.75a2.92,2.92,0,0,0-4.13,0L126.84,45.57a57.62,57.62,0,0,1,4.85,4.91l20.2-20.14A2.92,2.92,0,0,0,151.9,26.21Z"/>
            <path class="cls-1"
                  d="M46,126.66,26,147.76a2.93,2.93,0,0,0,.1,4.13l.77.73a2.92,2.92,0,0,0,4.13-.1l20-21A62.43,62.43,0,0,1,46,126.66Z"/>
            <path class="cls-1"
                  d="M50.73,45.26,30.54,25.14a2.92,2.92,0,0,0-4.13,0l-.75.76a2.9,2.9,0,0,0,0,4.12l20.16,20.1A62.42,62.42,0,0,1,50.73,45.26Z"/>
            <path class="cls-1"
                  d="M151.61,147.44,131.5,126.31a62.42,62.42,0,0,1-4.89,4.87l20,21a2.92,2.92,0,0,0,4.13.1l.77-.73A2.92,2.92,0,0,0,151.61,147.44Z"/>
            <path class="cls-1"
                  d="M113.91,36.75l11.2-26a2.91,2.91,0,0,0-1.53-3.83l-1-.42A2.93,2.93,0,0,0,118.77,8L107.57,34A59.21,59.21,0,0,1,113.91,36.75Z"/>
            <path class="cls-1"
                  d="M63.84,140.08,52.9,167.25A2.91,2.91,0,0,0,54.51,171l1,.4a2.91,2.91,0,0,0,3.79-1.62l10.93-27.11A60.22,60.22,0,0,1,63.84,140.08Z"/>
            <path class="cls-1"
                  d="M63.34,36.74A57.25,57.25,0,0,1,69.68,34L58.38,7.76a2.91,2.91,0,0,0-3.83-1.53l-1,.42a2.91,2.91,0,0,0-1.52,3.83Z"/>
            <path class="cls-1"
                  d="M113.4,140.07A59.36,59.36,0,0,1,107,142.7l10.84,26.91a2.93,2.93,0,0,0,3.8,1.61l1-.4a2.91,2.91,0,0,0,1.61-3.79Z"/>
            <path class="cls-1"
                  d="M171.5,56.51l-.38-1a2.93,2.93,0,0,0-3.77-1.69L140.62,64a57.46,57.46,0,0,1,2.59,6.4l26.59-10.1A2.92,2.92,0,0,0,171.5,56.51Z"/>
            <path class="cls-1"
                  d="M34.42,107.34l-27,10.89A2.93,2.93,0,0,0,5.79,122l.4,1a2.92,2.92,0,0,0,3.8,1.61l27.15-10.95A56.51,56.51,0,0,1,34.42,107.34Z"/>
            <path class="cls-1"
                  d="M36.82,63.5,9.87,53.26A2.92,2.92,0,0,0,6.11,55l-.38,1a2.92,2.92,0,0,0,1.69,3.76L34.19,69.88A54.81,54.81,0,0,1,36.82,63.5Z"/>
            <path class="cls-1"
                  d="M169.82,117.68,143,106.85a59.38,59.38,0,0,1-2.66,6.37l26.92,10.85a2.92,2.92,0,0,0,3.8-1.61l.39-1A2.91,2.91,0,0,0,169.82,117.68Z"/>
            <path class="cls-2"
                  d="M68.53,96.54h0a3.41,3.41,0,0,1-3.4-3.39v-4a3.41,3.41,0,0,1,3.4-3.4h0a3.41,3.41,0,0,1,3.4,3.4v4A3.41,3.41,0,0,1,68.53,96.54Z"/>
            <path class="cls-2"
                  d="M104.44,96.25a1.86,1.86,0,0,1-1.86-1.83,10.5,10.5,0,0,1,2.61-6.94,8.3,8.3,0,0,1,11.25,0A10.27,10.27,0,0,1,119,94.38a1.86,1.86,0,1,1-3.71-.08,6.73,6.73,0,0,0-1.5-4.22,4.63,4.63,0,0,0-5.92,0,6.89,6.89,0,0,0-1.55,4.3,1.86,1.86,0,0,1-1.84,1.87Z"/>
            <path class="cls-2"
                  d="M89.74,124.5c-14.53,0-18.43-13.53-18.47-13.66a1.86,1.86,0,1,1,3.58-1c.13.44,3.23,10.94,14.89,10.94s15-10.94,15.05-11.05a1.86,1.86,0,1,1,3.57,1C108.32,110.89,104.27,124.5,89.74,124.5Z"/>
            <path class="cls-3" d="M65.63,56.92c6.55,1.32,8.6-8.83,2.06-10.16s-8.6,8.83-2.06,10.16Z"/>
            <path class="cls-3" d="M53.84,63.72c4.36.88,5.73-5.89,1.36-6.77s-5.73,5.89-1.36,6.77Z"/>
        </g>
    </g>
</svg>