<svg width="1919" height="748" viewBox="0 0 1919 748" fill="none" xmlns="http://www.w3.org/2000/svg">
<path d="M0 591V748H1921V591H1823H1508.57H875.912H209.218H0Z" fill="#eaeaea"/>
<path d="M0 591V748H1921V591H1823H1508.57H875.912H209.218H0Z" fill="#eaeaea"/>
<path d="M0 5V197H1921V0C1906.99 4.33333 1869.15 14.8 1829.91 22C1780.85 31 1663.73 46 1508.57 48C1353.41 50 1113.16 21 875.912 13C638.665 5 402.419 39 209.218 41C54.6569 42.6 5.33889 17.6667 0 5Z" fill="#eaeaea"/>
<path d="M0 135V591H1921V135H1829.91H1508.57H875.912H209.218H0Z" fill="#eaeaea"/>
</svg>
