<svg width="1912" height="990" viewBox="0 0 1912 990" fill="none" xmlns="http://www.w3.org/2000/svg">
<path d="M267 798C267 798 34 798 2 798L1 934.766C23 945.766 60.4313 997.26 219 972.766C465 934.766 734.567 936.426 938 952.766C1187 972.766 1479 988.766 1643 988.766C1754.76 988.766 1880 982.266 1922 937.266V798H1613H955H267Z" fill="#FFF6EE"/>
<path d="M267 798C267 798 34 798 2 798L1 934.766C23 945.766 60.4313 997.26 219 972.766C465 934.766 734.567 936.426 938 952.766C1187 972.766 1479 988.766 1643 988.766C1754.76 988.766 1880 982.266 1922 937.266V798H1613H955H267Z" fill="url(#paint0_linear_757:43)"/>
<path d="M267 798C267 798 34 798 2 798L1 934.766C23 945.766 60.4313 997.26 219 972.766C465 934.766 734.567 936.426 938 952.766C1187 972.766 1479 988.766 1643 988.766C1754.76 988.766 1880 982.266 1922 937.266V798H1613H955H267Z" stroke="#FFF6EE"/>
<path d="M267 136C267 136 34 136 2 136V804H220H939H1644H1923L1922 136H1613H955H267Z" fill="#FFF6EE"/>
<path d="M267 136C267 136 34 136 2 136V804H220H939H1644H1923L1922 136H1613H955H267Z" fill="url(#paint1_linear_757:43)"/>
<path d="M267 14.7671C132.6 0.367129 17.3333 30.1002 2 48.7668L1 180H219H938H1643H1922V28.7672C1903 2.88756 1765 -11.1125 1613 14.7671C1494.29 34.9783 1127.29 60.7672 955 60.7672C797 60.7672 435 32.7671 267 14.7671Z" fill="#FFF6EE" stroke="#FFF6EE"/>
<defs>
<linearGradient id="paint0_linear_757:43" x1="921" y1="1107.77" x2="921" y2="3.76732" gradientUnits="userSpaceOnUse">
<stop stop-color="white"/>
<stop offset="1" stop-color="white" stop-opacity="0"/>
</linearGradient>
<linearGradient id="paint1_linear_757:43" x1="910" y1="928" x2="915.714" y2="-46.0016" gradientUnits="userSpaceOnUse">
<stop stop-color="white"/>
<stop offset="0.384753" stop-color="white" stop-opacity="0"/>
</linearGradient>
</defs>
</svg>
