<svg width="1920" height="1531" viewBox="0 0 1920 1531" fill="none" xmlns="http://www.w3.org/2000/svg">
<g opacity="0.5" clip-path="url(#clip0_7:18)">
<path d="M377.912 859.105C556.283 814.026 734.306 723.564 914.295 757.845C1049.97 783.108 1169.66 878.278 1308.01 881.078C1449.21 884.108 1570.83 792.268 1699.41 734.861C1828 677.455 2008.24 669.558 2080.85 789.934C2213.16 455.813 2370.43 132.31 2550.77 -178.429C2070.94 -404.177 1575.41 -595.306 1069.52 -750.524C917.524 -797.481 751.648 -839.526 603.109 -783.724C431.675 -717.994 124.091 -648.455 48.5002 -480C-84.9698 -184.726 3.86607 229.929 -85.6258 541.945C-168.989 834.934 129.76 922.685 377.912 859.105Z" fill="url(#paint0_linear_7:18)"/>
</g>
<g clip-path="url(#clip1_7:18)">
<path opacity="0.3" d="M351.901 775.618C531.961 737.847 713.524 654.716 891.966 696.304C1026.5 727.075 1142.21 827.044 1280.33 835.481C1421.29 844.263 1546.55 757.455 1677.37 705.337C1808.18 653.219 1988.6 652.675 2056.24 775.911C2202.06 447.459 2372.38 130.635 2565.24 -172.496C2095.01 -417.612 1607.68 -628.778 1108.54 -804.486C958.582 -857.599 794.557 -906.37 643.867 -856.668C469.897 -797.979 159.734 -741.034 77.3404 -575.8C-68.053 -286.211 3.80916 131.72 -98.325 439.829C-193.56 729.177 101.365 829.031 351.901 775.618Z" fill="#3BD1BB"/>
</g>
<g clip-path="url(#clip2_7:18)">
<path opacity="0.3" d="M378.003 830.029C556.374 784.951 734.398 694.489 914.387 728.77C1050.06 754.033 1169.75 849.202 1308.1 852.003C1449.3 855.032 1570.92 763.192 1699.5 705.786C1828.09 648.379 2008.33 640.482 2080.94 760.859C2213.25 426.737 2370.52 103.235 2550.86 -207.504C2071.04 -433.252 1575.5 -624.381 1069.61 -779.6C917.616 -826.557 751.739 -868.602 603.2 -812.8C431.767 -747.069 124.183 -677.531 48.5919 -509.076C-84.8781 -213.801 3.95775 200.853 -85.5342 512.869C-168.897 805.858 129.852 893.609 378.003 830.029Z" fill="#3BD1BB"/>
</g>
<g clip-path="url(#clip3_7:18)">
<path opacity="0.3" d="M378.003 830.029C556.374 784.951 734.398 694.489 914.387 728.77C1050.06 754.033 1169.75 849.202 1308.1 852.003C1449.3 855.032 1570.92 763.192 1699.5 705.786C1828.09 648.379 2008.33 640.482 2080.94 760.859C2213.25 426.737 2370.52 103.235 2550.86 -207.504C2071.04 -433.253 1575.5 -624.381 1069.61 -779.6C917.616 -826.557 751.739 -868.602 603.2 -812.8C431.767 -747.07 124.183 -677.531 48.5919 -509.076C-84.8781 -213.801 3.95775 200.853 -85.5342 512.869C-168.897 805.858 129.852 893.609 378.003 830.029Z" fill="#3BD1BB"/>
</g>
<g opacity="0.3" clip-path="url(#clip4_7:18)">
<path d="M978.8 137.151C1106.16 172.773 1244.85 185.209 1353.05 270.922C1454.94 352.37 1510.22 486.919 1625.4 546.778C1702.62 587.919 1787.36 582.602 1869.38 592.593C1951.83 602.058 2049.58 640.678 2082.46 717.495C2242.12 541.926 2385.25 351.993 2510.81 150.33C2176.14 -131.703 1826.22 -396.386 1463.65 -641.591C1382.45 -696.495 1290.65 -753.047 1203.54 -746.158C1137.18 -740.733 1088.77 -698.74 1045.11 -657.247C867.935 -482.838 399.592 -26.3528 978.8 137.151Z" fill="url(#paint1_linear_7:18)"/>
</g>
<g opacity="0.3" clip-path="url(#clip5_7:18)">
<path d="M-43.1068 549.551C26.6642 437.203 77.3352 307.503 189.85 227.551C296.513 152.453 441.145 136.947 530.787 43.0674C591.857 -19.5963 610.415 -102.45 642.912 -178.415C675.025 -254.939 739.406 -338.019 822.35 -348.144C698.349 -550.475 555.943 -740.956 397.364 -917.827C33.0941 -675.232 -318.776 -413.145 -655.473 -133.476C-730.868 -70.8413 -810.807 1.51771 -828.517 87.0856C-841.838 152.319 -815.035 210.532 -787.385 264.04C-669.391 482.873 -361.852 1060.06 -43.1068 549.551Z" fill="url(#paint2_linear_7:18)"/>
</g>
<g opacity="0.3" clip-path="url(#clip6_7:18)">
<path d="M-33.7273 510.55C48.1403 406.684 112.962 283.446 233.694 216.543C348.067 153.812 493.527 154.537 593.081 71.2415C660.76 15.7809 688.444 -64.4858 729.212 -136.351C769.659 -208.816 842.906 -284.197 926.462 -285.006C825.805 -499.906 705.534 -705.083 567.674 -898.539C178.617 -698.09 -200.292 -476.889 -566.084 -236.522C-647.995 -182.688 -735.506 -119.697 -762.65 -36.6389C-783.165 26.7011 -763.022 87.5408 -741.513 143.799C-648.665 374.428 -407.428 982.317 -33.7273 510.55Z" fill="url(#paint3_linear_7:18)"/>
</g>
<defs>
<linearGradient id="paint0_linear_7:18" x1="1019" y1="-322.5" x2="1019" y2="1112.5" gradientUnits="userSpaceOnUse">
<stop stop-color="#1A7F72"/>
<stop offset="1" stop-color="#7ADBAE"/>
</linearGradient>
<linearGradient id="paint1_linear_7:18" x1="1239.14" y1="417.093" x2="1879.47" y2="-367.113" gradientUnits="userSpaceOnUse">
<stop stop-color="#1A7F72" stop-opacity="0"/>
<stop offset="1" stop-color="#1A7F72"/>
</linearGradient>
<linearGradient id="paint2_linear_7:18" x1="298.398" y1="377.747" x2="-275.797" y2="-456.101" gradientUnits="userSpaceOnUse">
<stop stop-color="#1A7F72" stop-opacity="0"/>
<stop offset="1" stop-color="#1A7F72"/>
</linearGradient>
<linearGradient id="paint3_linear_7:18" x1="324.81" y1="377.91" x2="-152.79" y2="-514.782" gradientUnits="userSpaceOnUse">
<stop stop-color="#1A7F72" stop-opacity="0"/>
<stop offset="1" stop-color="#1A7F72"/>
</linearGradient>
<clipPath id="clip0_7:18">
<rect width="2146.26" height="1773.67" fill="white" transform="translate(1656.74 1530.95) rotate(-156.955)"/>
</clipPath>
<clipPath id="clip1_7:18">
<rect width="2151.67" height="1749.86" fill="white" transform="translate(1627.95 1511.2) rotate(-154.62)"/>
</clipPath>
<clipPath id="clip2_7:18">
<rect width="2145.54" height="1750.07" fill="white" transform="translate(1668.61 1506.89) rotate(-156.955)"/>
</clipPath>
<clipPath id="clip3_7:18">
<rect width="2146.04" height="1747.46" fill="white" transform="translate(1667.99 1506.62) rotate(-156.955)"/>
</clipPath>
<clipPath id="clip4_7:18">
<rect width="1580.86" height="999.696" fill="white" transform="translate(1807.88 881.618) rotate(-140.767)"/>
</clipPath>
<clipPath id="clip5_7:18">
<rect width="955.685" height="609.913" fill="white" transform="translate(871.156 -16.5389) rotate(145.448)"/>
</clipPath>
<clipPath id="clip6_7:18">
<rect width="959.178" height="666.589" fill="white" transform="translate(928.159 55.2252) rotate(151.853)"/>
</clipPath>
</defs>
</svg>
