<svg width="313" height="664" viewBox="0 0 313 664" fill="#8bbb80" xmlns="http://www.w3.org/2000/svg">
<path d="M201.09 465.661C200.791 465.659 231.882 467.958 258.348 445.992C256.52 451.066 254.694 455.841 252.867 460.616C246.88 461.475 219.928 466.383 196.828 477.002C196.529 477 226.117 480.487 252.562 461.512C250.437 466.285 248.312 471.059 246.187 475.832C240.5 476.393 214.46 479.213 191.967 488.34C191.668 488.338 219.751 493.31 245.882 476.727C243.458 481.499 241.035 485.971 238.613 490.443C233.529 490.409 208.395 491.74 186.212 499.373C185.913 499.371 212.195 505.229 238.009 491.336C235.288 495.806 232.566 500.277 229.845 504.747C225.061 504.416 201.436 503.961 179.559 510.399C179.26 510.397 204.041 517.143 229.241 505.64C226.22 510.108 223.202 514.277 220.183 518.446C215.701 517.818 193.281 515.875 172.312 520.824C172.312 520.824 194.993 528.453 219.581 519.041C216.264 523.208 212.946 527.375 209.63 531.243C205.447 530.617 184.533 527.187 164.468 530.945C164.468 530.945 185.65 539.163 209.327 531.839C206.012 535.707 202.397 539.573 198.483 543.436C194.9 542.515 175.188 538.196 156.029 540.763C156.029 540.763 175.412 549.567 198.182 543.734C194.568 547.599 190.656 551.164 186.744 554.729C183.46 553.809 165.249 548.603 146.995 549.979C146.995 549.979 164.881 559.073 186.144 555.024C182.232 558.589 178.021 562.151 173.812 565.415C171.128 564.2 154.417 558.405 137.066 558.889C137.066 558.889 153.455 568.273 173.511 565.712C169.302 568.975 165.093 572.239 160.587 575.201C158.202 573.989 142.99 567.605 126.842 567.199C126.842 567.199 141.436 576.571 160.286 575.498C155.78 578.461 151.274 581.423 146.768 584.385C144.682 583.175 131.269 576.205 116.021 575.207C116.021 575.207 129.12 584.568 146.469 584.383C141.664 587.344 137.16 590.007 132.06 592.367C130.57 591.459 118.355 584.198 104.31 582.31C104.31 582.31 115.915 591.363 131.761 592.365C126.957 595.026 121.857 597.386 116.759 599.447C115.865 598.843 105.148 591.292 92.0017 589.111C92.0017 589.111 102.113 597.854 116.46 599.445C114.659 600.331 112.56 601.214 110.761 601.801C109.866 601.496 96.1317 597.815 81.7656 599.216C81.7656 599.216 95.4881 604.692 110.462 601.799C108.064 602.681 105.663 603.862 103.264 604.744C103.565 604.446 103.865 604.448 104.166 604.151C104.166 604.151 88.0011 606.139 73.9006 612.628C73.9006 612.628 89.7561 612.135 102.965 604.742C105.364 603.86 108.062 602.98 110.462 601.799C108.66 602.984 96.34 611.58 88.4927 622.299C88.4927 622.299 103.801 614.022 110.761 601.801C112.562 600.915 114.659 600.331 116.46 599.445C108.008 611.058 104.331 624.498 104.331 624.498C114.87 613.796 116.452 600.642 116.46 599.445C121.558 597.384 126.658 595.024 131.461 592.363C122.998 605.771 119.909 620.711 119.909 620.711C130.757 608.515 131.749 594.16 131.761 592.365C136.562 590.003 141.365 587.342 146.17 584.381C137.994 599.587 135.194 616.025 135.194 616.025C146.353 602.036 146.156 586.476 146.17 584.381C150.973 581.72 155.479 578.758 159.987 575.496C152.098 592.499 150.186 610.439 150.186 610.439C161.354 594.954 160.27 577.892 160.286 575.498C164.792 572.536 169.001 569.273 173.21 566.009C165.908 584.811 164.882 604.252 164.882 604.252C176.065 586.673 173.791 568.706 173.511 565.712C177.72 562.448 181.931 558.886 185.843 555.321C179.426 575.924 179.288 596.867 179.288 596.867C190.183 577.491 186.72 558.319 186.144 555.024C190.056 551.459 193.967 547.895 197.881 544.031C192.35 566.435 193.4 588.583 193.4 588.583C204.008 567.409 199.058 547.031 198.184 543.434C201.799 539.569 205.414 535.703 209.028 531.837C204.683 555.745 206.92 579.396 207.217 579.698C217.241 556.426 210.801 535.14 209.628 531.542C213.243 527.676 216.561 523.509 219.579 519.34C216.718 545.053 220.442 569.911 220.44 570.21C229.88 544.84 221.649 522.944 219.882 518.744C223.2 514.577 226.218 510.408 229.239 505.94C227.863 533.158 233.073 559.522 233.073 559.522C241.629 532.052 231.61 509.246 229.542 505.343C232.562 500.875 235.284 496.405 238.005 491.935C238.412 520.96 245.111 548.232 245.41 548.234C252.784 518.661 240.972 495.545 238.609 491.041C241.331 486.571 243.755 481.8 246.177 477.328C248.369 507.861 257.156 536.044 257.156 536.044C263.345 504.668 249.445 480.64 246.482 476.432C248.906 471.661 251.032 466.888 253.157 462.114C257.434 493.858 268.008 523.25 268.307 523.252C273.313 489.774 257.023 465.431 253.761 461.221C255.886 456.447 257.714 451.373 259.54 446.598C266.202 479.554 278.864 509.857 278.864 509.857C282.089 474.273 263.706 449.917 259.847 445.403C261.982 439.134 264.117 432.865 265.955 426.294C265.359 425.991 264.462 425.985 263.865 425.682C262.327 432.254 260.192 438.524 258.057 444.793C252.663 446.253 224.502 453.249 201.09 465.661Z" fill="#8bbb80"/>
<path d="M241.429 517.09C241.129 517.088 261.839 506.155 269.779 481.373C270.651 485.268 271.523 489.164 272.095 493.057C268.785 496.027 253.439 509.989 243.162 526.377C242.863 526.375 263.264 516.935 272.388 493.957C272.961 497.85 273.533 501.744 274.106 505.637C270.798 508.308 255.464 520.474 244.596 535.662C244.297 535.66 264.09 527.712 274.1 506.535C274.373 510.426 274.647 514.317 274.92 518.209C271.617 520.282 256.29 531.251 245.133 544.941C244.834 544.939 264.021 538.184 274.916 518.807C275.19 522.699 275.164 526.588 275.137 530.777C271.835 532.55 256.52 541.725 245.369 554.517C245.369 554.517 263.651 548.953 275.133 531.375C275.107 535.265 274.782 539.152 274.456 543.339C271.455 544.815 256.449 552.496 245.007 564.089C245.007 564.089 262.683 559.717 274.454 543.638C274.129 547.526 273.804 551.413 273.178 555.598C270.18 556.775 255.481 563.26 244.346 573.659C244.346 573.659 261.116 570.478 273.176 555.897C272.553 559.783 271.929 563.668 271.006 567.552C268.308 568.431 254.216 573.724 242.789 582.924C242.789 582.924 258.656 580.635 270.705 567.849C269.782 571.732 268.859 575.616 267.936 579.5C265.539 580.082 251.754 584.18 240.632 592.484C240.632 592.484 255.597 591.087 267.635 579.797C266.413 583.678 265.49 587.562 263.969 591.442C261.871 592.026 248.692 594.931 237.877 602.041C237.877 602.041 251.938 601.535 263.668 591.739C262.446 595.62 260.927 599.201 259.406 603.08C257.31 603.366 245.034 605.379 234.823 611.595C234.823 611.595 247.983 611.682 259.404 603.38C257.883 607.259 256.064 610.838 254.246 614.416C252.452 614.404 241.079 615.526 230.872 621.144C230.872 621.144 243.131 621.823 253.945 614.713C252.127 618.292 250.307 622.169 248.19 625.746C246.694 625.736 236.224 625.966 226.622 630.69C226.622 630.69 237.68 631.96 248.188 626.045C246.07 629.622 243.953 633.198 241.537 636.773C240.639 636.767 230.772 636.402 221.474 640.231C221.474 640.231 231.633 641.794 241.236 637.07C240.33 638.261 239.423 639.751 238.518 640.941C237.918 641.237 227.428 644.459 219.01 650.986C219.01 650.986 229.791 648.962 238.518 640.941C237.312 642.43 236.403 644.219 235.197 645.707C235.199 645.408 235.498 645.41 235.5 645.11C235.5 645.11 225.878 652.826 219.831 662.66C219.831 662.66 229.746 655.844 235.195 646.006C236.401 644.518 237.609 642.731 238.815 641.243C238.207 642.735 233.652 653.177 232.989 663.046C232.989 663.046 239.344 651.718 238.817 640.943C239.722 639.753 240.63 638.263 241.535 637.072C240.866 647.839 243.791 657.732 243.791 657.732C246.257 646.677 241.83 637.672 241.537 636.773C243.953 633.198 246.068 629.921 248.186 626.344C248.107 638.312 252.223 649.11 252.223 649.11C254.098 636.855 248.776 627.545 248.186 626.344C250.303 622.768 252.121 619.189 254.238 615.613C255.051 628.484 260.058 640.186 260.058 640.186C261.641 627.031 255.128 616.816 254.238 615.613C256.057 612.034 257.877 608.157 259.396 604.576C261.399 618.353 267.3 630.659 267.3 630.659C267.992 616.302 260.584 605.781 259.398 604.277C260.919 600.398 262.438 596.817 263.959 592.937C266.853 607.618 274.246 620.532 274.246 620.532C274.348 604.974 265.447 594.144 264.26 592.64C265.482 588.759 267.003 584.879 267.926 580.996C272.011 596.581 280.596 610.102 280.596 610.102C279.809 593.341 269.711 582.503 267.928 580.696C269.15 576.815 270.073 572.931 270.996 569.048C276.57 585.541 286.349 599.368 286.349 599.368C284.374 581.403 273.08 570.557 270.998 568.748C271.921 564.865 272.545 560.979 273.168 557.094C280.234 574.195 291.208 588.33 291.208 588.33C288.042 569.459 275.551 558.606 273.17 556.795C273.794 552.909 274.418 549.024 274.745 544.837C283.302 562.546 295.771 576.691 295.771 576.691C291.415 556.915 277.429 546.051 274.749 544.238C275.073 540.351 275.398 536.463 275.426 532.275C285.476 550.293 299.439 564.747 299.738 564.749C294.193 543.768 278.409 533.491 275.43 531.676C275.455 527.787 275.481 523.897 275.509 519.709C287.352 538.038 302.81 552.502 303.109 552.504C296.075 530.616 278.793 520.628 275.515 518.811C275.241 514.92 275.267 511.03 274.696 506.838C288.334 525.179 305.584 539.954 305.584 539.954C296.76 517.455 278.279 507.759 274.7 506.239C274.427 502.348 273.854 498.454 273.282 494.561C288.712 513.213 307.462 527.4 307.761 527.402C297.147 503.994 277.166 495.185 273.288 493.663C272.715 489.77 271.843 485.875 270.972 481.979C288.498 500.346 308.743 514.542 309.042 514.544C296.638 490.526 275.155 482.605 270.978 481.082C269.813 476.287 268.65 471.193 266.887 466.394C266.287 466.689 265.689 466.685 265.388 466.982C266.852 471.779 268.316 476.576 269.48 481.371C266.175 483.743 251.116 499.501 241.429 517.09Z" fill="#8bbb80"/>
<path d="M217.62 408.323C217.317 408.919 187.38 412.91 183.72 423.658C179.458 434.999 189.621 435.964 189.621 435.964C189.318 436.56 157.567 443.532 153.028 451.58C148.185 460.225 157.431 464.176 157.431 464.176C157.429 464.475 132.284 467.601 125.057 475.033C117.827 482.765 128.886 484.034 128.886 484.034C128.884 484.334 105.529 488.069 99.5141 493.116C93.4968 498.462 102.731 504.208 103.03 504.21C103.028 504.509 77.8851 507.335 73.6703 511.496C69.4515 516.256 75.1164 518.986 75.1164 518.986C75.1144 519.285 45.7743 523.58 46.5986 534.656C47.716 546.631 79.1754 538.461 78.8783 538.16C78.8783 538.16 74.3565 543.515 80.3244 545.649C86.5895 548.084 112.699 534.792 112.402 534.491C112.402 534.491 106.947 545.226 115.918 545.585C125.187 545.945 148.926 529.346 148.629 529.045C148.629 529.045 139.886 539.459 152.458 538.046C165.627 536.637 187.016 513.44 186.42 513.137C186.42 513.137 184.254 524.193 196.229 522.477C209.102 520.767 232.36 486.213 231.762 486.209C231.762 486.209 228.995 497.56 243.979 493.171C259.864 488.189 269.072 452.645 268.472 452.94C268.473 452.641 272.216 474.806 290.319 450.99C308.731 425.679 274.265 390.744 274.261 391.342C273.96 391.639 228.002 376.077 213.254 390.042C197.903 404.602 217.32 408.321 217.62 408.323Z" fill="#8bbb80"/>
<path opacity="0.07" d="M213.852 390.046C197.904 404.602 217.321 408.321 217.62 408.323C217.317 408.919 187.38 412.911 183.72 423.658C179.458 434.999 189.621 435.964 189.621 435.964C189.318 436.56 157.567 443.532 153.028 451.58C148.185 460.225 157.431 464.176 157.431 464.176C157.429 464.475 132.284 467.601 125.057 475.033C122.345 478.007 122.033 480.1 123.221 481.304C157.089 470.756 207.084 463.905 226.018 495.446C229.639 490.683 231.756 487.106 232.061 486.211L232.063 485.912C232.063 485.912 232.063 485.912 232.061 486.211C231.754 487.406 230.194 497.269 244.28 492.874C259.565 488.187 268.759 454.737 268.773 452.643C269.062 454.141 273.123 473.317 290.622 450.393C309.034 425.082 274.569 390.148 274.565 390.746C274.561 391.344 228.602 375.782 213.852 390.046Z" fill="#1F5148"/>
<path opacity="0.8" d="M201.349 426.467C215.699 427.459 230.655 427.258 245.918 425.863C228.441 445.495 208.585 463.017 187.251 477.837C172.59 478.638 158.238 477.944 144.189 476.655C157.035 478.834 170.189 479.819 183.945 480.208C162.011 495.323 138.301 507.733 113.114 517.142C112.516 517.138 111.32 517.13 109.826 516.821C107.436 516.506 104.146 516.484 100.858 516.163C97.5696 515.842 94.5788 515.823 91.889 515.506C89.4963 515.49 88.0028 515.181 88.0028 515.181C88.0028 515.181 89.4963 515.49 91.887 515.805C94.2777 516.12 97.2666 516.439 100.555 516.76C103.843 517.081 107.133 517.102 109.525 517.118C111.021 517.128 112.217 517.136 112.815 517.14C96.0229 523.612 78.9414 528.585 61.2716 532.059C90.9207 526.271 119.698 516.587 146.707 503.002C146.105 503.596 145.199 504.787 143.991 506.574C142.179 509.255 139.466 512.528 137.049 516.103C134.633 519.677 132.216 523.252 130.404 525.933C128.592 528.614 127.384 530.401 127.384 530.401C127.384 530.401 128.891 528.616 131.299 526.238C133.411 523.559 136.124 520.286 138.84 516.713C141.256 513.139 143.672 509.564 145.186 506.881C146.095 505.092 147.002 503.602 147.305 503.005C160.809 496.213 173.719 488.818 186.338 480.224C197.454 472.817 207.977 464.509 218.203 455.9C215.415 470.542 211.426 485.775 206.243 500.701C212.628 484.886 217.518 469.06 220.911 453.524C237.156 439.269 252.217 423.212 265.491 405.945C269.304 417.34 272.517 429.03 275.13 441.016C273.421 428.139 270.812 415.555 267.302 403.564C272.13 397.013 276.66 390.46 281.192 383.609C280.296 383.303 279.702 382.701 278.807 382.396C269.439 396.995 259.179 410.691 248.026 423.782C232.16 425.772 216.6 426.866 201.349 426.467Z" fill="#1F5148"/>
<path d="M215.41 199.165C215.111 199.163 246.229 197.274 272.403 219.587C270.642 214.489 268.879 209.691 267.116 204.892C261.14 203.955 234.256 198.691 211.297 187.768C210.998 187.766 240.63 184.67 266.823 203.992C264.761 199.191 262.699 194.39 260.637 189.59C254.958 188.954 228.957 185.79 206.587 176.367C206.288 176.365 234.434 171.764 260.344 188.69C257.983 183.887 255.62 179.384 253.256 174.88C248.172 174.846 223.058 173.185 200.977 165.26C200.678 165.258 227.035 159.747 252.664 173.978C250.002 169.473 247.34 164.967 244.678 160.462C239.89 160.729 216.26 160.873 194.47 154.147C194.171 154.145 219.039 147.726 244.085 159.56C241.124 155.053 238.161 150.844 235.198 146.636C230.707 147.205 208.264 148.852 187.361 143.628C187.361 143.628 210.141 136.298 234.603 146.033C231.341 141.823 228.079 137.613 224.814 133.702C220.623 134.272 199.665 137.425 179.652 133.404C179.652 133.404 200.941 125.466 224.517 133.4C221.253 129.489 217.689 125.576 213.827 121.661C210.232 122.535 190.465 126.593 171.341 123.774C171.341 123.774 190.839 115.226 213.53 121.36C209.966 117.447 206.102 113.831 202.238 110.215C198.942 111.091 180.664 116.057 162.429 114.44C162.429 114.44 180.434 105.583 201.641 109.912C197.777 106.296 193.613 102.678 189.448 99.3592C186.748 100.538 169.962 106.112 152.619 105.4C152.619 105.4 169.13 96.2332 189.151 99.058C184.985 95.7393 180.82 92.4206 176.353 89.3991C173.952 90.5801 158.658 96.7626 142.505 96.9553C142.505 96.9553 157.221 87.777 176.056 89.098C171.589 86.0765 167.123 83.055 162.656 80.0335C160.555 81.2165 147.05 88.0091 131.791 88.8061C131.791 88.8061 145.012 79.618 162.357 80.0315C157.591 77.0081 153.123 74.2858 148.054 71.8587C146.553 72.7465 134.243 79.8462 120.174 81.5486C120.174 81.5486 131.898 72.6498 147.755 71.8568C142.987 69.1325 137.919 66.7055 132.848 64.5776C131.947 65.1701 121.13 72.5788 107.957 74.5864C107.957 74.5864 118.183 65.9769 132.549 64.5757C130.76 63.6662 128.673 62.7549 126.882 62.1447C125.983 62.4379 112.201 65.9375 97.8549 64.3469C97.8549 64.3469 111.648 59.0522 126.583 62.1427C124.196 61.2293 121.811 60.0168 119.425 59.1034C119.722 59.4046 120.021 59.4066 120.318 59.7077C120.318 59.7077 104.181 57.5069 90.1674 50.8321C90.1674 50.8321 106.015 51.5349 119.126 59.1015C121.512 60.0148 124.198 60.9301 126.583 62.1427C124.796 60.9341 112.591 52.1767 104.886 41.3546C104.886 41.3546 120.084 49.8325 126.882 62.1447C128.671 63.0541 130.76 63.6662 132.549 64.5757C124.252 52.852 120.751 39.3648 120.751 39.3648C131.148 50.2046 132.557 63.3789 132.549 64.5757C137.62 66.7035 142.688 69.1305 147.456 71.8548C139.17 58.336 136.276 43.656 136.278 43.3568C146.964 55.6946 147.767 70.0616 147.755 71.8568C152.525 74.2819 157.292 77.0061 162.058 80.0296C154.083 64.7176 151.5 48.2444 151.5 48.2444C162.474 62.3793 162.072 77.9352 162.058 80.0296C166.826 82.7538 171.292 85.7753 175.757 89.096C168.093 71.9909 166.417 54.0276 166.417 54.0276C177.381 69.6585 176.072 86.7044 176.056 89.098C180.523 92.1194 184.688 95.4382 188.854 98.7569C181.8 79.8606 181.031 60.4073 181.031 60.4073C191.981 78.1325 189.47 96.0681 189.151 99.058C193.316 102.377 197.48 105.995 201.344 109.611C195.2 88.925 195.338 67.9817 195.338 67.9817C205.977 87.5001 202.261 106.625 201.641 109.912C205.506 113.528 209.37 117.144 213.233 121.059C207.997 98.5839 209.339 76.4517 209.339 76.4517C219.667 97.7632 214.449 118.075 213.528 121.659C217.091 125.572 220.655 129.485 224.218 133.398C220.189 109.436 222.737 85.8154 223.038 85.5181C232.754 108.92 226.034 130.119 224.814 133.702C228.378 137.615 231.64 141.825 234.603 146.033C232.081 120.285 236.133 95.4782 236.135 95.179C245.239 120.671 236.721 142.457 234.898 146.634C238.161 150.844 241.124 155.053 244.085 159.56C243.068 132.326 248.626 106.033 248.626 106.033C256.819 133.613 246.5 156.285 244.38 160.16C247.342 164.668 250.004 169.174 252.666 173.679C253.456 144.662 260.514 117.481 260.813 117.483C267.796 147.15 255.681 170.109 253.258 174.581C255.921 179.086 258.282 183.889 260.645 188.393C263.239 157.891 272.397 129.826 272.397 129.826C278.171 161.281 263.956 185.123 260.938 189.292C263.299 194.095 265.361 198.896 267.423 203.697C272.119 172.012 283.079 142.763 283.378 142.765C287.943 176.305 271.333 200.431 268.015 204.598C270.077 209.399 271.839 214.497 273.601 219.296C280.697 186.431 293.757 156.297 293.757 156.297C296.514 191.921 277.81 216.033 273.893 220.495C275.945 226.792 277.997 233.089 279.748 239.683C279.148 239.978 278.251 239.972 277.651 240.267C276.199 233.675 274.146 227.378 272.094 221.081C266.421 219.548 238.654 212.184 215.41 199.165Z" fill="#8bbb80"/>
<path opacity="0.82" d="M181.724 318.026C181.423 318.323 210.215 306.545 242.132 319.621C238.87 315.411 235.607 311.2 232.343 307.289C226.355 308.147 199.113 311.857 174.011 308.4C173.71 308.698 200.713 296.01 231.751 306.387C228.487 302.476 224.923 298.563 221.36 294.65C215.968 295.811 190.211 301.027 165.698 299.07C165.397 299.368 190.609 286.07 220.766 294.048C217.2 290.434 213.338 286.519 209.471 283.202C204.377 284.664 180.407 291.089 156.781 290.634C156.779 290.933 179.901 277.023 208.578 282.598C204.713 278.982 200.847 275.665 196.682 272.346C192.183 274.112 169.701 281.743 147.265 282.193C147.263 282.493 168.593 268.271 196.087 271.744C191.922 268.425 187.754 265.406 183.587 262.386C179.388 264.154 158.694 272.694 137.446 274.349C137.446 274.349 156.982 260.116 182.993 261.784C178.825 258.764 174.358 255.743 169.89 253.021C166.287 255.091 147.084 264.24 127.028 266.801C127.028 266.801 144.769 252.556 169.593 252.719C165.124 249.997 160.656 247.275 155.886 244.85C152.582 246.922 135.17 256.681 116.304 260.147C116.304 260.147 132.25 245.891 155.589 244.549C150.819 242.124 146.05 239.698 141.278 237.573C138.573 239.649 122.652 250.016 104.978 254.089C104.978 254.089 119.429 239.822 140.981 237.271C136.209 235.146 131.139 233.018 126.066 231.189C123.662 232.968 109.534 243.646 93.0502 248.624C93.0502 248.624 105.705 234.645 125.767 231.187C120.694 229.358 115.622 227.53 110.547 226C108.741 227.784 96.1081 238.472 80.8192 243.756C80.8192 243.756 91.9742 230.366 110.248 225.998C105.173 224.469 99.7997 222.937 94.7232 221.707C93.2179 223.193 82.3777 234.192 68.2832 239.784C68.2832 239.784 77.9388 226.982 94.7232 221.707C89.3475 220.475 83.9718 219.243 78.5941 218.309C77.3879 219.797 68.0472 230.208 55.147 236.107C55.147 236.107 63.6023 223.895 78.2951 218.307C72.9174 217.374 67.5398 216.441 61.8611 215.805C61.257 216.699 53.1126 227.117 41.4067 233.324C41.4067 233.324 48.3627 221.701 61.562 215.803C59.4703 215.49 57.3767 215.477 55.2851 215.164C54.3839 215.756 42.3691 223.456 28.2923 226.355C28.2923 226.355 39.7187 217.155 54.986 215.162C52.2962 214.845 49.9035 214.829 47.2137 214.512C47.5128 214.514 47.8119 214.516 48.109 214.817C48.109 214.817 32.2356 218.004 16.6969 215.807C16.6969 215.807 31.98 211.42 46.9146 214.51C49.6064 214.528 52.2962 214.845 54.986 215.162C52.8963 214.55 38.5678 210.266 27.8519 202.416C27.8519 202.416 44.8782 205.82 55.2851 215.164C57.3787 215.178 59.4703 215.49 61.562 215.803C49.9528 207.349 42.5526 195.632 42.5526 195.632C55.667 202.6 61.2708 214.605 61.8611 215.805C67.2407 216.439 72.9194 217.075 78.297 218.008C66.1015 207.755 58.7112 194.541 58.7112 194.541C72.715 202.712 78.0078 216.51 78.5961 218.01C83.9738 218.943 89.3514 219.876 94.7271 221.109C82.2444 209.058 74.8638 194.349 74.8638 194.349C89.454 204.318 94.4398 219.312 95.0262 221.111C100.402 222.343 105.476 223.872 110.85 225.404C98.3793 211.558 91.0106 195.053 91.0106 195.053C106.488 206.525 110.567 223.008 111.149 225.406C116.224 226.935 121.297 228.764 126.369 230.593C113.91 214.952 106.852 196.654 106.852 196.654C122.617 209.923 126.088 227.898 126.668 230.595C131.741 232.423 136.512 234.549 141.583 236.677C129.437 218.944 122.987 199.154 122.987 199.154C139.338 214.222 141.603 233.685 142.179 236.98C146.951 239.106 151.721 241.531 156.49 243.956C144.655 224.43 138.815 202.849 138.817 202.55C155.155 219.712 156.811 240.667 156.789 243.958C161.559 246.383 166.027 249.105 170.795 251.83C159.572 230.213 154.641 206.843 154.641 206.843C171.264 226.101 171.417 248.243 171.391 252.133C175.86 254.855 180.326 257.877 184.795 260.599C174.184 236.892 170.16 212.032 170.459 212.033C187.068 233.386 185.716 257.015 185.389 261.201C189.856 264.223 194.023 267.242 198.189 270.561C188.487 245.065 185.671 218.417 185.972 218.12C202.268 241.565 199.712 266.382 199.084 270.866C203.25 274.185 207.116 277.502 211.28 281.119C202.788 253.537 201.178 225.401 201.48 225.104C217.461 250.941 213.102 276.943 212.173 281.724C216.037 285.34 219.902 288.956 223.467 292.57C216.484 262.902 216.082 233.279 216.383 232.981C231.75 261.208 225.59 288.095 224.361 293.174C227.926 296.788 231.489 300.701 235.051 304.913C229.575 273.461 230.979 242.054 230.979 242.054C245.732 272.67 237.473 300.441 235.643 305.815C239.206 309.728 242.469 313.938 245.432 318.147C241.765 284.612 244.672 252.018 244.971 252.02C258.811 285.023 248.452 313.678 246.323 319.05C250.475 324.463 254.029 329.872 257.879 335.582C257.279 335.878 256.677 336.472 256.077 336.767C252.525 331.059 248.673 325.648 244.82 320.237C236.44 321.079 207.713 322.984 181.724 318.026Z" fill="#8bbb80"/>
<path d="M230.88 257.013C230.585 256.413 200.704 252.027 197.186 241.233C193.074 229.836 203.249 229.005 203.249 229.005C202.954 228.405 171.298 221.015 166.865 212.908C162.137 204.199 171.434 200.371 171.434 200.371C171.436 200.072 146.336 196.316 139.205 189.088C132.079 181.262 143.153 180.138 143.153 180.138C143.155 179.839 119.852 175.796 113.903 170.67C107.957 165.245 117.266 159.622 117.565 159.624C117.567 159.324 92.4638 156.167 88.3042 151.95C84.1486 147.136 89.849 144.481 89.849 144.481C89.8509 144.181 60.57 139.5 61.5403 128.436C62.8155 116.476 94.1644 125.061 93.8634 125.358C93.8634 125.358 89.4126 119.943 95.4081 117.888C101.705 115.536 127.637 129.171 127.335 129.468C127.335 129.468 122.023 118.662 130.998 118.422C140.271 118.184 163.789 135.094 163.488 135.392C163.488 135.392 154.883 124.863 167.435 126.442C180.585 128.024 201.666 151.501 201.066 151.796C201.066 151.796 199.045 140.713 210.997 142.587C223.846 144.466 246.647 179.324 246.049 179.32C246.049 179.32 243.432 167.934 258.357 172.52C274.175 177.711 282.913 213.374 282.316 213.07C282.314 213.37 286.348 191.255 304.136 215.309C322.213 240.86 287.29 275.337 287.294 274.739C286.996 274.438 240.836 289.393 226.274 275.234C211.117 260.473 230.583 256.712 230.88 257.013Z" fill="#8bbb80"/>
<path opacity="0.05" d="M226.872 275.238C211.117 260.474 230.581 257.011 230.881 257.013C230.585 256.413 200.704 252.027 197.186 241.233C193.074 229.836 203.249 229.005 203.249 229.005C202.954 228.405 171.298 221.015 166.865 212.908C162.137 204.2 171.434 200.371 171.434 200.371C171.436 200.072 146.336 196.316 139.206 189.088C136.534 186.078 136.248 183.982 137.452 182.793C171.178 193.787 221.079 201.297 240.427 170.008C243.985 174.819 246.055 178.423 246.348 179.322L246.346 179.622C246.346 179.622 246.346 179.622 246.348 179.322C246.057 178.124 244.626 168.241 258.654 172.821C273.876 177.709 282.627 211.277 282.614 213.372C282.922 211.878 287.236 192.757 304.431 215.909C322.508 241.461 287.585 275.938 287.589 275.339C287.595 274.442 241.734 289.399 226.872 275.238Z" fill="#1F5148"/>
<path opacity="0.8" d="M215.151 238.359C229.513 237.556 244.466 237.954 259.709 239.55C242.493 219.689 222.869 201.907 201.733 186.807C187.083 185.813 172.723 186.317 158.658 187.421C171.533 185.412 184.698 184.601 198.458 184.392C176.726 168.99 153.181 156.268 128.12 146.528C127.522 146.524 126.326 146.516 124.829 146.806C122.434 147.089 119.144 147.067 115.852 147.345C112.56 147.622 109.569 147.603 106.875 147.884C104.483 147.868 102.985 148.158 102.985 148.158C102.985 148.158 104.483 147.868 106.877 147.585C109.272 147.301 112.265 147.022 115.557 146.744C118.849 146.467 122.139 146.489 124.531 146.504C126.027 146.514 127.223 146.522 127.821 146.526C111.116 139.833 94.1015 134.635 76.479 130.928C106.049 137.107 134.696 147.17 161.524 161.11C160.929 160.508 160.04 159.305 158.855 157.502C157.079 154.798 154.409 151.489 152.04 147.883C149.671 144.277 147.302 140.67 145.525 137.966C143.748 135.261 142.563 133.458 142.563 133.458C142.563 133.458 144.049 134.964 146.424 137.673C148.5 140.379 151.17 143.688 153.838 147.296C156.207 150.902 158.576 154.508 160.054 157.211C160.939 159.012 161.827 160.514 162.122 161.114C175.535 168.084 188.347 175.649 200.851 184.408C211.868 191.961 222.281 200.407 232.393 209.151C229.798 194.473 226.01 179.188 221.024 164.195C227.2 180.094 231.881 195.982 235.069 211.562C251.125 226.03 265.972 242.284 279.018 259.724C282.981 248.381 286.348 236.734 289.119 224.784C287.239 237.637 284.465 250.186 280.797 262.13C285.539 268.743 289.982 275.355 294.422 282.266C293.523 282.559 292.921 283.154 292.022 283.447C282.847 268.726 272.769 254.896 261.789 241.658C245.951 239.46 230.106 238.458 215.151 238.359Z" fill="#1F5148"/>
<path d="M290.702 483.605C290.702 483.605 318.608 560.685 198.321 613.449C198.323 613.15 199.167 485.096 290.702 483.605Z" fill="#8bbb80"/>
<path opacity="0.1" d="M233.107 508.957C256.349 522.275 255.54 554.285 249.967 582.972C309.504 535.192 290.702 483.605 290.702 483.605C264.976 484.034 246.364 494.384 233.107 508.957Z" fill="#1A7F72"/>
<path opacity="0.4" d="M220.978 534.01L256.908 528.263L229.726 568.177L209.366 571.334L228.518 569.964L220.362 582.178L219.763 582.174L219.759 582.772L206.774 601.537L219.752 583.969L220.251 598.933L221.558 582.186L221.259 582.184L244.799 550.324L245.501 579.95L246.609 547.943L275.582 508.639C275.578 509.237 275.576 509.536 275.572 510.135C275.544 514.324 275.509 519.709 275.473 525.094C275.402 535.865 275.329 546.935 275.329 546.935C275.329 546.935 275.998 536.168 276.371 525.1C276.705 519.717 277.04 514.333 277.067 510.145C277.077 508.649 277.386 507.155 277.394 505.958L292.788 484.816L288.62 481.797L258.419 525.88L220.978 534.01Z" fill="#1F5148"/>
<path d="M274.615 156.171C274.615 156.171 328.858 94.8925 236.453 1.53023C236.154 1.52826 189.904 120.905 274.615 156.171Z" fill="#8bbb80"/>
<path opacity="0.05" d="M230.347 110.998C256.693 107.282 267.958 77.1371 273.232 48.4484C311.079 114.822 274.617 155.871 274.617 155.871C250.753 146.14 237.403 129.595 230.347 110.998Z" fill="#1F5148"/>
<path opacity="0.4" d="M228.136 83.457L259.42 101.915L248.664 54.8689L230.788 44.2789L248.081 52.4714L244.886 38.0886L244.589 37.7875L244.892 37.191L239.654 15.0155L245.199 35.9962L250.972 22.2709L246.08 38.3957L245.783 38.0945L255.999 76.4599L267.544 49.3085L256.876 79.4577L269.427 126.515C269.728 126.218 269.732 125.62 270.035 125.023C271.556 121.144 273.385 116.069 275.512 110.997C279.467 100.85 283.422 90.7033 283.422 90.7033C283.422 90.7033 280.065 100.854 276.407 111.302C274.579 116.376 273.048 121.752 271.828 125.334C271.22 126.826 270.911 128.32 270.606 129.216L277.319 154.393L272.227 155.557L260.308 103.417L228.136 83.457Z" fill="#1F5148"/>
<path d="M230.974 333.61C230.974 333.61 217.939 269.195 113.76 283.169C113.76 283.169 167.32 370.591 230.974 333.61Z" fill="#8bbb80"/>
<path opacity="0.1" d="M180.683 339.861C190.977 321.079 177.361 299.446 161.322 282.286C221.988 290.166 230.674 333.608 230.674 333.608C212.959 343.963 195.907 344.449 180.683 339.861Z" fill="#1A7F72"/>
<path opacity="0.6" d="M162.217 328.07L189.208 317.177L154.018 301.387L138.723 307.569L152.23 300.477L141.494 295.619L141.193 295.917L140.898 295.316L124.198 287.726L140.306 294.415L134.393 283.904L142.397 294.728L142.096 295.025L171.328 307.186L159.498 286.762L173.715 308.099L209.807 322.998C209.51 322.697 209.512 322.398 209.215 322.097C207.438 319.392 205.071 315.487 203.001 311.883C198.564 304.373 193.826 297.161 193.826 297.161C193.826 297.161 198.564 304.373 203.602 311.587C205.971 315.194 208.639 318.802 210.415 321.506C211.307 322.41 211.899 323.311 212.192 324.211L231.582 332.118L230.06 335.997L190.995 318.386L162.217 328.07Z" fill="#1F5148"/>
<path d="M137.157 454.468C137.157 454.468 110.694 521.315 1.15603 486.184C1.15603 486.184 75.8859 402.302 137.157 454.468Z" fill="#8bbb80"/>
<path opacity="0.2" d="M27.3304 463.019C55.4978 455.126 81.5026 457.691 104.642 486.567C129.25 474.163 137.156 454.468 137.156 454.468C98.4902 421.6 54.6814 442.853 27.3304 463.019Z" fill="#1A7F72"/>
<path opacity="0.6" d="M61.8301 447.389L88.9365 464.323L47.8906 474.824L32.4011 465.147L45.793 475.408L33.2096 478.616L32.9125 478.315L32.6115 478.612L13.1372 483.571L32.0074 479.506L23.8649 489.625L34.4001 479.522L34.1029 479.221L67.9491 471.964L51.3671 491.901L70.6429 471.682L112.576 462.684C112.275 462.981 111.974 463.278 111.673 463.575C109.263 466.252 105.949 469.821 102.934 473.391C96.6063 480.53 90.2781 487.67 90.2781 487.67C90.2781 487.67 96.9034 480.832 103.529 473.994C106.84 470.724 110.154 467.156 112.862 464.78C113.765 463.888 114.668 462.997 115.27 462.402L137.735 457.464L136.568 452.968L91.0301 464.337L61.8301 447.389Z" fill="#1F5148"/>
</svg>
