<svg width="1920" height="1100" viewBox="0 0 1920 1100" fill="none" xmlns="http://www.w3.org/2000/svg">
<g opacity="0.09" clip-path="url(#clip0_43:77)">
<path d="M5.88815 154.583C5.88815 154.583 -33.6219 72.1406 95.2403 0.736617C95.2403 0.736617 108.326 143.236 5.88815 154.583Z" fill="url(#paint0_linear_43:77)"/>
<path opacity="0.08" d="M67.8615 120.077C40.5348 107.713 37.385 72.2107 41.0677 39.6778C-20.61 98.9722 5.88824 154.583 5.88824 154.583C34.8058 151.408 54.4994 137.954 67.8615 120.077Z" fill="#1F5148"/>
<path opacity="0.8" d="M78.3731 90.9996L38.6256 101.38L64.9477 54.4447L87.5184 48.7895L66.4357 52.0263L74.3848 37.5087L74.8744 37.5126L74.8782 37.0266L87.2952 14.768L74.8897 35.5687L72.5707 19.0267L72.9119 37.9832L73.4016 37.987L50.5796 75.716L46.9172 43.1255L48.598 78.6164L20.3211 125.051C20.3249 124.565 20.3287 124.079 20.3325 123.593C19.8771 119.215 19.4369 112.894 18.9929 107.058C18.1087 94.9014 16.7349 82.7408 16.7349 82.7408C16.7349 82.7408 17.1294 94.8938 18.0135 107.051C17.9679 112.882 18.4081 119.204 18.3738 123.577C18.3586 125.521 18.3471 126.979 18.3395 127.951L3.45131 153.106L8.32522 156.06L37.6272 103.802L78.3731 90.9996Z" fill="#1F5148"/>
</g>
<g opacity="0.09" clip-path="url(#clip1_43:77)">
<path d="M6.2295 154.819C6.2295 154.819 -4.88375 64.076 140.034 37.5628C140.034 37.5628 106.927 176.779 6.2295 154.819Z" fill="url(#paint1_linear_43:77)"/>
<path opacity="0.08" d="M75.9772 141.911C54.0298 121.468 62.3826 86.8184 76.2618 57.1651C-1.12183 93.658 6.22953 154.819 6.22953 154.819C34.6469 161.045 57.6057 154.585 75.9772 141.911Z" fill="#1F5148"/>
<path opacity="0.8" d="M95.2242 117.713L54.243 114.857L94.1755 78.7848L117.37 80.6337L96.3579 76.9683L108.527 65.7494L108.99 65.9094L109.149 65.4501L128.024 48.3224L109.625 64.0722L112.71 47.6558L106.98 65.7286L107.442 65.8887L73.7668 94.3538L80.7039 62.3004L70.9628 96.4696L29.3378 131.442C29.4966 130.983 29.6554 130.524 29.8142 130.064C30.7806 125.77 32.3822 119.64 33.825 113.968C36.8694 102.165 39.4509 90.2026 39.4509 90.2026C39.4509 90.2026 35.9437 101.845 32.8994 113.648C30.9938 119.159 29.3922 125.29 27.963 129.424C27.3278 131.261 26.8514 132.639 26.5338 133.558L4.39189 152.641L8.06719 156.997L52.5234 116.833L95.2242 117.713Z" fill="#1F5148"/>
</g>
<g opacity="0.09" clip-path="url(#clip2_43:77)">
<path d="M1903.23 994.933C1903.23 994.933 1812.58 1006.82 1784.84 862.13C1784.84 862.13 1924.33 894.053 1903.23 994.933Z" fill="url(#paint2_linear_43:77)"/>
<path opacity="0.08" d="M1889.73 925.298C1869.47 947.418 1834.75 939.36 1804.98 925.733C1842.13 1002.8 1903.23 994.933 1903.23 994.933C1909.21 966.464 1902.56 943.561 1889.73 925.298Z" fill="#1F5148"/>
<path opacity="0.8" d="M1865.37 906.257L1862.86 947.261L1826.45 907.636L1828.1 884.426L1824.61 905.469L1813.29 893.396L1813.45 892.932L1812.99 892.777L1795.7 874.048L1811.61 892.312L1795.16 889.366L1813.28 894.943L1813.44 894.479L1842.19 927.912L1810.08 921.247L1844.33 930.698L1879.65 972.024C1879.19 971.869 1878.73 971.714 1878.27 971.559C1873.97 970.629 1867.83 969.08 1862.14 967.685C1850.32 964.741 1838.33 962.262 1838.33 962.262C1838.33 962.262 1850 965.67 1861.83 968.614C1867.36 970.472 1873.5 972.022 1877.65 973.416C1879.49 974.035 1880.87 974.5 1881.79 974.81L1901.07 996.789L1905.39 993.077L1864.85 948.963L1865.37 906.257Z" fill="#1F5148"/>
</g>
<g opacity="0.09" clip-path="url(#clip3_43:77)">
<path d="M1903.56 994.682C1903.56 994.682 1813.86 976.996 1833.78 831.025C1833.78 831.025 1955.77 905.824 1903.56 994.682Z" fill="url(#paint3_linear_43:77)"/>
<path opacity="0.08" d="M1913 924.381C1886.74 938.875 1856.41 920.151 1832.56 897.731C1843.15 982.629 1903.56 994.682 1903.56 994.682C1918.32 969.614 1919.33 945.785 1913 924.381Z" fill="#1F5148"/>
<path opacity="0.8" d="M1896 898.558L1880.53 936.614L1858.68 887.437L1867.65 865.97L1857.63 884.798L1850.76 869.741L1851.05 869.351L1850.67 869.057L1840.26 845.788L1849.5 868.175L1834.86 860.133L1850.26 871.205L1850.55 870.815L1867.12 911.678L1838.82 895.108L1868.26 915.001L1888.54 965.445C1888.15 965.151 1887.76 964.857 1887.37 964.563C1883.59 962.308 1878.27 958.878 1873.33 955.741C1863.06 949.174 1852.49 942.997 1852.49 942.997C1852.49 942.997 1862.47 949.954 1872.73 956.521C1877.38 960.048 1882.71 963.478 1886.19 966.123C1887.74 967.299 1888.9 968.18 1889.67 968.768L1900.92 995.75L1906.2 993.614L1881.87 938.864L1896 898.558Z" fill="#1F5148"/>
</g>
<g opacity="0.09" clip-path="url(#clip4_43:77)">
<path d="M1902.84 993.877C1902.84 993.877 1826.44 1044.09 1738.4 925.964C1738.4 925.964 1877.86 893.887 1902.84 993.877Z" fill="url(#paint4_linear_43:77)"/>
<path opacity="0.08" d="M1860.33 937.091C1851.75 965.829 1816.99 973.712 1784.25 974.425C1851.28 1027.59 1902.84 993.877 1902.84 993.877C1895.81 965.647 1879.84 947.935 1860.33 937.091Z" fill="#1F5148"/>
<path opacity="0.8" d="M1830.11 930.574L1845.73 968.57L1795.68 948.78L1787.05 927.172L1793.09 947.63L1777.64 941.7L1777.57 941.214L1777.09 941.275L1753.37 931.955L1775.65 941.459L1759.56 945.976L1778.3 943.096L1778.24 942.61L1818.69 960.166L1786.89 968.166L1821.83 961.741L1871.64 983.535C1871.16 983.597 1870.67 983.658 1870.19 983.719C1865.91 984.758 1859.71 986.042 1853.99 987.264C1842.06 989.771 1830.19 992.763 1830.19 992.763C1830.19 992.763 1842.18 990.742 1854.11 988.236C1859.89 987.499 1866.1 986.215 1870.44 985.662C1872.37 985.417 1873.81 985.233 1874.78 985.11L1901.7 996.49L1903.98 991.264L1848.26 969.235L1830.11 930.574Z" fill="#1F5148"/>
</g>
<g opacity="0.07" clip-path="url(#clip5_43:77)">
<path d="M747.098 863.32C747.098 863.32 756.337 790.553 874.275 798.49C874.275 798.49 821.09 900.245 747.098 863.32Z" fill="url(#paint5_linear_43:77)"/>
<path opacity="0.08" d="M803.89 867.026C790.849 846.801 804.173 821.497 820.812 801.169C753.434 814.302 747.098 863.321 747.098 863.321C767.974 873.763 787.103 873.263 803.89 867.026Z" fill="#1F5148"/>
<path opacity="0.8" d="M823.628 851.998L792.317 841.701L830.484 821.514L848.16 827.523L832.54 820.532L844.215 814.204L844.544 814.42L844.758 814.094L862.814 804.492L845.4 813.116L851.035 800.956L843.016 813.883L843.345 814.099L811.543 829.602L823.255 806.038L808.945 830.695L769.678 849.692C769.892 849.366 770.106 849.04 770.32 848.714C771.918 845.565 774.372 841.112 776.612 836.986C781.306 828.406 785.671 819.61 785.671 819.61C785.671 819.61 780.649 827.974 775.955 836.554C773.387 840.465 770.933 844.918 769.007 847.852C768.151 849.156 767.508 850.133 767.08 850.785L746.098 861.264L748.098 865.377L790.59 842.899L823.628 851.998Z" fill="#1F5148"/>
</g>
<g opacity="0.07" clip-path="url(#clip6_43:77)">
<path d="M1778.23 191.924C1778.23 191.924 1767.52 144.352 1843.02 122.591C1843.02 122.591 1832.84 198.236 1778.23 191.924Z" fill="url(#paint6_linear_43:77)"/>
<path opacity="0.08" d="M1814.56 181.372C1801.83 171.686 1804.42 152.853 1810.22 136.378C1771.08 159.853 1778.23 191.924 1778.23 191.924C1793.64 193.72 1805.48 189.073 1814.56 181.372Z" fill="#1F5148"/>
<path opacity="0.8" d="M1823.49 167.508L1801.59 168.166L1820.87 146.903L1833.28 146.653L1821.93 145.823L1827.8 139.223L1828.05 139.283L1828.11 139.031L1837.22 128.939L1828.29 138.274L1829.06 129.397L1826.97 139.294L1827.23 139.354L1810.87 156.249L1812.85 138.868L1809.49 157.52L1789.25 178.291C1789.31 178.038 1789.37 177.786 1789.43 177.534C1789.72 175.204 1790.24 171.865 1790.71 168.778C1791.7 162.352 1792.43 155.866 1792.43 155.866C1792.43 155.866 1791.19 162.232 1790.2 168.657C1789.48 171.684 1788.96 175.023 1788.42 177.293C1788.18 178.301 1788 179.058 1787.88 179.562L1777.14 190.866L1779.32 192.983L1800.78 169.307L1823.49 167.508Z" fill="#1F5148"/>
</g>
<g opacity="0.04" clip-path="url(#clip7_43:77)">
<path d="M1089.13 313.713C1089.13 313.713 1046.46 369.124 953.265 305.765C953.265 305.765 1046.05 247.683 1089.13 313.713Z" fill="url(#paint7_linear_43:77)"/>
<path opacity="0.08" d="M1044.19 283.299C1045.18 306.222 1022.02 320.617 998.538 329.323C1060.3 350.986 1089.13 313.713 1089.13 313.713C1076.99 295.063 1061.01 286.257 1044.19 283.299Z" fill="#1F5148"/>
<path opacity="0.8" d="M1020.71 286.151L1041.51 309.71L1000.38 307.925L988.738 294.464L998.22 307.743L985.566 307.323L985.399 306.987L985.066 307.152L965.586 306.351L984.067 307.647L973.572 314.936L986.398 308.165L986.231 307.829L1019.86 310.399L998.874 324.14L1022.53 310.752L1063.98 314.044C1063.65 314.209 1063.32 314.374 1062.99 314.539C1060.15 316.36 1055.99 318.84 1052.16 321.156C1044.16 325.953 1036.33 331.085 1036.33 331.085C1036.33 331.085 1044.49 326.624 1052.49 321.827C1056.49 319.847 1060.65 317.367 1063.65 315.882C1064.98 315.221 1065.98 314.726 1066.65 314.396L1088.96 315.886L1089.3 311.539L1043.51 309.556L1020.71 286.151Z" fill="#1F5148"/>
</g>
<g opacity="0.05" clip-path="url(#clip8_43:77)">
<path d="M1807.19 100.586C1807.19 100.586 1764.53 155.997 1671.33 92.6386C1671.33 92.6386 1764.12 34.5567 1807.19 100.586Z" fill="url(#paint8_linear_43:77)"/>
<path opacity="0.08" d="M1762.26 70.1725C1763.24 93.0951 1740.09 107.49 1716.61 116.196C1778.36 137.859 1807.19 100.586 1807.19 100.586C1795.05 81.9367 1779.07 73.1302 1762.26 70.1725Z" fill="#1F5148"/>
<path opacity="0.8" d="M1738.78 73.0239L1759.58 96.5828L1718.45 94.7982L1706.81 81.3376L1716.29 94.6163L1703.63 94.1958L1703.47 93.8602L1703.13 94.0252L1683.65 93.2239L1702.13 94.5202L1691.64 101.809L1704.47 95.0378L1704.3 94.7022L1737.93 97.2722L1716.94 111.013L1740.59 97.6249L1782.05 100.917C1781.72 101.082 1781.39 101.247 1781.05 101.412C1778.22 103.233 1774.06 105.714 1770.23 108.029C1762.23 112.826 1754.4 117.958 1754.4 117.958C1754.4 117.958 1762.56 113.497 1770.56 108.701C1774.56 106.721 1778.72 104.24 1781.72 102.755C1783.05 102.095 1784.05 101.6 1784.72 101.27L1807.03 102.759L1807.36 98.4126L1761.58 96.4291L1738.78 73.0239Z" fill="#1F5148"/>
</g>
<g opacity="0.06" clip-path="url(#clip9_43:77)">
<path d="M155.966 921.943C155.966 921.943 126.217 960.581 61.2318 916.402C61.2318 916.402 125.929 875.902 155.966 921.943Z" fill="url(#paint9_linear_43:77)"/>
<path opacity="0.08" d="M124.634 900.736C125.319 916.72 109.174 926.758 92.7996 932.828C135.862 947.933 155.966 921.943 155.966 921.943C147.5 908.939 136.359 902.799 124.634 900.736Z" fill="#1F5148"/>
<path opacity="0.8" d="M108.262 902.725L122.763 919.152L94.0872 917.908L85.9667 908.522L92.578 917.781L83.7545 917.487L83.6385 917.253L83.4063 917.368L69.8228 916.81L82.7094 917.714L75.3915 922.796L84.3346 918.075L84.2186 917.841L107.67 919.633L93.0343 929.214L109.527 919.878L138.435 922.174C138.203 922.289 137.97 922.404 137.738 922.519C135.763 923.789 132.86 925.519 130.188 927.133C124.613 930.478 119.154 934.057 119.154 934.057C119.154 934.057 124.845 930.946 130.42 927.602C133.207 926.221 136.111 924.491 138.202 923.456C139.131 922.995 139.828 922.65 140.292 922.42L155.849 923.459L156.083 920.428L124.157 919.045L108.262 902.725Z" fill="#1F5148"/>
</g>
<defs>
<linearGradient id="paint0_linear_43:77" x1="642.894" y1="109.476" x2="-1384.49" y2="-0.820673" gradientUnits="userSpaceOnUse">
<stop stop-color="#41CBB9"/>
<stop offset="1" stop-color="#3EB29D"/>
</linearGradient>
<linearGradient id="paint1_linear_43:77" x1="624.286" y1="315.5" x2="-1261.72" y2="-436.462" gradientUnits="userSpaceOnUse">
<stop stop-color="#41CBB9"/>
<stop offset="1" stop-color="#3EB29D"/>
</linearGradient>
<linearGradient id="paint2_linear_43:77" x1="2058.65" y1="375.534" x2="1322.74" y2="2267.86" gradientUnits="userSpaceOnUse">
<stop stop-color="#41CBB9"/>
<stop offset="1" stop-color="#3EB29D"/>
</linearGradient>
<linearGradient id="paint3_linear_43:77" x1="2248.65" y1="457.351" x2="946.959" y2="2015.57" gradientUnits="userSpaceOnUse">
<stop stop-color="#41CBB9"/>
<stop offset="1" stop-color="#3EB29D"/>
</linearGradient>
<linearGradient id="paint4_linear_43:77" x1="1772.71" y1="368.674" x2="1935.29" y2="2392.54" gradientUnits="userSpaceOnUse">
<stop stop-color="#41CBB9"/>
<stop offset="1" stop-color="#3EB29D"/>
</linearGradient>
<linearGradient id="paint5_linear_43:77" x1="1196.14" y1="1110.09" x2="-122.55" y2="153.564" gradientUnits="userSpaceOnUse">
<stop stop-color="#41CBB9"/>
<stop offset="1" stop-color="#3EB29D"/>
</linearGradient>
<linearGradient id="paint6_linear_43:77" x1="2114.79" y1="244.409" x2="1073.9" y2="-54.6144" gradientUnits="userSpaceOnUse">
<stop stop-color="#41CBB9"/>
<stop offset="1" stop-color="#3EB29D"/>
</linearGradient>
<linearGradient id="paint7_linear_43:77" x1="838.627" y1="-105.671" x2="1462.55" y2="1316.65" gradientUnits="userSpaceOnUse">
<stop stop-color="#41CBB9"/>
<stop offset="1" stop-color="#3EB29D"/>
</linearGradient>
<linearGradient id="paint8_linear_43:77" x1="1556.69" y1="-318.798" x2="2180.62" y2="1103.52" gradientUnits="userSpaceOnUse">
<stop stop-color="#41CBB9"/>
<stop offset="1" stop-color="#3EB29D"/>
</linearGradient>
<linearGradient id="paint9_linear_43:77" x1="-18.7034" y1="629.514" x2="416.351" y2="1621.27" gradientUnits="userSpaceOnUse">
<stop stop-color="#41CBB9"/>
<stop offset="1" stop-color="#3EB29D"/>
</linearGradient>
<clipPath id="clip0_43:77">
<rect width="156" height="95" fill="white" transform="translate(0 155.995) rotate(-89.5512)"/>
</clipPath>
<clipPath id="clip1_43:77">
<rect width="156" height="95" fill="white" transform="translate(0.19873 154.277) rotate(-70.9277)"/>
</clipPath>
<clipPath id="clip2_43:77">
<rect width="156" height="95" fill="white" transform="translate(1902.74 1000.97) rotate(-161.414)"/>
</clipPath>
<clipPath id="clip3_43:77">
<rect width="156" height="95" fill="white" transform="translate(1901.16 1000.24) rotate(-142.791)"/>
</clipPath>
<clipPath id="clip4_43:77">
<rect width="156" height="95" fill="white" transform="translate(1905.03 999.523) rotate(172.742)"/>
</clipPath>
<clipPath id="clip5_43:77">
<rect width="125.167" height="76.2233" fill="white" transform="translate(742.515 861.71) rotate(-56.7094)"/>
</clipPath>
<clipPath id="clip6_43:77">
<rect width="83.2089" height="50.6721" fill="white" transform="translate(1775 191.956) rotate(-76.637)"/>
</clipPath>
<clipPath id="clip7_43:77">
<rect width="119.333" height="72.6707" fill="white" transform="translate(1092.12 317.246) rotate(153.649)"/>
</clipPath>
<clipPath id="clip8_43:77">
<rect width="119.333" height="72.6707" fill="white" transform="translate(1810.19 104.12) rotate(153.649)"/>
</clipPath>
<clipPath id="clip9_43:77">
<rect width="83.2089" height="50.6721" fill="white" transform="translate(158.055 924.407) rotate(153.649)"/>
</clipPath>
</defs>
</svg>
