<svg width="688" height="770" viewBox="0 0 688 770" fill="#73a24e" xmlns="http://www.w3.org/2000/svg">
<path opacity="1" d="M624.23 271.345C479.455 202.452 415.592 390.844 315.761 421.841C216.017 467.188 119.838 414.111 60.4514 459.609C-33.6833 531.729 7.63344 657.898 67.8968 710.985C154.317 787.115 307.895 759.715 466.635 677.397C665.517 574.263 751.173 331.752 624.23 271.345Z" fill="#73a24e"/>
<path opacity="1" d="M159.501 72.7449C164.501 85.2449 149.501 104.745 128.001 111.245C109.501 116.838 91.5008 116.245 86.5008 103.245C82.0777 91.7449 96.0008 79.2449 112.001 72.7449C128.001 66.2449 154.501 60.2449 159.501 72.7449Z" fill="#73a24e"/>
<path opacity="1" d="M323 47.2449C319.109 37.3053 332.816 14.1107 349.802 9.04343C364.419 4.68322 378.111 -5.59144 382 4.74489C385.44 13.8886 374.909 34.5695 362.26 39.6599C349.612 44.7503 326.891 57.1845 323 47.2449Z" fill="#73a24e"/>
<path opacity="1" d="M311.792 539.46C307.901 529.521 319.816 514.111 336.802 509.043C351.419 504.683 365.614 505.229 369.503 515.566C372.944 524.709 361.908 534.569 349.26 539.66C336.612 544.75 315.684 549.4 311.792 539.46Z" fill="#73a24e"/>
<path opacity="1" d="M487.576 488.794C479.482 469.765 505.282 427.48 540.577 417.795C570.946 409.461 619.986 426.505 628.076 446.294C635.233 463.8 588.357 460.905 562.078 470.638C535.799 480.371 495.671 507.824 487.576 488.794Z" fill="#73a24e"/>
</svg>
