<?xml version="1.0" encoding="utf-8"?><svg viewBox="0 0 1316.58 1502.96" xmlns="http://www.w3.org/2000/svg" xmlns:xlink="http://www.w3.org/1999/xlink"><style>:root>svg{display:none}:root>svg:target{display:block}</style><svg viewBox="0 0 1316.58 945.31" id="bg" xmlns="http://www.w3.org/2000/svg"><defs><style>.acls-1{fill:#ffe6e6}</style></defs><g id="aLayer_2" data-name="Layer 2"><path class="acls-1" d="M1316.58 416.8C1316.58 186.61 1021.85 0 658.29 0S0 186.61 0 416.8c0 221 271.67 401.83 615.11 415.91 62.83 67.39 178.69 112.6 311.24 112.6 199.47 0 361.17-102.38 361.17-228.67 0-39.53-15.84-76.72-43.73-109.15 46.52-57.14 72.79-121.98 72.79-190.69z" id="aLayer_1-2" data-name="Layer 1"/></g></svg><svg viewBox="0 0 384.71 189.12" id="bushes" xmlns="http://www.w3.org/2000/svg"><defs><style>.bcls-1{fill:#505c05}</style></defs><g id="bLayer_2" data-name="Layer 2"><g id="bLayer_1-2" data-name="Layer 1"><path class="bcls-1" d="M384.71 189.12c-1.29-4.91-4.59-10.18-12.87-10.6-10.44-.53-15.46 5-17.65 8.85 3.09-7.38 9.19-24.24.51-24.24-5.83 0-13 7.37-18.42 14.37 1-9.31.69-19.26-3.72-23.68-7.38-7.4-12.42 12.61-14.23 21.49 2-11.24 6.73-42.7-.75-50.2-9.15-9.18-20 30-20 30s12.81-63.06 7.49-68.39-23.92 39.2-23.92 39.2 9.78-69.17 0-69.17-18.49 73.34-18.49 73.34-6.26-76.32-18.33-88.41 10.82 138.46 8.32 141c0 0-19.14-182.66-31.62-178.49-5.61 1.87-2.15 33.52 3.36 67.83-3.25-9.18-6.9-15.23-10.85-15.23-16.32 0 13.31 114.21 13.31 119.21s-16.64-93.41-33.29-86.42c-12 5 3.1 56.52 12.56 85.21a19.53 19.53 0 00-2.74-.34c-10.45-.53-15.47 5-17.65 8.84 3.08-7.38 9.17-24.24.5-24.24-5.83 0-13 7.38-18.42 14.37 1-9.3.69-19.25-3.72-23.67-7.39-7.4-12.42 12.6-14.23 21.49 2-11.24 6.73-42.7-.75-50.2-9.15-9.18-20 30-20 30S141.92 88 136.6 82.65s-23.92 39.2-23.92 39.2 9.77-69.17 0-69.17S94.19 126 94.19 126s-6.27-76.3-18.33-88.39 10.81 138.45 8.32 141C84.18 178.56 65-4.1 52.56.07 47 2 50.41 33.6 55.92 67.9 52.66 58.73 49 52.68 45.07 52.68c-16.32 0 13.31 114.21 13.31 119.21S41.74 78.48 25.09 85.46c-5.71 2.39-5.26 15.37-2.21 31.4a13.49 13.49 0 00-7.27-3.76c-3.06-2.38-6.38-3.42-10-2.51-23.36 5.9 33.51 73 38.2 78.53z" id="b_Layer_" data-name="Layer"/></g></g></svg><svg viewBox="0 0 294.16 869.6" id="girl" xmlns="http://www.w3.org/2000/svg"><defs><style>.ccls-1{fill:#fd5e5a}.ccls-2{fill:#1e2a18}.ccls-3{fill:#fb8603}.ccls-4{fill:#bc6502;opacity:.49}.ccls-24,.ccls-4{isolation:isolate}.ccls-5{fill:#ffd078}.ccls-6{fill:#e87605}.ccls-7{fill:#0c143f}.ccls-8{fill:#d04c72}.ccls-9{fill:#ed9ab2}.ccls-10{fill:#593960}.ccls-11{fill:#432b48}.ccls-12{fill:#3f5625}.ccls-13,.ccls-24{fill:#ff8c2e}.ccls-14{fill:#4d6330}.ccls-15{fill:#fc7575}.ccls-16{fill:#f88}.ccls-17{fill:#18287d}.ccls-18{fill:#2846a6}.ccls-19{fill:#662d91}.ccls-20{fill:#fbc802}.ccls-21{fill:#112e1c}.ccls-22{fill:#ffee4b}.ccls-23{fill:#fbb03b}.ccls-24{opacity:.67}.ccls-25{fill:#603813}.ccls-26{fill:#a3a819}.ccls-27{fill:#ff5}.ccls-28{fill:#d9e021}.ccls-29{fill:#e1e64d}.ccls-30{fill:#592c07}.ccls-31{fill:#a6e54c}.ccls-32{fill:#7c3e11}.ccls-33{fill:#db6812}</style></defs><g id="cLayer_2" data-name="Layer 2"><g id="cLayer_1-2" data-name="Layer 1"><g id="cGirl"><path class="ccls-1" d="M97 246.55c-1 1-13.18 28.75-18.12 64.42-5.27 38-3.32 84.1-3.32 84.1l21 2.38 7.28-77 15.48-59.31z"/><path class="ccls-2" d="M258.67 298.44c-1.57-7.12-36.41 15.79-42.37 19.64 0 0 29.18 25.65 38.35 25.65s5.58-38.16 4.02-45.29zm-5.37 35.35c-2.44 0-32.14-15.71-32.14-15.71s29.32-18.21 32.14-10.55 2.47 26.26 0 26.26z"/><path class="ccls-2" d="M242.66 277.66c-4.39-7.1-23.5-7.33-23.5-7.33s-9.89-.64-9.89 5.13 7 42.67 7 42.67 30.78-33.41 26.39-40.47zM216.3 315.8v-40.06c2.83 0 17.93 3.16 19.54 4.81S216.3 315.8 216.3 315.8z"/><path class="ccls-2" d="M280.7 481.66C279.4 447.14 245 352.93 216.3 318c31.62 32.92 73.62 125.59 77.86 162.52z"/><path class="ccls-3" d="M279.91 63.72c0 34.63-42.41 62.69-94.72 62.69S90.47 98.35 90.47 63.72 132.88 1 185.19 1s94.72 28.09 94.72 62.72z"/><path class="ccls-4" d="M227.1 7.48c9.78 9.86 15.46 21.66 15.46 34.34 0 34.62-42.41 62.69-94.72 62.69a135.5 135.5 0 01-41.91-6.45c16.92 17.08 46.1 28.35 79.26 28.35 52.31 0 94.72-28.06 94.72-62.69 0-24.67-21.52-46.01-52.81-56.24z"/><path class="ccls-5" d="M90.47 63.72c-1.67-67.1 135-88 179.23-29.53 6.36 8.44 10.48 18.9 10.21 29.53a48.23 48.23 0 00-11.41-28.53C224.17-19.85 93.3-1.2 90.47 63.72z"/><path class="ccls-6" d="M233.6 66.29c0 21.74-23.08 39.35-51.57 39.35S130.46 88 130.46 66.29 153.55 26.94 182 26.94s51.6 17.62 51.6 39.35z"/><path class="ccls-7" d="M180.35 33.3s-19.23-2.43-24.4 9.38c-10.26 23.43-26.66 72.14-18.29 90.3s-4.74 26.91-4.74 26.91 54.53-18 65.75-9.8 28.79-2.35 28.79-2.35S212 129.94 216.73 97s-18.06-68.17-36.38-63.7z"/><path class="ccls-8" d="M135.82 148.56L68.58 254.33l52.31 10.54s27.63-98.51 14.93-116.31z"/><path class="ccls-9" d="M220.54 151.44c-30.6-8.66-84.72-2.88-84.72-2.88C121 162 114.4 214.71 114.4 214.71l10.21 96.07 97.39 5.33 13.89-79.75c-3.42-27.99-15.35-84.92-15.35-84.92z"/><path class="ccls-10" d="M65.21 618.15s59.31 193.41 46.13 214.1-41.66 20.93-38.12 24.54 58.36-2.4 58.36-2.4S142.4 744.68 140.05 711s-16.94-92.85-16.94-92.85z"/><path class="ccls-11" d="M123.11 618.15h-57.9s4.55 14.85 10.86 36.74c15.6 2.8 35.28 5.89 56.88 8.27-4.65-24.07-9.84-45.01-9.84-45.01z"/><path class="ccls-10" d="M169.22 618.15l12.88 230.5 20.68-1.23 28.13-232.32-61.69 3.05z"/><path class="ccls-11" d="M230.91 615.1l-61.69 3.05 2.44 43.67 54.72-9.38 4.53-37.34z"/><path class="ccls-12" d="M256.12 437.36c-6.59-46.19-25-95.75-30.59-119.32s-14.09-116.82-8.48-141.83l-17.17.5s0 32.23-8.72 41.13-21.65 8.66-38.12 4.33-6.59-44.45-6.59-44.45l-12.71-3.43C105.55 286.17 133.59 287.6 121 331c-13.77 47.67-92.25 295.9-92.25 295.9 97.43 42.34 235.35 6.73 235.35 6.73s-1.39-150.08-7.98-196.27z"/><path class="ccls-13" d="M.06 546.11c-.89-14 7.58-30.6 14.36-43a100.63 100.63 0 0128.21-31.06c11.27-8.4 24.22-14.19 37.51-18.22a139.17 139.17 0 0182.17 0c13.29 4 26.23 9.82 37.5 18.22A100.27 100.27 0 01228 503.11c6.79 12.39 12.45 29.54 11.56 43.56l-10.78-2.91a68.09 68.09 0 00-10.14-35 89.13 89.13 0 00-25.7-26.76c-20.75-14.36-46.36-21.17-71.72-21.33-25.35.16-51 7-71.71 21.33a89.37 89.37 0 00-25.72 26.81c-6.42 10.56-13.74 22.7-13.78 35z"/><path class="ccls-12" d="M131.9 145.93l-4.09 45.12 7.85 13.14 10.99-10.4 7.54-49.89-22.29 2.03zM200.07 146.67l-2.72 44.71 8.61 10.26 11.73-9.94 3.5-45.47-21.12.44z"/><path class="ccls-2" d="M127.81 191.05l7.85 13.14 10.99-10.4-11.3 5.28-7.54-8.02zM197.35 191.38l8.61 10.26 11.73-9.94-10.18 5.93-10.16-6.25zM138.55 188.36a2.08 2.08 0 11-2.08-2.12 2.08 2.08 0 012.08 2.12zM208.93 187.19a3.22 3.22 0 11-3.22-3.29 3.25 3.25 0 013.22 3.28z"/><path class="ccls-14" d="M170.3 288.89a29.28 29.28 0 01-29.3-29.23V240h58.55v19.69a29.27 29.27 0 01-29.25 29.2z"/><path class="ccls-2" d="M199.56 240c.36 15.72.85 20 0 24.82-6.76 33.29-51.86 33.32-58.62 0-.83-4.93-.33-8.7 0-24.83l.46 16.5c.36 41.77 57.23 42.06 57.63 0z"/><path class="ccls-14" d="M170.3 288.89a29.28 29.28 0 01-29.3-29.23V240h58.55v19.69a29.27 29.27 0 01-29.25 29.2z"/><path class="ccls-2" d="M199.56 240c.36 15.72.85 20 0 24.82-6.76 33.29-51.86 33.32-58.62 0-.83-4.93-.33-8.7 0-24.83l.46 16.5c.36 41.77 57.23 42.06 57.63 0z"/><path class="ccls-15" d="M168.78 106.66l-2 45.18s2.37 10.49 14.61 10.49 15-4.84 15-4.84l3.16-56.49z"/><path class="ccls-1" d="M199.56 101l-30.78 5.68v4.46c0 6.12 9 14.73 13.6 15.26 8 .93 14.52-8.91 16.69-17.52z"/><path class="ccls-15" d="M218.69 79.06c-1.78 6-6 10.08-9.45 9s-4.77-6.81-3-12.85 6-10.08 9.44-9 4.78 6.79 3.01 12.85zM164.3 74.66c1.44 5.88-.11 11.33-3.47 12.19s-7.24-3.2-8.68-9.07.12-11.32 3.47-12.18 7.23 3.24 8.68 9.06z"/><path class="ccls-16" d="M161.67 42.89c-3.6 5.75-3.54 17-3.95 27-.54 13.74 5.53 46.26 21.84 47.88s24.84-14.7 28.52-27.61 3.58-39.63-5.1-48.51-34.1-10.3-41.31 1.24z"/><path class="ccls-1" d="M210.72 78.38s1.71-5.6 4.9-4.31.29 12.24-2.45 13.29-4.47-5.36-2.45-8.98zM160.3 73.74c-.34-.35-3.49-7-5.62-4.77s-.5 18.27 2.43 15.27 3.19-10.5 3.19-10.5z"/><path class="ccls-17" d="M161.67 42.89c-2.82 4.51-2.17 12.56-2.91 20.54 4-11.71 24-27.19 26-28.69-9.32-.74-19.05 1.69-23.09 8.15z"/><path class="ccls-18" d="M211.19 60.74c-1.55-7.9-4.33-15.09-8.21-19.07s-11-6.34-18.22-6.93c3.24 9.31 18.59 20.63 26.43 26z"/><path class="ccls-19" d="M183.91 100.86a16.28 16.28 0 01-1.7-.09 1.54 1.54 0 01-1-2 1.53 1.53 0 011.4-1c.27 0 6.76.86 9.35-4.09a1.53 1.53 0 012.74 1.37c-2.7 5.11-8.04 5.81-10.79 5.81zM180.35 83.66c.88-1.66 2.56-4 4.37-4.31 1.84.15 3.53 2.62 4.36 4.29-4.36-4.64-4.27-4.53-8.73.02zM190.71 60.5s4.87-2 6.71-2 8.58 4.58 8.58 4.58-6.18-3.9-9.08-3.1-5 3.64-6.18 2.43-.03-1.91-.03-1.91zM177.89 60.5s-4.87-2-6.71-2-8.56 4.58-8.56 4.58 6.19-3.9 9.08-3.1 5 3.64 6.19 2.43 0-1.91 0-1.91z"/><path class="ccls-18" d="M182.43 29.66s-19.78-7.76-32.13 17.56c-8 16.43-38.62 91.05-20.47 130.86h15.26l-3.22-18.56 10 18.56 9.84-1.89s-15.79-29.53-14.51-44.53c0 0 7.89 34 19.6 38.6l13.55-3.5s-21.59-9.19-18.26-43.85c2-20.94-6.66-66 6-78.9 8.46-8.65 16.68-9.25 16.68-9.25z"/><path class="ccls-1" d="M175 78c0 1.94-2.78 3.52-6.2 3.52s-6.21-1.58-6.21-3.52 2.78-3.52 6.21-3.52S175 76 175 78zM207.39 78.32c0 1.75-2.83 3.17-6.32 3.17s-6.31-1.42-6.31-3.17 2.82-3.17 6.31-3.17 6.32 1.42 6.32 3.17z"/><path class="ccls-19" d="M197.87 69a2.13 2.13 0 11-2.12-2.34 2.23 2.23 0 012.12 2.34z"/><path class="ccls-7" d="M190.64 69.81c6-10.77 12.07 3.68 16.06-.66-.69 1.57-2.81 2.06-4.46 1.41-5.36-2.07-4.87-5.9-11.6-.75z"/><path class="ccls-19" d="M171.55 68.25A2.13 2.13 0 10173.8 66a2.25 2.25 0 00-2.25 2.25z"/><path class="ccls-7" d="M178.73 69.48c-5.37-11.08-12.24 3-16-1.53.61 1.6 2.7 2.21 4.38 1.65 5.46-1.77 5.19-5.66 11.62-.12z"/><path class="ccls-3" d="M86.88 728.33s20.85 97.46 14.05 104.4S83.59 852.46 69 853.66s-12.24 14-12.24 14l54.13-1.66 4-3.61 2.12 3.37 16-1.68s19.07-116.68 15.53-145.55z"/><path class="ccls-20" d="M148.52 718.46l-61.66 9.87s.87 4 2.17 10.46c13.61-2.52 46.1-8.75 59.92-11.4a76.17 76.17 0 00-.43-8.93z"/><path class="ccls-21" d="M154.11 702.87c-3.5 4.42-3.19 9.08-3.43 12.55 7.22-26.85 22.45-7.63 0 0 32.52-2.54 14.67-26.68 3.43-12.55z"/><path class="ccls-20" d="M98.83 846.91c18.61-11.53 8.59-35.52-1.77-106.07l4.17 18.37c.08.39 9.27 46.7 9.17 46.24 1.28 8.64 4 19 1.76 28.71-4.78 23.23-31.16 21.07-45.74 29.25-.39 0-1.73.85-2.58-.74-.54-.92 24.16-8.88 34.99-15.76z"/><path class="ccls-21" d="M82.17 734.92l1.14-11.87 68.19-10.91 3.49 11.14-72.82 11.64z"/><path class="ccls-20" d="M134.68 861.9l-16.73 1.76-2.67-4.26-5.14 4.63-55.34 1.72.12 3.85 56.69-1.77 2.86-2.58 1.56 2.48 17.71-.65.94-5.18z"/><path class="ccls-3" d="M176.53 867.66h45.89s-5.42-19.61-14.12-21.18c-23.86-4.28-32.45-.75-32.45-.75s-2.98 12.87.68 21.93z"/><path class="ccls-3" d="M169.22 718.46h58.38l-19.29 128.71-32.3 1.48-6.79-130.19z"/><path class="ccls-20" d="M174.71 865.69h49.6v3.85h-49.6zM182.1 859.4c8.06-8.37 18.89-10.91 30.68-3a2 2 0 01.53 2.68c-2.36 3.65-5.62-5.59-16.63-5.46a23.67 23.67 0 00-14.58 5.78zM169.22 718.46h58.38l-1.22 8.14h-56.72l-.44-8.14z"/><path class="ccls-21" d="M168.75 712.82l62.16-3.26-1.66 12.97-61.66-1.9 1.16-7.81z"/><path class="ccls-20" d="M220.82 733l-21.58 107.5 17.88-108.2a1.9 1.9 0 012.16-1.58 1.92 1.92 0 011.54 2.23z"/><path class="ccls-15" d="M221.19 256.76S208 305.1 205.58 320.41 172 407.71 172 407.71l23.48 6.09s38.94-71.49 38.94-88.85 20.64-78.4 20.64-78.4z"/><path class="ccls-8" d="M220.54 151.44l-3.52 113 43.66 2.56s0-120.34-40.14-115.56z"/><path class="ccls-17" d="M184.76 34.74s18.83 1.47 22.64 19.66 3.71 46.24 0 59.55-13.83 23.71-13.83 23.71l12.11 2.74 4.33-9.28a101.56 101.56 0 01-3.15 15.93c-2.17 7.06-7.43 15.27-7.43 15.27l14.4 4.79 6.84-28.53.79 23.2 21.12-4.64-5.92-14.73s4.14 8.47 12 12.31l7.7-10.49s-15.79 3.63-22.69-34.49S222 51.62 212.44 40.38c-13.48-15.85-30-10.74-30-10.74z"/><path class="ccls-20" d="M163.07 431.51s-.85.73-2.22 2c-.14 0-15.61 4.55-19.69 9a34.66 34.66 0 00-6.28 10.64s-4.5 13.11 6.89 1.72c-2 2.49.14-.67-.54 1.25-2.87 8.22-4.54 16.61 9.72 18.11s21.91-1.56 25.11-3.06 7.61-33.61 7.61-33.61z"/><path class="ccls-20" d="M207.75 396.87a41 41 0 01-33.8-8.58l-13.1 45.18 22.46 5.85L212 396z"/><path class="ccls-22" d="M212 396c-16.19 5.12-29.38 1.16-38.07-7.75 15.47 10.08 26.42 8.66 38.07 7.75z"/><path class="ccls-20" d="M104.13 425.51s.68.89 1.76 2.39c.13.07 14.28 7.75 17.34 12.92a34.35 34.35 0 013.87 11.73s1.62 13.76-7.09.22c1.41 2.85 0-.68.25 1.34 1.07 8.64.92 17.19-13.34 15.63s-21.07-6.18-23.92-8.32-.3-34.46-.3-34.46z"/><path class="ccls-20" d="M67.83 382.17a40.94 40.94 0 0034.85-1.17l3.21 46.94-23.19.94-18.87-48.43z"/><path class="ccls-22" d="M63.83 380.45c14.74 8.44 28.47 7.37 38.85.51-17.23 6.53-27.63 2.82-38.85-.51z"/><path class="ccls-23" d="M228.92 546.66c-.12 9.58-49.13 17.34-109.58 17.34S9.86 556.24 9.76 546.66A81.24 81.24 0 004.25 576c0 52.94 51.52 95.85 115.09 95.85S234.42 628.92 234.42 576a81 81 0 00-5.5-29.34z"/><path class="ccls-24" d="M234.42 576a81 81 0 00-5.5-29.32c-.12 9.58-49.13 17.32-109.58 17.32S9.86 556.26 9.76 546.68a83 83 0 00-4.25 15.23c27.87 6.92 137.6 27.21 153.35 26.08 17.86-1.27 46.71 75-65.34 81.41a137.29 137.29 0 0025.82 2.45c63.56 0 115.08-42.91 115.08-95.85z"/><path class="ccls-25" d="M119.3 564c60.45 0 109.46-7.75 109.58-17.33a8.92 8.92 0 00-3.75-4.53c-12.5-7.41-55.13-12.87-105.83-12.87-50.44 0-92.9 5.4-105.64 12.75a9.1 9.1 0 00-3.93 4.63C9.86 556.26 58.88 564 119.3 564z"/><path class="ccls-13" d="M239.52 545.35c-3.6-33.1-197.19-30.44-230.41-11.28-6.55 3.78-8 8.17-8.35 9.19 0 .85-17.52 29.94 118.58 29.94 26.43 0 123.03-1.61 120.18-27.85zM13.63 550c-32.52-18.64 188.71-30 213.6-5.78C248 564.44 53.89 573.12 13.63 550z"/><path class="ccls-26" d="M84.3 521.71a22.75 22.75 0 01-13.52 0c-11.2 0-20.28 8.1-20.28 18.08s9.08 18.07 20.28 18.07a22.75 22.75 0 0113.52 0c11.2 0 20.28-8.09 20.28-18.07s-9.05-18.08-20.28-18.08z"/><path class="ccls-26" d="M124.52 521.71a22.75 22.75 0 01-13.52 0c-11.2 0-20.28 8.1-20.28 18.08s9.08 18.07 20.28 18.07a22.75 22.75 0 0113.52 0c11.2 0 20.28-8.09 20.28-18.07s-9.08-18.08-20.28-18.08z"/><path class="ccls-26" d="M169.3 524.39a22.44 22.44 0 01-13.52 0c-11.2 0-20.28 8.09-20.28 18.07s9.08 18.08 20.28 18.08a22.75 22.75 0 0113.52 0c11.2 0 20.28-8.09 20.28-18.08s-9.07-18.07-20.28-18.07z"/><path class="ccls-27" d="M36.8 529.66c-13.2-4.16-27 4.58-27 17s13.83 21.2 27 17c13.19 4.16 27-4.58 27-17 .03-10-13.8-21.19-27-17z"/><path class="ccls-28" d="M81.78 534.66c-13.19-4.16-27 4.59-27 17s13.84 21.21 27 17c13.19 4.15 27-4.59 27-17 .04-10-13.78-21.21-27-17z"/><path class="ccls-26" d="M121.22 517.77c-13.19-4.16-27 4.58-27 17s13.83 21.2 27 17c13.19 4.16 27-4.58 27-17 .08-9.94-13.79-21.11-27-17zM202.16 525.43c-13.19-4.16-27 4.58-27 17s13.83 21.21 27 17c13.19 4.16 27-4.59 27-17s-13.8-21.17-27-17z"/><path class="ccls-28" d="M166.21 522.74c-13.19-4.15-27 4.59-27 17s13.84 21.2 27 17c13.19 4.15 27-4.58 27-17 .09-9.93-13.79-21.16-27-17z"/><path class="ccls-29" d="M131.65 533.35c-13.19-4.15-27 4.59-27 17s13.83 21.2 27 17c13.19 4.16 27-4.58 27-17s-13.8-21.16-27-17z"/><path class="ccls-27" d="M178.55 532.44c-13.19-4.16-27 4.58-27 17s13.83 21.2 27 17c13.19 4.16 27-4.59 27-17s-13.8-21.17-27-17z"/><path class="ccls-29" d="M81.78 515.28c-13.19-4.16-27 4.58-27 17s13.84 21.21 27 17c13.19 4.16 27-4.58 27-17 .04-9.94-13.78-21.16-27-17z"/><path class="ccls-30" d="M36.69 513.3a12.77 12.77 0 011.52 4.23 18.41 18.41 0 01.31 4.19 24.49 24.49 0 01-1.72 7.92 23.66 23.66 0 00.19-7.83 17.17 17.17 0 00-1-3.65 10.57 10.57 0 00-1.73-3 1.54 1.54 0 012.28-2.08 1.07 1.07 0 01.15.22zM81.73 499.26a12.77 12.77 0 011.52 4.23 19 19 0 01.31 4.2 24.43 24.43 0 01-1.72 7.91 23.6 23.6 0 00.19-7.82 16.6 16.6 0 00-1-3.65 10.34 10.34 0 00-1.73-3 1.56 1.56 0 01.09-2.18 1.54 1.54 0 012.18.09.82.82 0 01.16.22zM132.17 516.6a12.89 12.89 0 011.51 4.24A19 19 0 01134 525a24.71 24.71 0 01-1.73 7.91 24.15 24.15 0 00.2-7.82 16.6 16.6 0 00-1-3.65 10.57 10.57 0 00-1.73-3 1.56 1.56 0 01.09-2.18 1.54 1.54 0 012.18.09 1.12 1.12 0 01.16.25zM178 516.6a12.61 12.61 0 011.52 4.24 18.41 18.41 0 01.31 4.19 24.18 24.18 0 01-1.73 7.91 23.6 23.6 0 00.2-7.82 17.17 17.17 0 00-1-3.65 10.57 10.57 0 00-1.73-3 1.56 1.56 0 01.25-2.18 1.54 1.54 0 012 .09 1.07 1.07 0 01.18.22z"/><path class="ccls-31" d="M178.3 531.48a26.88 26.88 0 0017 .52c8.76-2.87 13-15.16 13-15.16s-27.95-6.41-30 14.64zM36.57 529.87A26.83 26.83 0 0025.44 517c-8.06-4.49-19.93.76-19.93.76s14.23 24.9 31.06 12.11zM118.3 561.25a26.82 26.82 0 00-11.14-12.84c-8-4.49-19.92.76-19.92.76S101.5 574 118.3 561.25z"/><path class="ccls-13" d="M229.2 543.77c-3.31 15.8-175.38 29.31-215.57 6.26-3.46-2-4.74-4.28-3.62-6.26l-9.62.59c-1.61 5.43-3.15 28.84 119 28.84 26.43 0 123-1.61 120.18-27.85a5.21 5.21 0 00-.2-1z"/><path class="ccls-32" d="M2.23 552.9c24 28 217.92 23.06 235-.34a10.53 10.53 0 002.34-7.21c2.12 16.92-36.35 23.1-53.09 25.46-37.18 4.85-163.73 9.32-184.25-17.91z"/><path class="ccls-33" d="M17.36 586.08c24.47 11.59 49.7 13.41 76.83 11.16-31.89 6.82-60.19-.09-76.83-11.16zM101.9 638.52c24 8.34 47.37 7.05 72.2 1.26-28.54 10.76-55.27 7.62-72.2-1.26zM121.18 624.51c27.57 7.07 53 3.24 77.54-3.66-30.04 12.81-59.07 11.35-77.54 3.66zM62.11 648.92c26.26 11.7 52.14 12 77.07 9.36-31.95 7.61-60.18 1.29-77.07-9.36zM38.53 605.77c24.48 11.59 49.7 13.41 76.83 11.16-31.94 6.82-60.16-.1-76.83-11.16z"/></g></g></g></svg><svg viewBox="0 0 1273.83 1502.96" id="tree-plain" xmlns="http://www.w3.org/2000/svg"><defs><style>.dcls-1{fill:#bfd34b}.dcls-2{fill:#32213d}.dcls-3{fill:#432b48}.dcls-4{fill:#505c05}.dcls-5{fill:#6a7b06}.dcls-6{fill:#d9e021}.dcls-7{fill:#81a556}.dcls-8{fill:#a3a819}.dcls-9{fill:#ff5}</style></defs><g id="dLayer_2" data-name="Layer 2"><g id="dLayer_1-2" data-name="Layer 1"><g id="d_Layer_" data-name="Layer"><path class="dcls-1" d="M1273.83 1459.8c0 23.84-285.15 43.16-636.91 43.16S0 1483.64 0 1459.8s285.15-43.15 636.92-43.15 636.91 19.35 636.91 43.15z"/><path class="dcls-2" d="M769.72 617.53s-19.88 278.55-72.15 315.93l-5 36.16 19.9 23.64S743.58 892.48 756 853.91l160.5-129.4-8.7-7.46S775.94 827.78 758.51 827.78c0 0 31.1-182.9 24.88-201.56s-13.67-8.69-13.67-8.69z"/><path class="dcls-3" d="M682.63 1039.31c6.47 25.92-8.44 322.69-12.5 400.73h53c-1.68-82.55 6.74-392 6.74-392l-3.73-27.38 1.86-54.74s-49.15-54.75-64.08-87.1-56-301.09-56-301.09l-27.37-18.67s48.24 270 58.48 317.28c11.5 53.18 34.21 97 34.21 113.22s1.93 19.9 9.39 49.75z"/><path class="dcls-4" d="M401.46 234.07s-101.24-103-150.71-85.72-23.58 85.72-23.58 85.72-58 39.08-39.66 90.22 78.29 48.06 78.29 48.06-75.3 24.71-30.93 69.09 110.34 15.74 117.23-7.52 49.36-199.85 49.36-199.85z"/><path class="dcls-5" d="M1165.37 590.16s46-31.11 18.66-92.07-89.58-56-89.58-56 69.68-70.92 24.89-146.82-61-37.32-70.92-47.27 3.73-69.68-83.36-107-115.71-1.24-115.71-1.24C863 80 733.64-7.06 682.63.46s-56 58.09-56 58.09-42.72-9.55-88.72-8.27C519.83 35.16 496 24 482.91 25.87c-24 3.51-26.33 27.32-26.33 27.32s-53.83-12.11-80.16 6-21.06 51.46-21.06 51.46-37.44-1.15-56.75 31 8.19 56.17 8.19 56.17-9.36-5.27-18.14 8.19c-5.54 8.51 3.17 18 11.37 27.15a129.6 129.6 0 00-9.38 13.59c-41 68.44 17.52 119.45 17.52 119.45s-19.91-11.2-38.57 17.42 38.57 62.21 47.23 90.84-39.81 17.42-26.12 51 37.94 21.78 49.76 33.59-64.7 33.6-64.7 55.83 37.33-14.77 57.24-8.55-21.16 38.57-8.71 51 33.67-59.81 51-42.47-13.07 40.6 0 53.66 17.42-53.66 31.1-53.66-10 58.64 21.15 38.73 6-58.21 16.18-48 4.25 33.59 19.9 17.94 12.45-35.88 28.62-35.88 0 22.4 11.2 33.59 37.32-22.39 37.32-22.39 124.4-14.91 118.84 43.61 51.63 48.52 104.11 39 65.72 25.69 65.72 76.71 83.36 120.64 133.13 88.29 61-57.23 77.14-31.1 148.06-19.9 181.65-136.9-55.99-88.3-55.99-88.3z"/><path class="dcls-4" d="M671.43 343.81s-79.63 26.13-32.35 73.41 125.66 1.24 114.46 77.14-47.54 82 1.09 130.64 92.23 5 92.23 5 48.52 118.2 104.51 128.16 130.63-24.89 109.49-100.78-94.56-82.12-94.56-82.12 163 54.74 163-6.22-128.72-62.89-97-94.56c6.85-6.84 107-49.77 48.53-108.25s-125.67-2.48-125.67-2.48 31.11-19.91 7.47-77.14-97-66-105.76-39.82-44.79-89.58-118.2-112-107 54.25-67.18 104.89 75.94 53.13 75.94 53.13-105.8-59.72-148.11-43.55 72.11 94.55 72.11 94.55zM517.17 398.55c6.06-6.06 8.39-112.91-26.13-121.31s-36.86 36.86-31.73 42-2.8-62.53-33.59-71.86 28.93 142.77 18.66 123.18-56-81.18-84.92-76.52 32.65 91.42 32.65 91.42-42-32.66-61.59-3.73S391.17 434 391.17 434s-48.52 6.54-19.59 45.73 65.31-20.53 65.31-20.53-43.85 50.39 2.8 71.85 41.06-62.52 41.06-62.52-5.48 59.14 21 81.82c6.28 5.37 14.35 8.69 24.73 8.69 54.12 0 8.4-99.84 8.4-99.84s92.38 100.8 101.71 50.4S520 403 520 403s60.65 23.54 60.65-11.92-63.48 7.47-63.48 7.47z"/><path class="dcls-6" d="M992.36 516a22.75 22.75 0 01-13.52 0c-11.2 0-20.28 8.09-20.28 18.07s9.08 18.07 20.28 18.07h13.52c11.2 0 20.28-8.09 20.28-18.07S1003.56 516 992.36 516z"/><path class="dcls-7" d="M985.85 517.61a26.92 26.92 0 0016.86-2.09c8.22-4.19 10.48-17 10.48-17s-28.58-2.01-27.34 19.09z"/><path class="dcls-6" d="M803.53 404.7a16.51 16.51 0 01-13.52 0c-11.2 0-20.28 11.37-20.28 25.41s9.08 25.42 20.28 25.42h13.52c11.2 0 20.27-11.38 20.27-25.42s-9.07-25.41-20.27-25.41z"/><path class="dcls-7" d="M797 406.35a27.09 27.09 0 0016.87-2.1c8.21-4.18 10.47-17 10.47-17s-28.57-2-27.34 19.1z"/><path class="dcls-7" d="M797 406.35a27 27 0 00-7-15.47c-6.46-6.58-19.33-4.91-19.33-4.91s6.57 27.87 26.33 20.38z"/><path class="dcls-8" d="M563.38 409.34a22.56 22.56 0 01-13.51 0c-11.2 0-20.28 8.09-20.28 18.08s9.08 18 20.28 18a22.56 22.56 0 0113.51 0c11.21 0 20.28-8.09 20.28-18.07s-9.07-18.01-20.28-18.01zM1008.77 394.2a15.17 15.17 0 01-13.52 0c-11.2 0-20.28 12.41-20.28 27.71s9.08 27.7 20.28 27.7h13.52c11.2 0 20.28-12.41 20.28-27.7s-9.05-27.71-20.28-27.71zM790.59 278.63a16.83 16.83 0 01-13.52 0c-11.2 0-20.28 11.13-20.28 24.87s9.08 24.87 20.28 24.87a16.75 16.75 0 0113.52 0c11.19 0 20.27-11.13 20.27-24.87s-9.08-24.87-20.27-24.87zM914.78 206.35a22.72 22.72 0 01-13.51 0c-11.2 0-20.29 8.09-20.29 18.07s9.09 18 20.29 18a22.56 22.56 0 0113.51 0c11.2 0 20.28-8.09 20.28-18.08s-9.06-17.99-20.28-17.99z"/><path class="dcls-7" d="M556.87 411a27.09 27.09 0 0016.87-2.1c8.21-4.19 10.47-17 10.47-17s-28.58-2-27.34 19.1z"/><path class="dcls-7" d="M556.87 411a26.94 26.94 0 01-8.39-14.78c-1.55-9.09 7.36-18.53 7.36-18.53s18.7 21.7 1.03 33.31z"/><path class="dcls-7" d="M556.87 411a27 27 0 00-7-15.47c-6.45-6.59-19.33-4.92-19.33-4.92s6.57 27.85 26.33 20.39z"/><path class="dcls-6" d="M372 495.85a22.75 22.75 0 01-13.52 0c-11.2 0-20.28 8.09-20.28 18.08S347.28 532 358.48 532H372c11.2 0 20.27-8.09 20.27-18.07s-9.1-18.08-20.27-18.08z"/><path class="dcls-7" d="M365.48 497.51a27.09 27.09 0 0016.87-2.1c8.21-4.19 10.47-17 10.47-17s-28.58-2.01-27.34 19.1zM273.8 376.32a27 27 0 00-4.67-16.32c-5.4-7.47-18.38-7.74-18.38-7.74s2.42 28.53 23.05 24.06z"/><path class="dcls-7" d="M365.48 497.51a27 27 0 01-8.39-14.78c-1.55-9.09 7.36-18.54 7.36-18.54s18.72 21.71 1.03 33.32z"/><path class="dcls-7" d="M365.48 497.51a27 27 0 00-7-15.47c-6.45-6.59-19.32-4.92-19.32-4.92s6.56 27.88 26.32 20.39z"/><path class="dcls-6" d="M379.89 278.63a17.88 17.88 0 01-13.52 0c-11.2 0-20.27 10.47-20.27 23.38s9.07 23.37 20.27 23.37h13.52c11.2 0 20.28-10.46 20.28-23.37s-9.08-23.38-20.28-23.38z"/><path class="dcls-7" d="M373.38 280.28a26.92 26.92 0 0016.86-2.09c8.22-4.19 10.47-17 10.47-17s-28.54-2.01-27.33 19.09z"/><path class="dcls-7" d="M373.38 280.28A27 27 0 01365 265.5c-1.55-9.09 7.36-18.53 7.36-18.53s18.64 21.7 1.02 33.31z"/><path class="dcls-7" d="M373.38 280.28a26.88 26.88 0 00-7-15.47c-6.45-6.58-19.32-4.91-19.32-4.91s6.55 27.88 26.32 20.38z"/><path class="dcls-6" d="M590.59 188.28a22.75 22.75 0 01-13.52 0c-11.2 0-20.27 8.09-20.27 18.07s9.07 18.11 20.27 18.11a22.59 22.59 0 0113.52 0c11.2 0 20.28-8.09 20.28-18.07s-9.08-18.11-20.28-18.11zM532.41 328.37a15.56 15.56 0 01-13.52 0c-11.2 0-20.28 12.14-20.28 27.11s9.08 27.12 20.28 27.12h13.52c11.2 0 20.28-12.14 20.28-27.12s-9.08-27.11-20.28-27.11zM640.35 346.46a20.33 20.33 0 01-13.51 0 20.39 20.39 0 100 40.78h13.51a20.39 20.39 0 000-40.78zM527.81 424.1a18.16 18.16 0 01-13.52 0c-11.2 0-20.28 10.29-20.28 23s9.08 23 20.28 23a18 18 0 0113.52 0c11.2 0 20.28-10.29 20.28-23s-9.09-23-20.28-23zM456.17 133.63a18.06 18.06 0 01-13.52 0c-11.2 0-20.28 10.3-20.28 23s9.08 23 20.28 23a18.06 18.06 0 0113.52 0c11.2 0 20.28-10.29 20.28-23s-9.06-23-20.28-23zM499.06 219.51a18.06 18.06 0 01-13.52 0c-11.2 0-20.28 10.3-20.28 23s9.08 23 20.28 23a18.06 18.06 0 0113.52 0c11.2 0 20.28-10.29 20.28-23s-9.08-23-20.28-23zM399 393.13a17 17 0 01-13.52 0c-11.2 0-20.28 11-20.28 24.52s9.08 24.52 20.28 24.52H399c11.2 0 20.28-11 20.28-24.52s-9.04-24.52-20.28-24.52zM331.81 433.92a22.72 22.72 0 01-13.51 0c-11.21 0-20.3 8.08-20.3 18.08s9.08 18.08 20.29 18.08h13.51c11.2 0 20.28-8.1 20.28-18.08s-9.08-18.08-20.27-18.08zM279.31 372.35a18.56 18.56 0 01-13.52 0c-11.2 0-20.28 10-20.28 22.38s9.08 22.37 20.28 22.37h13.52c11.2 0 20.28-10 20.28-22.37s-9.08-22.38-20.28-22.38z"/><path class="dcls-7" d="M584.08 189.93a27.06 27.06 0 0016.86-2.09c8.22-4.19 10.47-17 10.47-17s-28.57-2.01-27.33 19.09z"/><path class="dcls-7" d="M584.08 189.93a27 27 0 01-8.4-14.78c-1.54-9.09 7.36-18.53 7.36-18.53s18.7 21.7 1.04 33.31z"/><path class="dcls-7" d="M584.08 189.93a27 27 0 00-7-15.47c-6.46-6.58-19.33-4.91-19.33-4.91s6.56 27.91 26.33 20.38z"/><path class="dcls-6" d="M643.47 449.61a16.28 16.28 0 01-13.52 0c-11.2 0-20.28 11.54-20.28 25.77s9.08 25.78 20.28 25.78h13.52c11.2 0 20.28-11.54 20.28-25.78s-9.08-25.77-20.28-25.77z"/><path class="dcls-7" d="M637 451.26a27 27 0 0016.87-2.09c8.22-4.19 10.47-17 10.47-17s-28.62-2.01-27.34 19.09z"/><path class="dcls-6" d="M781 588.46a19.53 19.53 0 01-13.52 0c-11.2 0-20.28 9.49-20.28 21.2s9.08 21.2 20.28 21.2a19.41 19.41 0 0113.52 0c11.2 0 20.28-9.49 20.28-21.2s-9.11-21.2-20.28-21.2z"/><path class="dcls-7" d="M774.44 590.08a27 27 0 0016.87-2.08c8.22-4.19 10.47-17 10.47-17s-28.61-2-27.34 19.08z"/><path class="dcls-7" d="M774.44 590.08a26.9 26.9 0 01-15-8.06c-6.14-6.89-3.61-19.62-3.61-19.62s27.42 8.47 18.61 27.68z"/><path class="dcls-9" d="M347 163.81c-13.19-5-27 5.55-27 20.64s9.65 24.32 27 27.12c19.87 0 27-12 27-27.12s-13.83-25.68-27-20.64zM320 254.25c-13.19-5-27 5.55-27 20.63s9.65 24.32 27 27.13c19.87 0 27-12.05 27-27.13s-13.83-25.67-27-20.63z"/></g></g></g></svg><svg viewBox="0 0 1273.83 1502.96" id="tree-with-bushes" xmlns="http://www.w3.org/2000/svg"><defs><style>.ecls-1{fill:#bfd34b}.ecls-2{fill:#8da408}.ecls-3{fill:#505c05}.ecls-4{fill:#32213d}.ecls-5{fill:#432b48}.ecls-6{fill:#6a7b06}.ecls-7{fill:#d9e021}.ecls-8{fill:#81a556}.ecls-9{fill:#a3a819}.ecls-10{fill:#ff5}</style></defs><g id="eLayer_2" data-name="Layer 2"><g id="eLayer_1-2" data-name="Layer 1"><g id="e_Layer_" data-name="Layer"><path class="ecls-1" d="M1273.83 1459.8c0 23.84-285.15 43.16-636.91 43.16S0 1483.64 0 1459.8s285.15-43.15 636.92-43.15 636.91 19.35 636.91 43.15z"/><path class="ecls-2" d="M920.29 1439.65s41.6-122.63 30.79-133.44-45.77 72.39-45.77 72.39 50.76-152.27 27.46-159.76-42.43 132.3-42.43 132.3 5.82-180.57-5.83-192.21-15 121.48-15 121.48-2.5-85.7-21.64-85.7-5 135.62-5 135.62-19.14-106.5-30-95.69 0 123.15 0 123.15-18.31-68.12-33.29-61.1S795.44 1416 795.44 1416s-14.14-50.76-25.8-50.76 0 72.6 0 72.6z"/><path class="ecls-3" d="M993.17 1440.1c-1.29-4.91-4.59-10.18-12.87-10.6-10.44-.53-15.46 5-17.65 8.85 3.09-7.38 9.19-24.24.51-24.24-5.83 0-13 7.37-18.42 14.37 1-9.31.69-19.26-3.72-23.68-7.38-7.4-12.42 12.61-14.23 21.49 2-11.24 6.73-42.7-.75-50.2-9.15-9.18-20 30-20 30s12.81-63.06 7.49-68.39-23.92 39.2-23.92 39.2 9.78-69.17 0-69.17-18.49 73.34-18.49 73.34-6.26-76.32-18.33-88.41 10.82 138.46 8.32 141c0 0-19.14-182.66-31.62-178.49-5.61 1.87-2.15 33.52 3.36 67.83-3.25-9.18-6.9-15.23-10.85-15.23-16.32 0 13.31 114.21 13.31 119.21s-16.64-93.41-33.29-86.42c-12 5 3.1 56.52 12.56 85.21a18 18 0 00-2.74-.34c-10.45-.53-15.47 5-17.65 8.84 3.08-7.38 9.17-24.24.5-24.24-5.83 0-13 7.38-18.42 14.37 1-9.3.69-19.25-3.72-23.67-7.39-7.4-12.42 12.6-14.23 21.49 2-11.24 6.73-42.7-.75-50.2-9.15-9.18-20 30-20 30s12.81-63.06 7.49-68.39-23.92 39.2-23.92 39.2 9.77-69.17 0-69.17-18.49 73.34-18.49 73.34-6.27-76.32-18.33-88.41 10.81 138.45 8.32 141c0 0-19.14-182.66-31.62-178.49-5.61 1.88-2.15 33.53 3.36 67.83-3.26-9.17-6.9-15.22-10.85-15.22-16.32 0 13.31 114.21 13.31 119.21s-16.64-93.41-33.29-86.43c-5.71 2.39-5.26 15.37-2.21 31.4a13.46 13.46 0 00-7.27-3.76c-3.06-2.38-6.38-3.42-10-2.51-23.36 5.9 33.51 73 38.2 78.53z"/><path class="ecls-4" d="M769.72 617.53s-19.88 278.55-72.15 315.93l-5 36.16 19.9 23.64S743.58 892.48 756 853.91l160.5-129.4-8.7-7.46S775.94 827.78 758.51 827.78c0 0 31.1-182.9 24.88-201.56s-13.67-8.69-13.67-8.69z"/><path class="ecls-5" d="M682.63 1039.31c6.47 25.92-8.44 322.69-12.5 400.73h53c-1.68-82.55 6.74-392 6.74-392l-3.73-27.38 1.86-54.74s-49.15-54.75-64.08-87.1-56-301.09-56-301.09l-27.37-18.67s48.24 270 58.48 317.28c11.5 53.18 34.21 97 34.21 113.22s1.93 19.9 9.39 49.75z"/><path class="ecls-3" d="M401.46 234.07s-101.24-103-150.71-85.72-23.58 85.72-23.58 85.72-58 39.08-39.66 90.22 78.29 48.06 78.29 48.06-75.3 24.71-30.93 69.09 110.34 15.74 117.23-7.52 49.36-199.85 49.36-199.85z"/><path class="ecls-6" d="M1165.37 590.16s46-31.11 18.66-92.07-89.58-56-89.58-56 69.68-70.92 24.89-146.82-61-37.32-70.92-47.27 3.73-69.68-83.36-107-115.71-1.24-115.71-1.24C863 80 733.64-7.06 682.63.46s-56 58.09-56 58.09-42.72-9.55-88.72-8.27C519.83 35.16 496 24 482.91 25.87c-24 3.51-26.33 27.32-26.33 27.32s-53.83-12.11-80.16 6-21.06 51.46-21.06 51.46-37.44-1.15-56.75 31 8.19 56.17 8.19 56.17-9.36-5.27-18.14 8.19c-5.54 8.51 3.17 18 11.37 27.15a129.6 129.6 0 00-9.38 13.59c-41 68.44 17.52 119.45 17.52 119.45s-19.91-11.2-38.57 17.42 38.57 62.21 47.23 90.84-39.81 17.42-26.12 51 37.94 21.78 49.76 33.59-64.7 33.6-64.7 55.83 37.33-14.77 57.24-8.55-21.16 38.57-8.71 51 33.67-59.81 51-42.47-13.07 40.6 0 53.66 17.42-53.66 31.1-53.66-10 58.64 21.15 38.73 6-58.21 16.18-48 4.25 33.59 19.9 17.94 12.45-35.88 28.62-35.88 0 22.4 11.2 33.59 37.32-22.39 37.32-22.39 124.4-14.91 118.84 43.61 51.63 48.52 104.11 39 65.72 25.69 65.72 76.71 83.36 120.64 133.13 88.29 61-57.23 77.14-31.1 148.06-19.9 181.65-136.9-55.99-88.3-55.99-88.3z"/><path class="ecls-3" d="M671.43 343.81s-79.63 26.13-32.35 73.41 125.66 1.24 114.46 77.14-47.54 82 1.09 130.64 92.23 5 92.23 5 48.52 118.2 104.51 128.16 130.63-24.89 109.49-100.78-94.56-82.12-94.56-82.12 163 54.74 163-6.22-128.72-62.89-97-94.56c6.85-6.84 107-49.77 48.53-108.25s-125.67-2.48-125.67-2.48 31.11-19.91 7.47-77.14-97-66-105.76-39.82-44.79-89.58-118.2-112-107 54.25-67.18 104.89 75.94 53.13 75.94 53.13-105.8-59.72-148.11-43.55 72.11 94.55 72.11 94.55zM517.17 398.55c6.06-6.06 8.39-112.91-26.13-121.31s-36.86 36.86-31.73 42-2.8-62.53-33.59-71.86 28.93 142.77 18.66 123.18-56-81.18-84.92-76.52 32.65 91.42 32.65 91.42-42-32.66-61.59-3.73S391.17 434 391.17 434s-48.52 6.54-19.59 45.73 65.31-20.53 65.31-20.53-43.85 50.39 2.8 71.85 41.06-62.52 41.06-62.52-5.48 59.14 21 81.82c6.28 5.37 14.35 8.69 24.73 8.69 54.12 0 8.4-99.84 8.4-99.84s92.38 100.8 101.71 50.4S520 403 520 403s60.65 23.54 60.65-11.92-63.48 7.47-63.48 7.47z"/><path class="ecls-7" d="M992.36 516a22.75 22.75 0 01-13.52 0c-11.2 0-20.28 8.09-20.28 18.07s9.08 18.07 20.28 18.07h13.52c11.2 0 20.28-8.09 20.28-18.07S1003.56 516 992.36 516z"/><path class="ecls-8" d="M985.85 517.61a26.92 26.92 0 0016.86-2.09c8.22-4.19 10.48-17 10.48-17s-28.58-2.01-27.34 19.09z"/><path class="ecls-7" d="M803.53 404.7a16.51 16.51 0 01-13.52 0c-11.2 0-20.28 11.37-20.28 25.41s9.08 25.42 20.28 25.42h13.52c11.2 0 20.27-11.38 20.27-25.42s-9.07-25.41-20.27-25.41z"/><path class="ecls-8" d="M797 406.35a27.09 27.09 0 0016.87-2.1c8.21-4.18 10.47-17 10.47-17s-28.57-2-27.34 19.1z"/><path class="ecls-8" d="M797 406.35a27 27 0 00-7-15.47c-6.46-6.58-19.33-4.91-19.33-4.91s6.57 27.87 26.33 20.38z"/><path class="ecls-9" d="M563.38 409.34a22.56 22.56 0 01-13.51 0c-11.2 0-20.28 8.09-20.28 18.08s9.08 18 20.28 18a22.56 22.56 0 0113.51 0c11.21 0 20.28-8.09 20.28-18.07s-9.07-18.01-20.28-18.01zM1008.77 394.2a15.17 15.17 0 01-13.52 0c-11.2 0-20.28 12.41-20.28 27.71s9.08 27.7 20.28 27.7h13.52c11.2 0 20.28-12.41 20.28-27.7s-9.05-27.71-20.28-27.71zM790.59 278.63a16.83 16.83 0 01-13.52 0c-11.2 0-20.28 11.13-20.28 24.87s9.08 24.87 20.28 24.87a16.75 16.75 0 0113.52 0c11.19 0 20.27-11.13 20.27-24.87s-9.08-24.87-20.27-24.87zM914.78 206.35a22.72 22.72 0 01-13.51 0c-11.2 0-20.29 8.09-20.29 18.07s9.09 18 20.29 18a22.56 22.56 0 0113.51 0c11.2 0 20.28-8.09 20.28-18.08s-9.06-17.99-20.28-17.99z"/><path class="ecls-8" d="M556.87 411a27.09 27.09 0 0016.87-2.1c8.21-4.19 10.47-17 10.47-17s-28.58-2-27.34 19.1z"/><path class="ecls-8" d="M556.87 411a26.94 26.94 0 01-8.39-14.78c-1.55-9.09 7.36-18.53 7.36-18.53s18.7 21.7 1.03 33.31z"/><path class="ecls-8" d="M556.87 411a27 27 0 00-7-15.47c-6.45-6.59-19.33-4.92-19.33-4.92s6.57 27.85 26.33 20.39z"/><path class="ecls-7" d="M372 495.85a22.75 22.75 0 01-13.52 0c-11.2 0-20.28 8.09-20.28 18.08S347.28 532 358.48 532H372c11.2 0 20.27-8.09 20.27-18.07s-9.1-18.08-20.27-18.08z"/><path class="ecls-8" d="M365.48 497.51a27.09 27.09 0 0016.87-2.1c8.21-4.19 10.47-17 10.47-17s-28.58-2.01-27.34 19.1zM273.8 376.32a27 27 0 00-4.67-16.32c-5.4-7.47-18.38-7.74-18.38-7.74s2.42 28.53 23.05 24.06z"/><path class="ecls-8" d="M365.48 497.51a27 27 0 01-8.39-14.78c-1.55-9.09 7.36-18.54 7.36-18.54s18.72 21.71 1.03 33.32z"/><path class="ecls-8" d="M365.48 497.51a27 27 0 00-7-15.47c-6.45-6.59-19.32-4.92-19.32-4.92s6.56 27.88 26.32 20.39z"/><path class="ecls-7" d="M379.89 278.63a17.88 17.88 0 01-13.52 0c-11.2 0-20.27 10.47-20.27 23.38s9.07 23.37 20.27 23.37h13.52c11.2 0 20.28-10.46 20.28-23.37s-9.08-23.38-20.28-23.38z"/><path class="ecls-8" d="M373.38 280.28a26.92 26.92 0 0016.86-2.09c8.22-4.19 10.47-17 10.47-17s-28.54-2.01-27.33 19.09z"/><path class="ecls-8" d="M373.38 280.28A27 27 0 01365 265.5c-1.55-9.09 7.36-18.53 7.36-18.53s18.64 21.7 1.02 33.31z"/><path class="ecls-8" d="M373.38 280.28a26.88 26.88 0 00-7-15.47c-6.45-6.58-19.32-4.91-19.32-4.91s6.55 27.88 26.32 20.38z"/><path class="ecls-7" d="M590.59 188.28a22.75 22.75 0 01-13.52 0c-11.2 0-20.27 8.09-20.27 18.07s9.07 18.11 20.27 18.11a22.59 22.59 0 0113.52 0c11.2 0 20.28-8.09 20.28-18.07s-9.08-18.11-20.28-18.11zM532.41 328.37a15.56 15.56 0 01-13.52 0c-11.2 0-20.28 12.14-20.28 27.11s9.08 27.12 20.28 27.12h13.52c11.2 0 20.28-12.14 20.28-27.12s-9.08-27.11-20.28-27.11zM640.35 346.46a20.33 20.33 0 01-13.51 0 20.39 20.39 0 100 40.78h13.51a20.39 20.39 0 000-40.78zM527.81 424.1a18.16 18.16 0 01-13.52 0c-11.2 0-20.28 10.29-20.28 23s9.08 23 20.28 23a18 18 0 0113.52 0c11.2 0 20.28-10.29 20.28-23s-9.09-23-20.28-23zM456.17 133.63a18.06 18.06 0 01-13.52 0c-11.2 0-20.28 10.3-20.28 23s9.08 23 20.28 23a18.06 18.06 0 0113.52 0c11.2 0 20.28-10.29 20.28-23s-9.06-23-20.28-23zM499.06 219.51a18.06 18.06 0 01-13.52 0c-11.2 0-20.28 10.3-20.28 23s9.08 23 20.28 23a18.06 18.06 0 0113.52 0c11.2 0 20.28-10.29 20.28-23s-9.08-23-20.28-23zM399 393.13a17 17 0 01-13.52 0c-11.2 0-20.28 11-20.28 24.52s9.08 24.52 20.28 24.52H399c11.2 0 20.28-11 20.28-24.52s-9.04-24.52-20.28-24.52zM331.81 433.92a22.72 22.72 0 01-13.51 0c-11.21 0-20.3 8.08-20.3 18.08s9.08 18.08 20.29 18.08h13.51c11.2 0 20.28-8.1 20.28-18.08s-9.08-18.08-20.27-18.08zM279.31 372.35a18.56 18.56 0 01-13.52 0c-11.2 0-20.28 10-20.28 22.38s9.08 22.37 20.28 22.37h13.52c11.2 0 20.28-10 20.28-22.37s-9.08-22.38-20.28-22.38z"/><path class="ecls-8" d="M584.08 189.93a27.06 27.06 0 0016.86-2.09c8.22-4.19 10.47-17 10.47-17s-28.57-2.01-27.33 19.09z"/><path class="ecls-8" d="M584.08 189.93a27 27 0 01-8.4-14.78c-1.54-9.09 7.36-18.53 7.36-18.53s18.7 21.7 1.04 33.31z"/><path class="ecls-8" d="M584.08 189.93a27 27 0 00-7-15.47c-6.46-6.58-19.33-4.91-19.33-4.91s6.56 27.91 26.33 20.38z"/><path class="ecls-7" d="M643.47 449.61a16.28 16.28 0 01-13.52 0c-11.2 0-20.28 11.54-20.28 25.77s9.08 25.78 20.28 25.78h13.52c11.2 0 20.28-11.54 20.28-25.78s-9.08-25.77-20.28-25.77z"/><path class="ecls-8" d="M637 451.26a27 27 0 0016.87-2.09c8.22-4.19 10.47-17 10.47-17s-28.62-2.01-27.34 19.09z"/><path class="ecls-7" d="M781 588.46a19.53 19.53 0 01-13.52 0c-11.2 0-20.28 9.49-20.28 21.2s9.08 21.2 20.28 21.2a19.41 19.41 0 0113.52 0c11.2 0 20.28-9.49 20.28-21.2s-9.11-21.2-20.28-21.2z"/><path class="ecls-8" d="M774.44 590.08a27 27 0 0016.87-2.08c8.22-4.19 10.47-17 10.47-17s-28.61-2-27.34 19.08z"/><path class="ecls-8" d="M774.44 590.08a26.9 26.9 0 01-15-8.06c-6.14-6.89-3.61-19.62-3.61-19.62s27.42 8.47 18.61 27.68z"/><path class="ecls-10" d="M347 163.81c-13.19-5-27 5.55-27 20.64s9.65 24.32 27 27.12c19.87 0 27-12 27-27.12s-13.83-25.68-27-20.64zM320 254.25c-13.19-5-27 5.55-27 20.63s9.65 24.32 27 27.13c19.87 0 27-12.05 27-27.13s-13.83-25.67-27-20.63z"/></g></g></g></svg></svg>